<?xml version="1.0" encoding="UTF-8"?>
<!-- Generated by IcoMoon.io -->
<svg width="20" height="20" version="1.1" viewBox="0 0 20 20" xmlns="http://www.w3.org/2000/svg">
 <title>folderlink</title>
 <path d="m2 2.998c-.461 0-.96588.31161-1.1719.72461l-.55273 1.1055c-.158.315-.27539.81888-.27539 1.1719v5.4414c0 .88803 1 .89127 1 0v-5.4414c0-.196.083875-.54861.17188-.72461l.55273-1.1055c.038-.077.19039-.17188.27539-.17188h7c.086 0 .23739.094875.27539.17188l.55273 1.1055c.206.413.71088.72461 1.1719.72461h7.5c.276 0 .5.224.5.5v10c0 .276-.224.5-.5.5h-12.187c-.96391 0-.87512 1 0 1h12.187c.827 0 1.5-.673 1.5-1.5v-10c0-.827-.673-1.5-1.5-1.5h-7.5c-.086 0-.23739-.094875-.27539-.17188l-.55273-1.1055c-.206-.413-.71088-.72461-1.1719-.72461z" fill="#003665"/>
 <path d="m3.6181 14.017h-3c-.276 0-.5.224-.5.5s.224.5.5.5h1.793l-2.146 2.146c-.195.195-.195.512 0 .707.098.098.226.146.354.146s.256-.049.354-.146l2.146-2.146v1.793c0 .276.224.5.5.5s.5-.224.5-.5v-3c0-.276-.224-.5-.5-.5z" fill="#003665"/>
</svg>
