<!-- Generated by IcoMoon.io -->
<svg version="1.1" xmlns="http://www.w3.org/2000/svg" width="32" height="32" viewBox="0 0 32 32">
<title>email</title>
<path fill="#003665" d="M2.531 8.65c-1.395 0-2.531 1.136-2.531 2.531v15.184c0 1.395 1.136 2.531 2.531 2.531h26.994c1.395 0 2.528-1.136 2.528-2.531v-15.184c0-1.395-1.133-2.531-2.528-2.531zM2.531 10.337h26.994c0.051 0 0.098 0.004 0.147 0.012l-4.063 2.709c-0.72 0.516 0.146 1.892 0.834 1.469l3.925-2.616v14.453c0 0.466-0.378 0.844-0.844 0.844h-26.994c-0.466 0-0.844-0.378-0.844-0.844v-14.453l3.825 2.55c0.819 0.472 1.758-0.681 0.859-1.456l-3.988-2.656c0.047-0.008 0.096-0.012 0.147-0.012z"></path>
<path fill="#003665" d="M23.246 16.563q0 0.661-0.087 1.351-0.078 0.69-0.262 1.341t-0.486 1.234q-0.301 0.573-0.738 1.010t-1.020 0.69q-0.573 0.243-1.321 0.243-0.398 0-0.738-0.087-0.34-0.097-0.602-0.272t-0.447-0.447q-0.175-0.282-0.243-0.641-0.389 0.389-0.758 0.67-0.36 0.272-0.709 0.447t-0.69 0.253q-0.33 0.078-0.651 0.078-0.418 0-0.738-0.078-0.321-0.087-0.573-0.243-0.243-0.165-0.418-0.398t-0.291-0.525-0.165-0.641-0.049-0.758q0-0.418 0.068-0.952 0.068-0.544 0.223-1.117t0.428-1.117q0.272-0.554 0.67-0.981 0.408-0.437 0.962-0.7 0.554-0.272 1.292-0.272 0.311 0 0.593 0.078 0.291 0.068 0.554 0.223t0.505 0.389 0.495 0.554l0.165-0.855q0.039-0.136 0.175-0.204t0.505-0.068q0.175 0 0.291 0.019 0.126 0.019 0.194 0.058 0.068 0.029 0.087 0.078 0.029 0.049 0.010 0.117l-0.865 4.469q-0.155 0.845 0.078 1.253 0.233 0.398 0.884 0.398 0.398 0 0.719-0.194 0.321-0.204 0.564-0.544t0.408-0.787q0.165-0.457 0.272-0.952 0.107-0.505 0.155-1.030t0.049-1.010q0-0.845-0.233-1.603-0.223-0.768-0.777-1.341-0.554-0.583-1.487-0.923-0.923-0.35-2.322-0.35-1.146 0-2.040 0.253t-1.574 0.69q-0.68 0.428-1.166 0.991t-0.826 1.205q-0.33 0.632-0.534 1.302-0.204 0.661-0.311 1.282-0.107 0.612-0.146 1.156-0.029 0.544-0.029 0.923 0 1.078 0.243 1.972 0.253 0.894 0.865 1.545t1.642 1.010 2.594 0.36q0.709 0 1.282-0.087 0.573-0.078 0.991-0.175 0.427-0.087 0.69-0.175 0.262-0.078 0.36-0.078 0.058 0 0.097 0.029 0.049 0.039 0.068 0.107 0.029 0.078 0.039 0.185 0.010 0.117 0.010 0.282 0 0.136-0.010 0.223 0 0.087-0.019 0.155-0.019 0.078-0.058 0.136-0.029 0.058-0.087 0.107t-0.34 0.146q-0.272 0.097-0.748 0.194-0.466 0.097-1.098 0.165t-1.389 0.068q-1.817 0-3.080-0.427-1.253-0.427-2.050-1.224-0.787-0.797-1.137-1.914t-0.35-2.497q0-0.505 0.049-1.156 0.058-0.661 0.204-1.399 0.155-0.748 0.428-1.516 0.272-0.777 0.7-1.516 0.437-0.738 1.049-1.389 0.622-0.661 1.457-1.146 0.845-0.495 1.924-0.777 1.088-0.282 2.458-0.282 1.593 0 2.75 0.389 1.166 0.379 1.924 1.078t1.127 1.71q0.369 1.001 0.369 2.235zM17.611 17.195q-0.369-0.622-0.758-0.952t-0.884-0.33q-0.408 0-0.738 0.204-0.33 0.194-0.573 0.515-0.243 0.311-0.418 0.709-0.165 0.398-0.272 0.816t-0.155 0.816q-0.039 0.389-0.039 0.69 0 0.719 0.253 1.108 0.262 0.389 0.874 0.389 0.233 0 0.476-0.078 0.243-0.087 0.515-0.253 0.272-0.175 0.573-0.447 0.311-0.282 0.68-0.661z"></path>
</svg>
