<!-- Generated by IcoMoon.io -->
<svg version="1.1" xmlns="http://www.w3.org/2000/svg" width="20" height="20" viewBox="0 0 20 20">
<title>email-forward</title>
<path fill="#003665" d="M1.582 5.406c-0.872 0-1.582 0.71-1.582 1.582v9.49c0 0.872 0.71 1.582 1.582 1.582h4.529c0.84 0 0.798-1.055 0-1.055h-4.529c-0.291 0-0.527-0.236-0.527-0.527v-9.033l2.391 1.594c0.512 0.295 1.099-0.426 0.537-0.91l-2.492-1.66c0.030-0.005 0.060-0.008 0.092-0.008h16.871c0.032 0 0.061 0.003 0.092 0.008l-2.539 1.693c-0.45 0.323 0.091 1.182 0.521 0.918l2.453-1.635v4.195c0 0.658 1.053 0.886 1.053 0v-4.652c0-0.872-0.708-1.582-1.58-1.582z"></path>
<path fill="#003665" d="M10.674 6.969c-0.571 0-1.084 0.060-1.537 0.178-0.449 0.117-0.851 0.278-1.203 0.484-0.348 0.202-0.651 0.442-0.91 0.717-0.255 0.271-0.474 0.561-0.656 0.869-0.178 0.308-0.324 0.623-0.437 0.947-0.113 0.32-0.201 0.636-0.266 0.947-0.054 0.274-0.090 0.531-0.115 0.779 0.038 0.663 0.886 0.674 0.924 0.012 0.018-0.181 0.036-0.363 0.070-0.561 0.045-0.259 0.11-0.526 0.195-0.801 0.085-0.279 0.196-0.551 0.334-0.814 0.142-0.267 0.313-0.519 0.516-0.754s0.445-0.441 0.729-0.619c0.283-0.182 0.612-0.324 0.984-0.43s0.798-0.158 1.275-0.158c0.583 0 1.067 0.073 1.451 0.219 0.389 0.142 0.699 0.333 0.93 0.576 0.231 0.239 0.391 0.518 0.484 0.838 0.097 0.316 0.146 0.65 0.146 1.002 0 0.202-0.011 0.412-0.031 0.631s-0.051 0.434-0.096 0.645c-0.045 0.206-0.101 0.405-0.17 0.596-0.069 0.186-0.155 0.349-0.256 0.49s-0.218 0.257-0.352 0.342c-0.134 0.081-0.283 0.121-0.449 0.121-0.271 0-0.456-0.084-0.553-0.25-0.097-0.17-0.114-0.431-0.049-0.783l0.539-2.793c0.008-0.028 0.006-0.052-0.006-0.072-0.008-0.020-0.026-0.037-0.055-0.049-0.028-0.016-0.068-0.029-0.121-0.037-0.049-0.008-0.109-0.012-0.182-0.012-0.154 0-0.26 0.015-0.316 0.043s-0.093 0.070-0.109 0.127l-0.103 0.535c-0.105-0.134-0.207-0.251-0.309-0.348s-0.207-0.177-0.316-0.242c-0.109-0.065-0.224-0.11-0.346-0.139-0.117-0.032-0.242-0.049-0.371-0.049-0.308 0-0.576 0.057-0.807 0.17-0.231 0.109-0.432 0.255-0.602 0.438-0.166 0.178-0.305 0.383-0.418 0.613-0.113 0.227-0.203 0.458-0.268 0.697s-0.112 0.473-0.141 0.699c-0.028 0.223-0.043 0.42-0.043 0.594 0 0.17 0.011 0.329 0.031 0.475s0.055 0.279 0.104 0.4c0.049 0.121 0.109 0.231 0.182 0.328s0.161 0.179 0.262 0.248c0.105 0.065 0.224 0.116 0.357 0.152 0.134 0.032 0.289 0.049 0.463 0.049 0.134 0 0.269-0.016 0.406-0.049 0.142-0.032 0.286-0.085 0.432-0.158s0.294-0.166 0.443-0.279c0.154-0.117 0.311-0.256 0.473-0.418 0.028 0.15 0.079 0.283 0.152 0.4 0.077 0.113 0.17 0.206 0.279 0.279s0.235 0.129 0.377 0.17c0.142 0.036 0.295 0.055 0.461 0.055 0.312 0 0.587-0.051 0.826-0.152 0.243-0.105 0.455-0.248 0.637-0.43s0.335-0.394 0.461-0.633c0.126-0.243 0.228-0.5 0.305-0.771s0.132-0.55 0.164-0.838c0.036-0.287 0.055-0.568 0.055-0.844 0-0.514-0.077-0.98-0.23-1.397-0.154-0.421-0.389-0.777-0.705-1.068s-0.717-0.516-1.203-0.674c-0.482-0.162-1.053-0.244-1.717-0.244zM9.981 9.945c0.206 0 0.391 0.069 0.553 0.207s0.321 0.335 0.475 0.594l-0.293 1.58c-0.154 0.158-0.294 0.295-0.424 0.412-0.126 0.113-0.246 0.206-0.359 0.279-0.113 0.069-0.221 0.122-0.322 0.158-0.101 0.032-0.2 0.049-0.297 0.049-0.255 0-0.438-0.082-0.547-0.244-0.105-0.162-0.158-0.392-0.158-0.691 0-0.126 0.009-0.27 0.025-0.432 0.020-0.166 0.053-0.336 0.098-0.51s0.101-0.344 0.17-0.51c0.073-0.166 0.159-0.314 0.26-0.443 0.101-0.134 0.222-0.241 0.359-0.322 0.138-0.085 0.291-0.127 0.461-0.127z"></path>
<path fill="#003665" d="M15.907 11.838c-0.116 0-0.231 0.043-0.318 0.131-0.175 0.175-0.175 0.464 0 0.639l2.838 2.838h-9.438c-0.247 0-0.451 0.204-0.451 0.451s0.204 0.453 0.451 0.453h9.438l-2.838 2.838c-0.175 0.175-0.175 0.462 0 0.637 0.088 0.088 0.204 0.133 0.318 0.133s0.233-0.044 0.32-0.131l3.609-3.609c0.117-0.117 0.161-0.166 0.121-0.316 0.019-0.167-0.064-0.265-0.121-0.322h-0.002l-3.607-3.609c-0.087-0.087-0.204-0.131-0.32-0.131z"></path>
</svg>
