<?xml version="1.0" encoding="UTF-8"?>
<svg width="20" height="20" version="1.1" viewBox="0 0 20 20" xmlns="http://www.w3.org/2000/svg">
 <title>root</title>
 <g id="Background" transform="matrix(.099724 0 0 .099724 .011163 -.057471)">
  <path transform="translate(0,2)" d="m188.53 92.87c-6.684-3.7738-15.347-3.5277-22.938.9845l-65.429 37.411-65.347-37.739c-11.799-6.317-17.574-13.947-17.574-22.807 0-3.1995 1.2377-5.7427 2.8878-6.9736l.6601-.3281c1.8977-.9845 4.1254 0 6.0231.9845l69.555 39.953c2.5575 1.559 5.7752 1.559 8.3332 0l79.703-45.696c.33 0 .33-.3282.33-.3282.66-.3281.99-.6563 1.238-.9845.33-.3281.66-.6563.99-1.2305 0-.3282.33-.3282.33-.6564 0-.3281 0-.6563.33-.9845.33-.6563.33-.9845.66-1.5587v-1.5587-1.5587c0-.5745-.33-.9845-.66-1.559 0-.3282 0-.6563-.33-.9845 0-.3279-.33-.3279-.33-.6561-.33-.3281-.66-.9845-.99-1.2308-.33-.2461-.991-.6563-1.238-.9845-.33 0-.33-.3282-.66-.3282l-61.881-32.98c-19.472-11.076-34.489-5.4147-46.535 1.5587l-62.871 36.18c-.3301 0-.3301 0-.6601.3281-.33 0-.33.3282-.6601.3282l-1.5676.9845c-.99009.6563-1.8977 1.5587-2.5578 2.2151-4.4554 4.4301-7.0132 10.747-7.0132 18.049 0 10.747 4.4555 26.007 26.155 37.41l69.224 39.954c2.5578 1.559 5.7754 1.559 8.3334 0l69.554-39.626c1.898-.984 4.456-1.887 6.353-.984 1.898.984 3.218 4.102 3.218 7.301 0 6.318-2.227 13.947-17.821 23.136l-65.182 37.164-86.469-49.798c-3.7954-2.216-9.241-.985-11.469 3.199-2.2277 4.102-.9901 9.189 3.2178 11.404l90.594 52.013c1.2374.657 2.8876.985 4.1253.985 1.238 0 2.888-.328 4.125-.985l69.555-39.953c11.138-6.645 26.155-17.475 26.155-37.411 0-9.27-4.125-17.474-11.468-21.658zm-104.29-65.96c12.129-6.9734 19.802-7.3016 29.951-1.2306l48.762 26.007-62.789 35.524-60.643-34.867z" fill="#00afef"/>
 </g>
</svg>
