<!-- Generated by IcoMoon.io -->
<svg version="1.1" xmlns="http://www.w3.org/2000/svg" width="32" height="32" viewBox="0 0 32 32">
<title>arrow-repeat</title>
<path fill="#003665" d="M27.766 5.034l-4.8-4.8c-0.312-0.312-0.819-0.312-1.131 0s-0.312 0.819 0 1.131l3.434 3.434h-21.269c-1.323 0-2.4 1.077-2.4 2.4v14.4c0 0.442 0.358 0.8 0.8 0.8s0.8-0.358 0.8-0.8v-14.4c0-0.441 0.359-0.8 0.8-0.8h21.269l-3.434 3.434c-0.312 0.312-0.312 0.819 0 1.131 0.156 0.156 0.361 0.234 0.566 0.234s0.409-0.078 0.566-0.234l4.8-4.8c0.312-0.312 0.312-0.819 0-1.131z"></path>
<path fill="#003665" d="M28 9.6c-0.442 0-0.8 0.358-0.8 0.8v14.4c0 0.441-0.359 0.8-0.8 0.8h-21.269l3.434-3.434c0.312-0.312 0.312-0.819 0-1.131s-0.819-0.312-1.131 0l-4.8 4.8c-0.312 0.312-0.312 0.819 0 1.131l4.8 4.8c0.156 0.156 0.361 0.234 0.566 0.234s0.409-0.078 0.566-0.234c0.312-0.312 0.312-0.819 0-1.131l-3.434-3.434h21.269c1.323 0 2.4-1.077 2.4-2.4v-14.4c0-0.442-0.358-0.8-0.8-0.8z"></path>
</svg>
