<?xml version="1.0" encoding="UTF-8"?>
<svg width="220" height="64" version="1.0" viewBox="0 0 165 48" xmlns="http://www.w3.org/2000/svg">
 <g transform="matrix(.012468 0 0 -.012468 -20.126 83.594)" fill="#006f8b">
  <path d="m3281 6558c-5-13-311-808-681-1768s-676-1755-681-1768l-9-22 496 2 496 3 121 308 122 307 643-2 644-3 115-307 115-308h494c272 0 494 3 494 7s-302 809-672 1790l-672 1783h-1016zm679-1543c154-296 280-542 280-547 0-4-64-9-143-10l-143-3 42-240c24-132 43-247 44-256 0-13-19-20-87-33-47-9-87-15-89-13-1 1-22 116-47 255-24 139-47 255-49 258-3 2-62-16-130-41-69-25-130-45-135-45s26 258 68 573c96 708 89 661 100 650 4-4 135-251 289-548z"/>
  <path d="m7320 5223c-438-16-829-61-1112-130l-108-26v-2077h1290v864c0 529 4 867 9 871 6 3 59 10 119 17 120 12 256 2 399-28 43-9 86-17 96-18 14-1 40 52 127 259l108 260-66 6c-65 6-710 8-862 2z"/>
  <path d="m9740 5224c-471-43-826-187-1070-434-190-192-280-416-280-698 0-531 353-921 972-1072 197-48 344-63 618-63 248 1 426 15 587 49 91 19 244 67 290 92l33 17-126 220c-70 121-129 223-133 227-3 4-44-6-91-22-153-52-331-62-469-25-177 47-296 172-353 370-30 106-32 332-4 440 54 209 170 331 361 380 125 32 370 14 497-36 27-10 50-19 52-19s59 93 127 206c115 195 121 208 104 220-57 42-293 105-480 129-124 15-536 28-635 19z"/>
  <path d="m12575 5220c-491-44-875-189-1123-424-93-88-153-169-208-278-67-133-85-209-91-376-9-249 33-408 160-597 54-80 184-208 279-273 338-231 867-346 1436-313 463 27 797 122 1072 306 172 114 292 251 374 426 70 150 81 206 80 409 0 161-3 182-28 265-138 454-576 747-1256 840-137 19-552 28-695 15zm468-508c110-54 178-154 214-313 25-111 25-474 0-584-37-157-108-260-211-306-121-53-294-48-407 13-99 52-153 133-191 285-20 77-22 115-22 303s2 226 22 302c36 147 91 233 180 285 72 42 125 53 244 50 96-3 113-7 171-35z"/>
 </g>
</svg>
