<!-- Generated by IcoMoon.io -->
<svg version="1.1" xmlns="http://www.w3.org/2000/svg" width="20" height="20" viewBox="0 0 20 20">
<title>filetype-rtf</title>
<path fill="#006F8B" d="M15.836 1.373h-11.672c-0.358 0-0.648-0.291-0.648-0.648s0.291-0.648 0.648-0.648h11.672c0.358 0 0.648 0.291 0.648 0.648s-0.291 0.648-0.648 0.648z"></path>
<path fill="#006F8B" d="M15.836 4.038h-11.672c-0.358 0-0.648-0.291-0.648-0.648s0.291-0.648 0.648-0.648h11.672c0.358 0 0.648 0.291 0.648 0.648s-0.291 0.648-0.648 0.648z"></path>
<path fill="#006F8B" d="M10.648 6.703h-6.484c-0.358 0-0.648-0.291-0.648-0.648s0.291-0.648 0.648-0.648h6.484c0.358 0 0.648 0.291 0.648 0.648s-0.291 0.648-0.648 0.648z"></path>
<path fill="#006F8B" d="M15.836 9.369h-11.672c-0.358 0-0.648-0.291-0.648-0.648s0.291-0.648 0.648-0.648h11.672c0.358 0 0.648 0.291 0.648 0.648s-0.291 0.648-0.648 0.648z"></path>
<path fill="#006F8B" d="M13.242 12.034h-9.078c-0.358 0-0.648-0.291-0.648-0.648s0.291-0.648 0.648-0.648h9.078c0.358 0 0.648 0.291 0.648 0.648s-0.291 0.648-0.648 0.648z"></path>
<path fill="#006F8B" d="M4.406 17.354h-0.406v1.84q0 0.363-0.16 0.535t-0.418 0.172q-0.277 0-0.43-0.18t-0.152-0.527v-4.406q0-0.375 0.168-0.543t0.543-0.168h1.887q0.391 0 0.668 0.035 0.277 0.031 0.5 0.133 0.27 0.113 0.477 0.324t0.313 0.492q0.109 0.277 0.109 0.59 0 0.641-0.363 1.023-0.359 0.383-1.094 0.543 0.309 0.164 0.59 0.484t0.5 0.684q0.223 0.359 0.344 0.652 0.125 0.289 0.125 0.398 0 0.113-0.074 0.227-0.070 0.109-0.195 0.172-0.125 0.066-0.289 0.066-0.195 0-0.328-0.094-0.133-0.090-0.23-0.23-0.094-0.141-0.258-0.414l-0.465-0.773q-0.25-0.426-0.449-0.648-0.195-0.223-0.398-0.305t-0.512-0.082zM5.070 14.948h-1.070v1.574h1.039q0.418 0 0.703-0.070 0.285-0.074 0.434-0.246 0.152-0.176 0.152-0.48 0-0.238-0.121-0.418-0.121-0.184-0.336-0.273-0.203-0.086-0.801-0.086z"></path>
<path fill="#006F8B" d="M11.914 15.034h-1.266v4.16q0 0.359-0.16 0.535-0.16 0.172-0.414 0.172-0.258 0-0.422-0.176-0.16-0.176-0.16-0.531v-4.16h-1.266q-0.297 0-0.441-0.129-0.145-0.133-0.145-0.348 0-0.223 0.148-0.352 0.152-0.129 0.437-0.129h3.688q0.301 0 0.445 0.133 0.148 0.133 0.148 0.348t-0.148 0.348q-0.148 0.129-0.445 0.129z"></path>
<path fill="#006F8B" d="M16.613 14.971h-2.285v1.465h1.91q0.266 0 0.395 0.121 0.133 0.117 0.133 0.316t-0.133 0.316-0.395 0.117h-1.91v1.887q0 0.359-0.164 0.535-0.16 0.172-0.414 0.172-0.258 0-0.422-0.176-0.16-0.176-0.16-0.531v-4.406q0-0.25 0.074-0.406 0.074-0.16 0.23-0.23 0.16-0.074 0.406-0.074h2.734q0.277 0 0.41 0.125 0.137 0.121 0.137 0.32 0 0.203-0.137 0.328-0.133 0.121-0.41 0.121z"></path>
</svg>
