<?xml version="1.0" encoding="UTF-8"?>
<svg width="20" height="20" version="1.1" viewBox="0 0 20 20" xmlns="http://www.w3.org/2000/svg">
 <title>object-general</title>
 <path d="m1.3301-.017578c-.70527 0-1.2793.57402-1.2793 1.2793v13.645c0 .70527.57402 1.2793 1.2793 1.2793h.025391c.64784 0 .6648-.85156 0-.85156h-.025391c-.23538 0-.42578-.19236-.42578-.42773v-13.645c0-.23538.19041-.42578.42578-.42578h7.248v2.9844c0 .70527.57402 1.2793 1.2793 1.2793h2.9863v2.2739c0 .5645.85156.60575.85156 0v-3.1255c0-.11342-.04373-.22257-.12305-.30273l-3.8379-3.8379c-.080164-.080164-.18931-.125-.30273-.125zm8.1016 1.0293 3.2344 3.2363h-2.8086c-.23538 0-.42578-.19236-.42578-.42773z" fill="#006F8B" stroke-width=".85281"/>
 <path d="m18.632 8.6101h-6.5467c-.07507 0-.20775-.082051-.24092-.14926l-.48271-.96542c-.17981-.3605-.61975-.63197-1.0222-.63197h-6.1102c-.4024 0-.84234.27147-1.0222.63197l-.48271.96542c-.13792.27496-.24092.71402-.24092 1.0222v9.1653c0 .72188.58745 1.3093 1.3093 1.3093h14.839c.72188 0 1.3093-.58746 1.3093-1.3093v-8.7289c0-.72188-.58746-1.3093-1.3093-1.3093zm.43644 10.038c0 .24092-.19553.43644-.43644.43644h-14.839c-.24092 0-.43644-.19553-.43644-.43644v-9.1653c0-.17109.07245-.47834.14926-.63197l.48271-.96542c.03317-.067213.16672-.14926.24092-.14926h6.1102c.07507 0 .20775.082052.24092.14926l.48271.96542c.17981.3605.61975.63197 1.0222.63197h6.5467c.24092 0 .43644.19553.43644.43644z" fill="#006F8B" stroke-width=".87289"/>
</svg>
