<?xml version="1.0" encoding="UTF-8"?>
<svg xmlns="http://www.w3.org/2000/svg" xmlns:xlink="http://www.w3.org/1999/xlink" width="20pt" height="20pt" viewBox="0 0 20 20" version="1.1">
<g id="surface1">
<path style="fill-rule:nonzero;fill:rgb(0,111,139);fill-opacity:1;stroke-width:10;stroke-linecap:butt;stroke-linejoin:miter;stroke:rgb(0,111,139);stroke-opacity:1;stroke-miterlimit:4;" d="M 496.9 512 L 15.1 512 L 15.7 501.8 C 20.1 429.7 78.3 406.9 125.1 388.5 C 154.3 377 179.6 367 187.4 348.8 C 188.5 334.6 188.5 323.8 188.4 311.4 C 188.4 309.1 188.4 307 188.4 304.8 C 177.3 294.3 165.3 269.5 161.3 248.3 C 152.9 244.6 142.4 234.6 139.2 207.6 C 137.6 194.2 141.8 184.2 147.3 178.1 C 132.3 116.6 136.3 70 159.6 39.5 C 178.9 14 210.8 0.8 254.7 0 L 254.9 0 C 283.9 0 305.4 7.7 316.2 22.1 C 336.7 26 352.3 36.1 362.5 52.6 C 373.5 70.2 377.8 94.6 375.4 124.7 C 373.6 147.3 368.3 167.6 365.1 178.4 C 370.4 184.5 374.6 194.5 373 207.6 C 369.8 234.4 359.3 244.6 350.9 248.3 C 347 269.8 335.4 294.3 324.4 304.8 C 324.4 307.1 324.4 309.3 324.4 311.6 C 324.2 324 324.2 334.8 325.4 349 C 333 367.2 358.3 377.2 387.4 388.7 C 434 407.1 491.9 430 496.3 502 Z M 36.1 492.6 L 476.1 492.6 C 468 440.8 423.5 423.2 380.4 406.3 C 347.8 393.4 317 381.3 307 354.2 L 306.5 353.1 L 306.3 351.8 C 304.8 336.1 305 324 305.2 311.1 C 305.2 307.4 305.2 303.7 305.2 299.8 L 305.2 294 L 310.4 291.3 C 315.6 288.2 330.2 262.7 332.7 239.5 L 333.5 231.6 L 341.4 231 C 344.6 230.7 351.4 225 353.8 205.2 C 355.3 193.6 349.1 189.5 349 189.5 L 342.4 185.5 L 344.8 178.2 C 346.9 171.9 354 149.2 356.1 123 C 358.2 97.3 354.6 76.5 346.1 62.7 C 338.2 50.1 326.1 42.7 309.1 40.4 L 304.4 39.6 L 302 35.4 C 296.2 25.1 278.4 18.9 254.9 18.9 C 217.3 19.5 190.4 30.4 174.7 50.8 C 154.9 76.9 152.3 121.2 167.3 178.6 L 169.1 185.5 L 163 189.2 C 163 189.2 156.9 193.4 158.2 204.9 C 160.6 224.7 167.4 230.4 170.6 230.7 L 178.5 231.3 L 179.3 239.2 C 181.7 262.4 196.9 287.9 202.4 291 L 207.6 293.7 L 207.6 299.5 C 207.6 303.4 207.6 307.1 207.6 310.6 C 207.8 323.5 207.8 335.6 206.5 351.4 L 206.3 352.7 L 205.8 353.8 C 195.8 380.9 164.8 393 132.1 405.9 C 88.8 423.3 44.1 440.8 36.1 492.6 Z M 36.1 492.6 " transform="matrix(0.0390625,0,0,0.0390625,0,0)"/>
</g>
</svg>
