<?xml version="1.0" encoding="UTF-8" standalone="no"?>
<svg
   xmlns:dc="http://purl.org/dc/elements/1.1/"
   xmlns:cc="http://creativecommons.org/ns#"
   xmlns:rdf="http://www.w3.org/1999/02/22-rdf-syntax-ns#"
   xmlns:svg="http://www.w3.org/2000/svg"
   xmlns="http://www.w3.org/2000/svg"
   xmlns:sodipodi="http://sodipodi.sourceforge.net/DTD/sodipodi-0.dtd"
   xmlns:inkscape="http://www.inkscape.org/namespaces/inkscape"
   width="5.0271mm"
   height="5.2917mm"
   version="1.1"
   viewBox="0 0 5.0271 5.2917"
   id="svg22"
   sodipodi:docname="accounting.svg"
   inkscape:version="0.92.4 (5da689c313, 2019-01-14)">
  <metadata
     id="metadata28">
    <rdf:RDF>
      <cc:Work
         rdf:about="">
        <dc:format>image/svg+xml</dc:format>
        <dc:type
           rdf:resource="http://purl.org/dc/dcmitype/StillImage" />
      </cc:Work>
    </rdf:RDF>
  </metadata>
  <defs
     id="defs26" />
  <sodipodi:namedview
     pagecolor="#ffffff"
     bordercolor="#666666"
     borderopacity="1"
     objecttolerance="10"
     gridtolerance="10"
     guidetolerance="10"
     inkscape:pageopacity="0"
     inkscape:pageshadow="2"
     inkscape:window-width="1920"
     inkscape:window-height="1001"
     id="namedview24"
     showgrid="false"
     inkscape:zoom="23.599852"
     inkscape:cx="21.062532"
     inkscape:cy="7.2096655"
     inkscape:window-x="-9"
     inkscape:window-y="-9"
     inkscape:window-maximized="1"
     inkscape:current-layer="svg22" />
  <path
     style="fill:#00AEEF;stroke-width:0.99999917;stroke:none"
     d="m 9.6972656,0.11328125 c -2.9372972,0 -5.3261718,2.38887455 -5.3261718,5.32617185 0,1.8248108 0.9329577,3.4203424 2.3378906,4.375 V 8.5878906 C 5.8682939,7.7989 5.3398438,6.6832737 5.3398438,5.4394531 c 0,-2.4026979 1.954724,-4.3574219 4.3574218,-4.3574219 2.3344844,0 4.2312324,1.8496139 4.3378904,4.1582032 h 0.978516 C 14.907573,2.3958081 12.567211,0.11328125 9.6972656,0.11328125 Z"
     transform="scale(0.26458333)"
     id="path883" />
  <path
     style="fill:#00AEEF;stroke-width:0.99999917;stroke:none"
     d="M 6.6894531,11.984375 C 5.8199107,12.138059 5.0205953,12.363716 4.3222656,12.685547 3.2018664,13.200756 2.2994244,13.923685 1.640625,14.833984 0.50892598,16.397983 0.49609375,17.96535 0.49609375,18.03125 c 0,0.800899 0.63147755,1.451172 1.40429685,1.451172 H 6.8808594 C 6.7694703,19.30928 6.6894531,19.115335 6.6894531,18.894531 V 18.513672 H 1.9003906 c -0.2579198,0 -0.46875,-0.215118 -0.46875,-0.480469 9.345e-4,-0.01357 0.021096,-1.353711 0.9882813,-2.662109 0.9026506,-1.221329 2.3625072,-2.027857 4.2695312,-2.40625 z"
     transform="scale(0.26458333)"
     id="path924" />
  <g
     inkscape:groupmode="layer"
     id="layer1"
     inkscape:label="Layer 1" />
  <g
     transform="matrix(1.2180296,0,0,1.2180296,-167.41205,-208.65272)"
     id="g12-2-2"
     style="stroke:none;fill:#00AEEF;fill-opacity:1">
    <g
       transform="matrix(0.93749,0,0,0.96535,8.9541,6.1188)"
       id="g10-3-7"
       style="fill:#00AEEF;stroke:none;fill-opacity:1">
      <g
         transform="matrix(0.16225,0,0,0.16225,138.51,172.35)"
         id="g8-3-6"
         style="fill:#00AEEF;stroke:none;fill-opacity:1">
        <path
           d="M 16.5,20 H 2.5 C 1.673,20 1,19.327 1,18.5 V 1.5 C 1,0.673 1.673,0 2.5,0 h 14 C 17.327,0 18,0.673 18,1.5 v 17 C 18,19.327 17.327,20 16.5,20 Z M 2.5,1 C 2.224,1 2,1.224 2,1.5 v 17 C 2,18.776 2.224,19 2.5,19 h 14 C 16.776,19 17,18.776 17,18.5 V 1.5 C 17,1.224 16.776,1 16.5,1 Z"
           id="path2-8-0"
           inkscape:connector-curvature="0"
           style="stroke:none;fill:#00AEEF;fill-opacity:1" />
        <path
           d="M 15.5,7 H 3.5 C 3.224,7 3,6.776 3,6.5 v -4 C 3,2.224 3.224,2 3.5,2 h 12 C 15.776,2 16,2.224 16,2.5 v 4 C 16,6.776 15.776,7 15.5,7 Z M 4,6 H 15 V 3 H 4 Z"
           id="path4-1-8"
           inkscape:connector-curvature="0"
           style="stroke:none;fill:#00AEEF;fill-opacity:1" />
        <path
           d="M 15.5,8 H 3.5 C 3.224,8 3,8.224 3,8.5 v 9 C 3,17.776 3.224,18 3.5,18 h 12 c 0.276,0 0.5,-0.224 0.5,-0.5 v -9 C 16,8.224 15.776,8 15.5,8 Z M 15,11 H 13 V 9 h 2 z m -8,1 h 2 v 2 H 7 Z M 6,14 H 4 V 12 H 6 Z M 7,11 V 9 h 2 v 2 z m 2,4 v 2 H 7 v -2 z m 1,0 h 2 v 2 h -2 z m 2,-1 h -2 v -2 h 2 z M 10,11 V 9 h 2 v 2 z M 6,9 v 2 H 4 V 9 Z m -2,6 h 2 v 2 H 4 Z m 9,2 v -5 h 2 v 5 z"
           id="path6-3-4"
           inkscape:connector-curvature="0"
           style="stroke:none;fill:#00AEEF;fill-opacity:1" />
      </g>
    </g>
  </g>
</svg>
