<!-- Generated by IcoMoon.io -->
<svg version="1.1" xmlns="http://www.w3.org/2000/svg" width="20" height="20" viewBox="0 0 20 20">
<title>arrow-repeat-multiple</title>
<path fill="#00AEEF" d="M14.425 2.825l-2.638-2.638c-0.171-0.171-0.45-0.171-0.622 0s-0.171 0.45 0 0.622l1.887 1.887h-11.689c-0.727 0-1.319 0.592-1.319 1.319v7.914c0 0.243 0.197 0.44 0.44 0.44s0.44-0.197 0.44-0.44v-7.914c0-0.243 0.197-0.44 0.44-0.44h11.689l-1.887 1.887c-0.171 0.171-0.171 0.45 0 0.622 0.086 0.086 0.199 0.128 0.311 0.128s0.225-0.043 0.311-0.128l2.638-2.638c0.171-0.171 0.171-0.45 0-0.622z"></path>
<path fill="#00AEEF" d="M14.553 5.335c-0.243 0-0.44 0.197-0.44 0.44v7.914c0 0.243-0.197 0.44-0.44 0.44h-11.689l1.887-1.887c0.171-0.171 0.171-0.45 0-0.622s-0.45-0.171-0.622 0l-2.638 2.638c-0.171 0.171-0.171 0.45 0 0.622l2.638 2.638c0.086 0.086 0.199 0.128 0.311 0.128s0.225-0.043 0.311-0.128c0.171-0.171 0.171-0.45 0-0.622l-1.887-1.887h11.689c0.727 0 1.319-0.592 1.319-1.319v-7.914c0-0.243-0.197-0.44-0.44-0.44z"></path>
<path fill="#00AEEF" d="M17.071 8.087c-0.243 0-0.44 0.197-0.44 0.44v7.914c0 0.243-0.197 0.44-0.44 0.44l-10.987-0.057c-0.778 0-0.825 0.925 0.023 0.925l10.965 0.013c0.727 0 1.319-0.592 1.319-1.319v-7.914c0-0.243-0.197-0.44-0.44-0.44z"></path>
<path fill="#00AEEF" d="M19.509 10.291c-0.243 0-0.44 0.197-0.44 0.44v7.914c0 0.243-0.197 0.44-0.44 0.44l-10.987-0.057c-0.778 0-0.825 0.925 0.023 0.925l10.965 0.013c0.727 0 1.319-0.592 1.319-1.319v-7.914c0-0.243-0.197-0.44-0.44-0.44z"></path>
</svg>
