<!-- Generated by IcoMoon.io -->
<svg version="1.1" xmlns="http://www.w3.org/2000/svg" width="20" height="20" viewBox="0 0 20 20">
<title>document-scan</title>
<path fill="#00AEEF" d="M13.75 18.125h-1.25v-0.625h1.25v0.625zM14.375 18.125h0.627c0.689 0 1.248-0.561 1.248-1.244v-0.631h-0.625v0.629c0 0.343-0.28 0.621-0.625 0.621h-0.625v0.625zM11.875 18.125h-1.25v-0.625h1.25v0.625zM10 18.125h-1.25v-0.625h1.25v0.625zM8.125 18.125h-1.25v-0.625h1.25v0.625zM6.25 18.125h-0.627c-0.692 0-1.248-0.562-1.248-1.255v-0.62h0.625v0.628c0 0.344 0.284 0.622 0.625 0.622h0.625v0.625zM16.25 15.625v-1.25h-0.625v1.25h0.625zM4.375 15.625v-1.25h0.625v1.25h-0.625zM16.25 13.75v-1.25h-0.625v1.25h0.625zM4.375 13.75v-1.25h0.625v1.25h-0.625zM16.875 11.25v-1.25h0.625v3.125h-0.625v-1.25h-13.125v1.25h-0.625v-3.125h0.625v1.25h13.125zM16.25 10.625h-0.625v-4.375h-2.501c-0.69 0-1.249-0.554-1.249-1.254v-3.121h-6.253c-0.344 0-0.622 0.285-0.622 0.622v8.128h-0.625v-8.12c0-0.693 0.56-1.255 1.252-1.255h6.873l3.75 4.375v5zM12.5 2.188v2.807c0 0.348 0.282 0.63 0.623 0.63h2.315l-2.937-3.438z"></path>
</svg>
