<!-- Generated by IcoMoon.io -->
<svg version="1.1" xmlns="http://www.w3.org/2000/svg" width="20" height="20" viewBox="0 0 20 20">
<title>drawers-close</title>
<path fill="#00AEEF" d="M3.5 3c-0.827 0-1.5 0.673-1.5 1.5v4c0 0.827 0.673 1.5 1.5 1.5h4.635c0.781 0 0.716-1 0-1h-4.635c-0.276 0-0.5-0.224-0.5-0.5v-4c0-0.276 0.224-0.5 0.5-0.5h12c0.276 0 0.5 0.224 0.5 0.5v4c0.015 0.686 1.006 0.656 1 0v-4c0-0.827-0.673-1.5-1.5-1.5z"></path>
<path fill="#00AEEF" d="M3.5 11c-0.827 0-1.5 0.673-1.5 1.5v4c0 0.827 0.673 1.5 1.5 1.5h4.635c0.768 0 0.736-1 0-1h-4.635c-0.276 0-0.5-0.224-0.5-0.5v-4c0-0.276 0.224-0.5 0.5-0.5h4.635c0.745 0 0.76-0.992 0-1z"></path>
<path fill="#00AEEF" d="M1.5 1c-0.827 0-1.5 0.673-1.5 1.5v16c0 0.827 0.673 1.5 1.5 1.5h6.635c0.764 0 0.726-1 0-1h-6.635c-0.276 0-0.5-0.224-0.5-0.5v-16c0-0.276 0.224-0.5 0.5-0.5h16c0.276 0 0.5 0.224 0.5 0.5v6.039c0.017 0.597 1.025 0.691 1 0v-6.039c0-0.827-0.673-1.5-1.5-1.5z"></path>
<path fill="#00AEEF" d="M15.444 14.894l4.395-4.395c0.152-0.152 0.152-0.399 0-0.55s-0.399-0.152-0.55 0l-4.395 4.395-4.395-4.395c-0.152-0.152-0.399-0.152-0.55 0s-0.152 0.399 0 0.55l4.395 4.395-4.395 4.395c-0.152 0.152-0.152 0.399 0 0.55 0.076 0.076 0.176 0.114 0.276 0.114s0.199-0.038 0.276-0.114l4.395-4.395 4.395 4.395c0.076 0.076 0.176 0.114 0.276 0.114s0.199-0.038 0.276-0.114c0.152-0.152 0.152-0.399 0-0.55l-4.395-4.395z"></path>
</svg>
