<!-- Generated by IcoMoon.io -->
<svg version="1.1" xmlns="http://www.w3.org/2000/svg" width="20" height="20" viewBox="0 0 20 20">
<title>filetype-mp4</title>
<path fill="#00AEEF" d="M8.081 9.717c-0.049 0-0.098-0.011-0.143-0.034-0.108-0.054-0.177-0.165-0.177-0.286v-5.758c0-0.121 0.068-0.232 0.177-0.286s0.238-0.042 0.335 0.030l3.839 2.879c0.081 0.060 0.128 0.155 0.128 0.256s-0.047 0.196-0.128 0.256l-3.839 2.879c-0.056 0.042-0.124 0.064-0.192 0.064zM8.4 4.278v4.479l2.986-2.239z"></path>
<path fill="#00AEEF" d="M16.363 1.040h-12.726c-0.185 0-0.335 0.15-0.335 0.335v10.047c0 0.185 0.15 0.335 0.335 0.335h12.726c0.185 0 0.335-0.15 0.335-0.335v-10.047c0-0.185-0.15-0.335-0.335-0.335zM5.311 7.068h-1.34v-1.34h1.34zM5.311 5.058h-1.34v-1.34h1.34zM3.972 7.738h1.34v1.34h-1.34zM5.981 1.709h8.038v9.377h-8.038zM14.689 5.728h1.34v1.34h-1.34zM14.689 5.058v-1.34h1.34v1.34zM14.689 7.738h1.34v1.34h-1.34zM16.028 3.049h-1.34v-1.34h1.34zM5.311 1.709v1.34h-1.34v-1.34zM3.972 9.747h1.34v1.34h-1.34zM14.689 11.087v-1.34h1.34v1.34z"></path>
<path fill="#00AEEF" d="M3.959 18.87l-0.918-3.648v3.953q0 0.328-0.148 0.492-0.145 0.164-0.387 0.164-0.234 0-0.383-0.16-0.148-0.164-0.148-0.496v-4.531q0-0.375 0.195-0.504 0.195-0.133 0.527-0.133h0.359q0.324 0 0.469 0.059 0.148 0.059 0.219 0.211t0.16 0.496l0.832 3.137 0.832-3.137q0.090-0.344 0.16-0.496t0.215-0.211q0.148-0.059 0.473-0.059h0.359q0.332 0 0.527 0.133 0.195 0.129 0.195 0.504v4.531q0 0.328-0.148 0.492-0.145 0.164-0.391 0.164-0.23 0-0.379-0.164t-0.148-0.492v-3.953l-0.918 3.648q-0.090 0.355-0.148 0.523-0.055 0.164-0.207 0.301t-0.422 0.137q-0.203 0-0.344-0.090-0.141-0.086-0.219-0.223t-0.125-0.301q-0.043-0.168-0.090-0.348z"></path>
<path fill="#00AEEF" d="M10.92 17.502h-1.063v1.621q0 0.348-0.164 0.527t-0.414 0.18q-0.262 0-0.422-0.176-0.16-0.18-0.16-0.523v-4.414q0-0.383 0.176-0.547t0.559-0.164h1.488q0.66 0 1.016 0.102 0.352 0.098 0.605 0.324 0.258 0.227 0.391 0.555t0.133 0.738q0 0.875-0.539 1.328-0.539 0.449-1.605 0.449zM10.639 14.877h-0.781v1.75h0.781q0.41 0 0.684-0.086 0.277-0.086 0.422-0.281t0.145-0.512q0-0.379-0.223-0.617-0.25-0.254-1.027-0.254z"></path>
<path fill="#00AEEF" d="M16.217 19.237v-0.727h-1.961q-0.371 0-0.559-0.168-0.184-0.168-0.184-0.457 0-0.074 0.027-0.148 0.027-0.078 0.082-0.16 0.055-0.086 0.113-0.164t0.145-0.191l2.070-2.77q0.203-0.273 0.332-0.395 0.133-0.125 0.316-0.125 0.594 0 0.594 0.68v3.023h0.168q0.301 0 0.48 0.082 0.184 0.082 0.184 0.359 0 0.227-0.148 0.332-0.148 0.102-0.445 0.102h-0.238v0.727q0 0.301-0.133 0.449-0.133 0.145-0.355 0.145-0.219 0-0.355-0.148-0.133-0.152-0.133-0.445zM14.537 17.635h1.68v-2.27z"></path>
</svg>
