<!-- Generated by IcoMoon.io -->
<svg version="1.1" xmlns="http://www.w3.org/2000/svg" width="20" height="20" viewBox="0 0 20 20">
<title>filetype-docx</title>
<path fill="#00AEEF" d="M14.329 3.599h-1.562l-1.090 3.612-1.136-3.612h-1.19l-1.221 3.612-1.001-3.612h-1.565l1.718 5.589h1.524l1.102-3.239 1.051 3.239h1.528l1.842-5.589zM16.297 12.028h-12.593v-12.028h12.593zM4.914 10.818h10.172v-9.607h-10.172z"></path>
<path fill="#00AEEF" d="M0.959 14.881h1.314q0.513 0 0.88 0.095t0.666 0.357q0.778 0.666 0.778 2.024 0 0.448-0.078 0.819t-0.241 0.669q-0.163 0.295-0.418 0.53-0.2 0.18-0.438 0.289t-0.513 0.153q-0.272 0.044-0.615 0.044h-1.314q-0.275 0-0.414-0.082-0.139-0.085-0.183-0.234-0.041-0.153-0.041-0.394v-3.651q0-0.326 0.146-0.472t0.472-0.146zM1.349 15.679v3.379h0.764q0.251 0 0.394-0.014t0.295-0.068 0.265-0.153q0.506-0.428 0.506-1.474 0-0.737-0.224-1.104-0.221-0.367-0.547-0.465-0.326-0.102-0.788-0.102z"></path>
<path fill="#00AEEF" d="M7.673 14.796q0.774 0 1.328 0.316 0.557 0.312 0.842 0.893 0.285 0.577 0.285 1.359 0 0.577-0.156 1.049t-0.469 0.819-0.768 0.53-1.043 0.183q-0.584 0-1.046-0.187-0.462-0.19-0.771-0.533t-0.469-0.825q-0.156-0.482-0.156-1.043 0-0.574 0.163-1.053 0.166-0.479 0.479-0.815t0.761-0.513q0.448-0.18 1.019-0.18zM9.106 17.357q0-0.547-0.177-0.948t-0.506-0.605q-0.326-0.207-0.751-0.207-0.302 0-0.56 0.115-0.255 0.112-0.442 0.329-0.183 0.217-0.292 0.557-0.105 0.336-0.105 0.757 0 0.425 0.105 0.768 0.109 0.343 0.302 0.571 0.197 0.224 0.448 0.336 0.255 0.112 0.557 0.112 0.387 0 0.71-0.194 0.326-0.194 0.516-0.598 0.194-0.404 0.194-0.995z"></path>
<path fill="#00AEEF" d="M15.241 18.288q0 0.238-0.119 0.516-0.115 0.275-0.367 0.543-0.251 0.265-0.642 0.431t-0.91 0.166q-0.394 0-0.717-0.075t-0.588-0.231q-0.262-0.16-0.482-0.418-0.197-0.234-0.336-0.523-0.139-0.292-0.211-0.622-0.068-0.329-0.068-0.7 0-0.601 0.173-1.077 0.177-0.475 0.503-0.812 0.326-0.34 0.764-0.516t0.934-0.177q0.605 0 1.077 0.241t0.723 0.598q0.251 0.353 0.251 0.669 0 0.173-0.122 0.306t-0.295 0.132q-0.194 0-0.292-0.092-0.095-0.092-0.214-0.316-0.197-0.37-0.465-0.554-0.265-0.183-0.655-0.183-0.622 0-0.992 0.472-0.367 0.472-0.367 1.342 0 0.581 0.163 0.968 0.163 0.384 0.462 0.574t0.7 0.19q0.435 0 0.734-0.214 0.302-0.217 0.455-0.635 0.065-0.197 0.16-0.319 0.095-0.126 0.306-0.126 0.18 0 0.309 0.126t0.129 0.312z"></path>
<path fill="#00AEEF" d="M15.964 18.893l1.114-1.627-0.937-1.447q-0.132-0.211-0.2-0.36-0.065-0.153-0.065-0.292 0-0.143 0.126-0.255 0.129-0.115 0.312-0.115 0.211 0 0.326 0.126 0.119 0.122 0.326 0.458l0.747 1.209 0.798-1.209q0.098-0.153 0.166-0.262 0.071-0.109 0.136-0.18t0.143-0.105q0.082-0.037 0.187-0.037 0.19 0 0.309 0.115 0.122 0.112 0.122 0.268 0 0.228-0.262 0.618l-0.982 1.467 1.056 1.627q0.143 0.214 0.207 0.357 0.065 0.139 0.065 0.265 0 0.119-0.058 0.217t-0.163 0.156-0.238 0.058q-0.143 0-0.241-0.061-0.098-0.058-0.16-0.146t-0.228-0.343l-0.876-1.379-0.931 1.42q-0.109 0.17-0.156 0.238-0.044 0.068-0.109 0.132t-0.153 0.102-0.207 0.037q-0.183 0-0.306-0.112-0.119-0.112-0.119-0.326 0-0.251 0.248-0.615z"></path>
</svg>
