<?xml version="1.0" encoding="UTF-8"?>
<!-- Generated by IcoMoon.io -->
<svg width="20" height="20" version="1.1" viewBox="0 0 20 20" xmlns="http://www.w3.org/2000/svg">
 <title>filetype-msg</title>
 <path d="m3.2339 1.9437c-.69952 0-1.2691.56957-1.2691 1.2691v7.613c0 .69952.56957 1.2691 1.2691 1.2691h13.534c.69952 0 1.2675-.56957 1.2675-1.2691v-7.613c0-.69952-.56801-1.2691-1.2675-1.2691zm0 .84607h13.534c.02537 0 .04912.00204.07364.00627l-2.0368 1.3584c-.36089.25892.07306.94851.41833.73639l1.9679-1.3114v7.2464c0 .23345-.18957.42303-.42303.42303h-13.534c-.23345 0-.42303-.18957-.42303-.42303v-7.2464l1.9177 1.2785c.41051.23643.88161-.34163.43087-.73012l-1.9992-1.3318c.023684-.00423.048264-.00627.073639-.00627z" fill="#00AEEF" />
 <g transform="matrix(.93528 0 0 .93528 1.4542 -1.6772)" fill="#00AEEF">
  <path d="m13.007 8.1134q0 .35417-.04687.72396-.04167.36979-.14062.71875-.09896.34896-.26042.66146-.16146.30729-.39583.54167t-.54688.36979q-.30729.13021-.70833.13021-.21354 0-.39583-.04687-.1823-.05209-.32292-.14584t-.23958-.23958q-.09375-.15104-.13021-.34375-.20833.20833-.40625.35938-.19271.14583-.38021.23958t-.36979.13542q-.17708.04167-.34896.04167-.22396 0-.39583-.04167-.17188-.04687-.30729-.13021-.13021-.08854-.22396-.21354t-.15625-.28125-.088542-.34375-.026042-.40625q0-.22396.036458-.51042.036458-.29167.11979-.59896.083333-.30729.22917-.59896.14583-.29688.35938-.52604.21875-.23438.51562-.375.29688-.14583.69271-.14583.16667 0 .31771.041667.15625.036458.29688.11979.14062.083333.27083.20833.13021.125.26562.29688l.08854-.45833q.02083-.072917.09375-.10938.07292-.036458.27083-.036458.09375 0 .15625.010417.06771.010417.10417.03125.03646.015625.04687.041667.01563.026042.0052.0625l-.46352 2.3958q-.08333.45312.04167.67187.125.21354.47396.21354.21354 0 .38542-.10417.17188-.10938.30208-.29167.13021-.18229.21875-.42188.08854-.24479.14583-.51042.05729-.27083.08333-.55208t.02604-.54167q0-.45312-.125-.85938-.11979-.41146-.41667-.71875-.29688-.3125-.79688-.49479-.49479-.1875-1.2448-.1875-.61458 0-1.0938.13542-.47917.13542-.84375.36979-.36458.22917-.625.53125-.26041.30208-.4427.64583-.17708.33854-.28646.69792-.10938.35417-.16667.6875-.057292.32812-.078125.61979-.015625.29167-.015625.49479 0 .57812.13021 1.0573.13542.47917.46354.82812.32812.34896.88021.54167.55208.19271 1.3906.19271.38021 0 .6875-.04687.30729-.04167.53125-.09375.22917-.04687.36979-.09375.14062-.04167.19271-.04167.03125 0 .05208.01563.02604.02083.03646.05729.01563.04167.02083.09896.0052.0625.0052.15104 0 .07292-.0052.11979 0 .04687-.01042.08333-.01042.04167-.03125.07292-.01563.03125-.04687.05729-.03125.02604-.18229.07813-.14583.05208-.40104.10417-.25.05208-.58854.08854t-.74479.03646q-.97396 0-1.651-.22917-.67188-.22917-1.099-.65625-.42188-.42708-.60938-1.026-.1875-.59896-.1875-1.3385 0-.27083.026042-.61979.03125-.35417.10938-.75.083333-.40104.22917-.8125.14583-.41667.375-.8125.23438-.39583.5625-.74479.33333-.35417.78125-.61458.45312-.26562 1.0313-.41667.58333-.15104 1.3177-.15104.85417 0 1.474.20833.625.20312 1.0312.57812t.60417.91667q.19792.53646.19792 1.1979zm-3.0208.33854q-.19792-.33333-.40625-.51042-.20833-.17708-.47396-.17708-.21875 0-.39583.10938-.17708.10417-.30729.27604-.13021.16667-.22396.38021-.088542.21354-.14583.4375-.057292.22396-.083333.4375-.020833.20833-.020833.36979 0 .38542.13542.59375.14062.20833.46875.20833.125 0 .25521-.04167.13021-.04687.27604-.13542.14583-.09375.30729-.23958.16667-.15104.36458-.35417z" fill="#00AEEF"/>
 </g>
 <g fill="#00AEEF" aria-label="MSG">
  <path d="m3.3359 18.997-.91797-3.6484v3.9531q0 .32812-.14844.49219-.14453.16406-.38672.16406-.23438 0-.38281-.16016-.14844-.16406-.14844-.49609v-4.5312q0-.375.19531-.50391.19531-.13281.52734-.13281h.35938q.32422 0 .46875.05859.14844.05859.21875.21094.070312.15234.16016.49609l.83203 3.1367.83203-3.1367q.089844-.34375.16016-.49609.070312-.15234.21484-.21094.14844-.05859.47266-.05859h.35938q.33203 0 .52734.13281.19531.12891.19531.50391v4.5312q0 .32812-.14844.49219-.14453.16406-.39062.16406-.23047 0-.37891-.16406-.14844-.16406-.14844-.49219v-3.9531l-.91797 3.6484q-.089844.35547-.14844.52344-.054687.16406-.20703.30078-.15234.13672-.42188.13672-.20312 0-.34375-.08984-.14062-.08594-.21875-.22266-.078125-.13672-.125-.30078-.042969-.16797-.089844-.34766z"/>
  <path d="m12.426 18.141q0 .51953-.26953.93359-.26562.41406-.78125.64844t-1.2227.23438q-.84766 0-1.3984-.32031-.39062-.23047-.63672-.61328-.24219-.38672-.24219-.75 0-.21094.14453-.35938.14844-.15234.375-.15234.18359 0 .30859.11719.12891.11719.21875.34766.10938.27344.23438.45703.12891.18359.35938.30469.23047.11719.60547.11719.51562 0 .83594-.23828.32422-.24219.32422-.60156 0-.28516-.17578-.46094-.17188-.17969-.44922-.27344-.27344-.09375-.73438-.19922-.61719-.14453-1.0352-.33594-.41406-.19531-.66016-.52734-.24219-.33594-.24219-.83203 0-.47266.25781-.83984.25781-.36719.74609-.5625.48828-.19922 1.1484-.19922.52734 0 .91016.13281.38672.12891.64062.34766.25391.21484.37109.45312.11719.23828.11719.46484 0 .20703-.14844.375-.14453.16406-.36328.16406-.19922 0-.30469-.09766-.10156-.10156-.22266-.32812-.15625-.32422-.375-.50391-.21875-.18359-.70312-.18359-.44922 0-.72656.19922-.27344.19531-.27344.47266 0 .17188.09375.29688t.25781.21484q.16406.08984.33203.14062.16797.05078.55469.14844.48438.11328.875.25.39453.13672.66797.33203.27734.19531.42969.49609.15625.29688.15625.73047z"/>
  <path d="m18.648 17.532v1.0977q0 .21875-.04297.35156-.04297.12891-.16016.23438-.11328.10547-.29297.20312-.51953.28125-1 .41016-.48047.12891-1.0469.12891-.66016 0-1.2031-.20312t-.92578-.58984q-.38281-.38672-.58984-.9375-.20312-.55078-.20312-1.2305 0-.66797.19922-1.2227.19922-.55469.58594-.94141t.94141-.58984q.55469-.20703 1.2578-.20703.57812 0 1.0234.15625.44531.15234.72266.38672.27734.23438.41797.49609.14062.26172.14062.46484 0 .21875-.16406.375-.16016.15234-.38672.15234-.125 0-.24219-.05859-.11328-.05859-.19141-.16406-.21484-.33594-.36328-.50781-.14844-.17188-.40234-.28906-.25-.11719-.64062-.11719-.40234 0-.71875.14062-.31641.13672-.54297.40234-.22266.26172-.34375.64453-.11719.38281-.11719.84766 0 1.0078.46094 1.5508.46484.54297 1.293.54297.40234 0 .75391-.10547.35547-.10547.71875-.30078v-.92969h-.89844q-.32422 0-.49219-.09766-.16406-.09766-.16406-.33203 0-.19141.13672-.31641.14062-.125.37891-.125h1.3164q.24219 0 .41016.04297.16797.04297.26953.19141.10547.14844.10547.44531z"/>
 </g>
</svg>
