<!-- Generated by IcoMoon.io -->
<svg version="1.1" xmlns="http://www.w3.org/2000/svg" width="20" height="20" viewBox="0 0 20 20">
<title>filetype-flv</title>
<path fill="#00AEEF" d="M8.081 9.717c-0.049 0-0.098-0.011-0.143-0.034-0.108-0.054-0.177-0.165-0.177-0.286v-5.758c0-0.121 0.068-0.232 0.177-0.286s0.238-0.042 0.335 0.030l3.839 2.879c0.081 0.060 0.128 0.155 0.128 0.256s-0.047 0.196-0.128 0.256l-3.839 2.879c-0.056 0.042-0.124 0.064-0.192 0.064zM8.4 4.278v4.479l2.986-2.239z"></path>
<path fill="#00AEEF" d="M16.363 1.040h-12.726c-0.185 0-0.335 0.15-0.335 0.335v10.047c0 0.185 0.15 0.335 0.335 0.335h12.726c0.185 0 0.335-0.15 0.335-0.335v-10.047c0-0.185-0.15-0.335-0.335-0.335zM5.311 7.068h-1.34v-1.34h1.34zM5.311 5.058h-1.34v-1.34h1.34zM3.972 7.738h1.34v1.34h-1.34zM5.981 1.709h8.038v9.377h-8.038zM14.689 5.728h1.34v1.34h-1.34zM14.689 5.058v-1.34h1.34v1.34zM14.689 7.738h1.34v1.34h-1.34zM16.028 3.049h-1.34v-1.34h1.34zM5.311 1.709v1.34h-1.34v-1.34zM3.972 9.747h1.34v1.34h-1.34zM14.689 11.087v-1.34h1.34v1.34z"></path>
<path fill="#00AEEF" d="M6.698 14.646h-2.315v1.484h1.935q0.269 0 0.4 0.123 0.135 0.119 0.135 0.321t-0.135 0.321-0.4 0.119h-1.935v1.912q0 0.364-0.166 0.542-0.162 0.174-0.42 0.174-0.261 0-0.427-0.178-0.162-0.178-0.162-0.538v-4.464q0-0.253 0.075-0.412 0.075-0.162 0.234-0.234 0.162-0.075 0.412-0.075h2.77q0.281 0 0.416 0.127 0.139 0.123 0.139 0.325 0 0.206-0.139 0.332-0.135 0.123-0.416 0.123z"></path>
<path fill="#00AEEF" d="M9.275 14.353v4.223h2.383q0.285 0 0.435 0.139 0.154 0.139 0.154 0.348 0 0.214-0.15 0.348-0.15 0.131-0.439 0.131h-2.838q-0.384 0-0.554-0.17-0.166-0.17-0.166-0.55v-4.468q0-0.356 0.158-0.534 0.162-0.178 0.423-0.178 0.265 0 0.427 0.178 0.166 0.174 0.166 0.534z"></path>
<path fill="#00AEEF" d="M12.957 14.412l1.314 3.891 1.318-3.918q0.103-0.309 0.154-0.427 0.051-0.123 0.17-0.218 0.119-0.099 0.325-0.099 0.15 0 0.277 0.075 0.131 0.075 0.202 0.202 0.075 0.123 0.075 0.249 0 0.087-0.024 0.19-0.024 0.099-0.059 0.198-0.036 0.095-0.071 0.198l-1.405 3.792q-0.075 0.218-0.15 0.416-0.075 0.194-0.174 0.344-0.099 0.146-0.265 0.241-0.162 0.095-0.4 0.095t-0.404-0.095q-0.162-0.091-0.265-0.241-0.099-0.154-0.174-0.348t-0.15-0.412l-1.381-3.76q-0.036-0.103-0.075-0.202-0.036-0.099-0.063-0.214-0.024-0.115-0.024-0.194 0-0.202 0.162-0.368t0.408-0.166q0.301 0 0.423 0.186 0.127 0.182 0.257 0.586z"></path>
</svg>
