<!-- Generated by IcoMoon.io -->
<svg version="1.1" xmlns="http://www.w3.org/2000/svg" width="20" height="20" viewBox="0 0 20 20">
<title>filetype-gif</title>
<path fill="#00AEEF" d="M15.849 1.302c0 0 0.001 0.001 0.002 0.002v10.028c-0 0-0.001 0.001-0.002 0.002h-11.7c-0-0-0.001-0.001-0.002-0.002v-10.028c0-0 0.001-0.001 0.002-0.002zM15.851 0.466h-11.703c-0.46 0-0.836 0.376-0.836 0.836v10.031c0 0.46 0.376 0.836 0.836 0.836h11.703c0.46 0 0.836-0.376 0.836-0.836v-10.031c0-0.46-0.376-0.836-0.836-0.836z"></path>
<path fill="#00AEEF" d="M14.179 3.392c0 0.693-0.561 1.254-1.254 1.254s-1.254-0.561-1.254-1.254c0-0.693 0.561-1.254 1.254-1.254s1.254 0.561 1.254 1.254z"></path>
<path fill="#00AEEF" d="M15.015 10.497h-10.031v-1.672l2.926-5.016 3.344 4.18h0.836l2.926-2.508z"></path>
<path fill="#00AEEF" d="M8.905 17.355v1.135q0 0.226-0.044 0.363-0.044 0.133-0.166 0.242-0.117 0.109-0.303 0.21-0.537 0.291-1.034 0.424t-1.082 0.133q-0.682 0-1.244-0.21t-0.957-0.61-0.61-0.969q-0.21-0.569-0.21-1.272 0-0.69 0.206-1.264t0.606-0.973 0.973-0.61q0.573-0.214 1.3-0.214 0.598 0 1.058 0.162 0.46 0.157 0.747 0.4t0.432 0.513 0.145 0.48q0 0.226-0.17 0.388-0.166 0.157-0.4 0.157-0.129 0-0.25-0.061-0.117-0.061-0.198-0.17-0.222-0.347-0.376-0.525t-0.416-0.299q-0.258-0.121-0.662-0.121-0.416 0-0.743 0.145-0.327 0.141-0.561 0.416-0.23 0.271-0.355 0.666-0.121 0.396-0.121 0.876 0 1.042 0.476 1.603 0.48 0.561 1.337 0.561 0.416 0 0.779-0.109 0.367-0.109 0.743-0.311v-0.961h-0.929q-0.335 0-0.509-0.101-0.17-0.101-0.17-0.343 0-0.198 0.141-0.327 0.145-0.129 0.392-0.129h1.361q0.25 0 0.424 0.044t0.279 0.198q0.109 0.153 0.109 0.46z"></path>
<path fill="#00AEEF" d="M10.105 19.132v-4.664q0-0.363 0.166-0.545t0.428-0.182q0.271 0 0.436 0.182 0.17 0.178 0.17 0.545v4.664q0 0.367-0.17 0.549-0.166 0.182-0.436 0.182-0.258 0-0.428-0.182-0.166-0.186-0.166-0.549z"></path>
<path fill="#00AEEF" d="M16.178 14.767h-2.362v1.514h1.974q0.275 0 0.408 0.125 0.137 0.121 0.137 0.327t-0.137 0.327-0.408 0.121h-1.974v1.95q0 0.371-0.17 0.553-0.166 0.178-0.428 0.178-0.266 0-0.436-0.182-0.166-0.182-0.166-0.549v-4.555q0-0.258 0.077-0.42 0.077-0.166 0.238-0.238 0.166-0.077 0.42-0.077h2.826q0.287 0 0.424 0.129 0.141 0.125 0.141 0.331 0 0.21-0.141 0.339-0.137 0.125-0.424 0.125z"></path>
</svg>
