<!-- Generated by IcoMoon.io -->
<svg version="1.1" xmlns="http://www.w3.org/2000/svg" width="20" height="20" viewBox="0 0 20 20">
<title>filetype-htm</title>
<path fill="#00AEEF" d="M2.889 14.682v1.641h2.504v-1.641q0-0.352 0.156-0.527 0.16-0.176 0.418-0.176 0.262 0 0.422 0.176 0.164 0.172 0.164 0.527v4.512q0 0.355-0.164 0.531t-0.422 0.176q-0.262 0-0.418-0.176-0.156-0.18-0.156-0.531v-1.926h-2.504v1.926q0 0.355-0.164 0.531t-0.422 0.176q-0.262 0-0.418-0.176-0.156-0.18-0.156-0.531v-4.512q0-0.352 0.152-0.527 0.156-0.176 0.422-0.176 0.262 0 0.422 0.176 0.164 0.172 0.164 0.527z"></path>
<path fill="#00AEEF" d="M11.518 15.034h-1.266v4.16q0 0.359-0.16 0.535-0.16 0.172-0.414 0.172-0.258 0-0.422-0.176-0.16-0.176-0.16-0.531v-4.16h-1.266q-0.297 0-0.441-0.129-0.145-0.133-0.145-0.348 0-0.223 0.148-0.352 0.152-0.129 0.438-0.129h3.688q0.301 0 0.445 0.133 0.148 0.133 0.148 0.348t-0.148 0.348q-0.148 0.129-0.445 0.129z"></path>
<path fill="#00AEEF" d="M14.732 18.94l-0.918-3.648v3.953q0 0.328-0.148 0.492-0.145 0.164-0.387 0.164-0.234 0-0.383-0.16-0.148-0.164-0.148-0.496v-4.531q0-0.375 0.195-0.504 0.195-0.133 0.527-0.133h0.359q0.324 0 0.469 0.059 0.148 0.059 0.219 0.211t0.16 0.496l0.832 3.137 0.832-3.137q0.090-0.344 0.16-0.496t0.215-0.211q0.148-0.059 0.473-0.059h0.359q0.332 0 0.527 0.133 0.195 0.129 0.195 0.504v4.531q0 0.328-0.148 0.492-0.145 0.164-0.391 0.164-0.23 0-0.379-0.164t-0.148-0.492v-3.953l-0.918 3.648q-0.090 0.355-0.148 0.523-0.055 0.164-0.207 0.301t-0.422 0.137q-0.203 0-0.344-0.090-0.141-0.086-0.219-0.223t-0.125-0.301q-0.043-0.168-0.090-0.348z"></path>
<path fill="#00AEEF" d="M14.204 1.852c-1.123-1.123-2.616-1.741-4.204-1.741s-3.081 0.618-4.204 1.741c-1.123 1.123-1.741 2.616-1.741 4.204s0.618 3.081 1.741 4.204c1.123 1.123 2.616 1.741 4.204 1.741s3.081-0.618 4.204-1.741c1.123-1.123 1.741-2.616 1.741-4.204s-0.618-3.081-1.741-4.204zM14.992 4.13c-0.116-0.209-0.407-0.308-0.788-0.438-0.408-0.139-0.553-0.559-0.72-1.045-0.145-0.422-0.295-0.858-0.651-1.129 0.974 0.611 1.738 1.526 2.159 2.612zM13.324 6.169c0.045 0.402 0.092 0.819-0.408 1.381-0.135 0.152-0.214 0.363-0.298 0.586-0.194 0.518-0.377 1.007-1.157 1.014-0.022-0.026-0.084-0.125-0.139-0.436-0.051-0.287-0.080-0.658-0.111-1.049-0.048-0.602-0.102-1.284-0.25-1.85-0.19-0.724-0.51-1.151-0.976-1.307-0.203-0.068-0.411-0.101-0.635-0.101-0.165 0-0.315 0.018-0.447 0.033-0.103 0.012-0.2 0.024-0.282 0.024-0.139 0-0.297 0-0.491-0.445-0.279-0.639-0.073-1.663 0.746-2.204 0.449-0.296 0.759-0.423 1.036-0.423 0.221 0 0.46 0.077 0.798 0.257 0.4 0.213 0.713 0.24 0.941 0.24 0.090 0 0.172-0.005 0.251-0.010 0.067-0.004 0.129-0.008 0.187-0.008 0.131 0 0.237 0.017 0.361 0.102 0.229 0.156 0.348 0.502 0.473 0.867 0.19 0.554 0.406 1.182 1.091 1.415 0.092 0.032 0.25 0.085 0.363 0.132-0.097 0.1-0.259 0.244-0.417 0.386-0.102 0.092-0.218 0.195-0.347 0.312-0.371 0.338-0.327 0.734-0.288 1.083zM4.65 6.010c0.064 0.011 0.133 0.025 0.205 0.040 0.334 0.071 0.49 0.136 0.559 0.172-0.032 0.061-0.095 0.152-0.137 0.211-0.147 0.209-0.33 0.468-0.26 0.754 0.047 0.193 0.007 0.43-0.061 0.649-0.197-0.558-0.305-1.157-0.305-1.781 0-0.015 0.001-0.030 0.001-0.046zM10 11.406c-2.036 0-3.811-1.144-4.715-2.822 0.156-0.297 0.445-0.953 0.31-1.527 0.010-0.058 0.108-0.197 0.166-0.281 0.161-0.229 0.361-0.513 0.213-0.814-0.104-0.212-0.383-0.354-0.931-0.478-0.127-0.029-0.251-0.052-0.356-0.070 0.319-2.649 2.579-4.708 5.312-4.708 0.938 0 1.82 0.243 2.587 0.669-0.19-0.083-0.361-0.096-0.499-0.096-0.076 0-0.15 0.004-0.223 0.009-0.071 0.004-0.144 0.008-0.216 0.008-0.169 0-0.379-0.020-0.661-0.171-0.43-0.229-0.753-0.327-1.077-0.327-0.402 0-0.81 0.156-1.363 0.521-0.479 0.316-0.839 0.798-1.015 1.36-0.172 0.548-0.153 1.108 0.052 1.578 0.242 0.554 0.561 0.801 1.036 0.801 0.117 0 0.231-0.014 0.352-0.028 0.122-0.014 0.247-0.029 0.378-0.029 0.161 0 0.303 0.023 0.446 0.070 0.261 0.087 0.454 0.38 0.589 0.894s0.187 1.169 0.232 1.746c0.038 0.482 0.074 0.936 0.153 1.279 0.048 0.208 0.11 0.366 0.19 0.483 0.119 0.175 0.291 0.271 0.482 0.271 0.526 0 0.945-0.169 1.248-0.504 0.251-0.278 0.38-0.621 0.483-0.897 0.061-0.162 0.124-0.331 0.185-0.4 0.676-0.759 0.606-1.385 0.555-1.842-0.037-0.335-0.038-0.454 0.097-0.578 0.126-0.115 0.241-0.218 0.342-0.308 0.216-0.193 0.372-0.332 0.481-0.451 0.075-0.082 0.251-0.274 0.202-0.514-0.001-0.002-0.001-0.004-0.001-0.007 0.204 0.565 0.315 1.175 0.315 1.81 0 2.951-2.4 5.351-5.351 5.351z"></path>
</svg>
