<!-- Generated by IcoMoon.io -->
<svg version="1.1" xmlns="http://www.w3.org/2000/svg" width="20" height="20" viewBox="0 0 20 20">
<title>folder-add</title>
<path fill="#00AEEF" d="M2 2.998c-0.461 0-0.966 0.312-1.172 0.725l-0.553 1.106c-0.158 0.315-0.275 0.819-0.275 1.172v10.5c0 0.827 0.673 1.5 1.5 1.5h17c0.827 0 1.5-0.673 1.5-1.5v-6.033c0-0.637-1-0.612-1 0v6.033c0 0.276-0.224 0.5-0.5 0.5h-17c-0.276 0-0.5-0.224-0.5-0.5v-10.5c0-0.196 0.084-0.549 0.172-0.725l0.553-1.106c0.038-0.077 0.19-0.172 0.275-0.172h7c0.086 0 0.237 0.095 0.275 0.172l0.553 1.106c0.009 0.018 0.027 0.033 0.037 0.051 0.256 0.465 1.14 0.159 0.932-0.428-0.028-0.023-0.061-0.047-0.072-0.070l-0.553-1.106c-0.206-0.413-0.711-0.725-1.172-0.725z"></path>
<path fill="#00AEEF" d="M15.932 0.034c-2.24 0-4.055 1.815-4.055 4.055s1.815 4.055 4.055 4.055c2.24 0 4.055-1.815 4.055-4.055s-1.815-4.055-4.055-4.055zM18.185 4.54h-1.802v1.802c0 0.642-0.901 0.631-0.901 0v-1.802h-1.802c-0.541 0-0.557-0.901 0-0.901h1.802v-1.802c0-0.539 0.901-0.546 0.901 0v1.802h1.802c0.454 0 0.484 0.901 0 0.901z"></path>
</svg>
