<?xml version="1.0" encoding="UTF-8" standalone="no"?>
<svg
   xmlns:dc="http://purl.org/dc/elements/1.1/"
   xmlns:cc="http://creativecommons.org/ns#"
   xmlns:rdf="http://www.w3.org/1999/02/22-rdf-syntax-ns#"
   xmlns:svg="http://www.w3.org/2000/svg"
   xmlns="http://www.w3.org/2000/svg"
   xmlns:sodipodi="http://sodipodi.sourceforge.net/DTD/sodipodi-0.dtd"
   xmlns:inkscape="http://www.inkscape.org/namespaces/inkscape"
   width="45.77"
   height="49.736"
   enable-background="new"
   version="1.1"
   viewBox="0 0 45.77 49.736"
   id="svg24"
   sodipodi:docname="invoice-rejected.svg"
   inkscape:version="0.92.4 (5da689c313, 2019-01-14)">
  <metadata
     id="metadata30">
    <rdf:RDF>
      <cc:Work
         rdf:about="">
        <dc:format>image/svg+xml</dc:format>
        <dc:type
           rdf:resource="http://purl.org/dc/dcmitype/StillImage" />
      </cc:Work>
    </rdf:RDF>
  </metadata>
  <defs
     id="defs28" />
  <sodipodi:namedview
     pagecolor="#ffffff"
     bordercolor="#666666"
     borderopacity="1"
     objecttolerance="10"
     gridtolerance="10"
     guidetolerance="10"
     inkscape:pageopacity="0"
     inkscape:pageshadow="2"
     inkscape:window-width="1920"
     inkscape:window-height="1001"
     id="namedview26"
     showgrid="false"
     inkscape:zoom="9.4901078"
     inkscape:cx="41.253317"
     inkscape:cy="24.611479"
     inkscape:window-x="-9"
     inkscape:window-y="-9"
     inkscape:window-maximized="1"
     inkscape:current-layer="svg24" />
  <g
     transform="translate(-4.0007 -.00045)"
     fill="#00AEEF"
     id="g20"
     style="stroke:none;fill:#00aeef;fill-opacity:1">
    <path
       transform="translate(-.044194 -.26517)"
       d="m4.0508.26562-.00586 49 9-2 5 2 7.1172-1.8672c-.39837-.32547-.78203-.67072-1.1504-1.0391-.51137-.51135-.96823-1.0628-1.3965-1.6309l-4.5703 1.5371-5-2-6 2v-44h36v20.555c.88915.57777 1.7277 1.2453 2.4941 2.0117.17884.17884.33704.3725.50586.55859v-25.125h-41.994z"
       id="path2"
       style="stroke:none;fill:#00aeef;fill-opacity:1" />
    <path
       d="m13.097 12.974c12.434-2.1176 12.379-2.1176 12.379-2.1176"
       id="path4"
       style="stroke:none;fill:#00aeef;fill-opacity:1" />
    <path
       d="m24.825 10.779-10.678.01424a1.5216 1.5216 0 10.0044 3.0413l10.678-.01222a1.5217 1.5217 0 10-.0044-3.0434z"
       color="#000000"
       color-rendering="auto"
       dominant-baseline="auto"
       enable-background="accumulate"
       image-rendering="auto"
       shape-rendering="auto"
       solid-color="#000000"
       style="font-feature-settings:normal;font-variant-alternates:normal;font-variant-caps:normal;font-variant-ligatures:normal;font-variant-numeric:normal;font-variant-position:normal;isolation:auto;mix-blend-mode:normal;shape-padding:0;text-decoration-color:#000000;text-decoration-line:none;text-decoration-style:solid;text-indent:0;text-orientation:mixed;text-transform:none;white-space:normal;stroke:none;fill:#00aeef;fill-opacity:1"
       id="path6" />
    <path
       d="m32.001 10.779a1.5379 1.5379 0 100 3.0753h5.0214a1.5379 1.5379 0 100-3.0753z"
       color="#000000"
       color-rendering="auto"
       dominant-baseline="auto"
       enable-background="accumulate"
       image-rendering="auto"
       shape-rendering="auto"
       solid-color="#000000"
       style="font-feature-settings:normal;font-variant-alternates:normal;font-variant-caps:normal;font-variant-ligatures:normal;font-variant-numeric:normal;font-variant-position:normal;isolation:auto;mix-blend-mode:normal;shape-padding:0;text-decoration-color:#000000;text-decoration-line:none;text-decoration-style:solid;text-indent:0;text-orientation:mixed;text-transform:none;white-space:normal;stroke:none;fill:#00aeef;fill-opacity:1"
       id="path8" />
    <path
       d="m13.097 23.225c12.434-2.1176 12.379-2.1176 12.379-2.1176"
       id="path10"
       style="stroke:none;fill:#00aeef;fill-opacity:1" />
    <path
       transform="translate(-.044194 -.26517)"
       d="m19.225 21.303-5.0332.0059a1.5216 1.5216 0 10.0039 3.043l2.8887-.0039c.59275-1.0822 1.3152-2.0975 2.1406-3.0449z"
       style="font-feature-settings:normal;font-variant-alternates:normal;font-variant-caps:normal;font-variant-ligatures:normal;font-variant-numeric:normal;font-variant-position:normal;isolation:auto;mix-blend-mode:normal;shape-padding:0;text-decoration-color:#000000;text-decoration-line:none;text-decoration-style:solid;text-indent:0;text-orientation:mixed;text-transform:none;white-space:normal;stroke:none;fill:#00aeef;fill-opacity:1"
       id="path12" />
    <path
       d="m13.097 33.477c12.434-2.1176 12.379-2.1176 12.379-2.1176"
       id="path14"
       style="stroke:none;fill:#00aeef;fill-opacity:1" />
    <path
       transform="translate(-.044194 -.26517)"
       d="m15.262 31.559-1.0684.002a1.5216 1.5216 0 10.0039 3.041l1.1074-.002c-.06386-.60393-.10156-1.2129-.10156-1.8281 0-.40761.03043-.80992.05859-1.2129z"
       style="font-feature-settings:normal;font-variant-alternates:normal;font-variant-caps:normal;font-variant-ligatures:normal;font-variant-numeric:normal;font-variant-position:normal;isolation:auto;mix-blend-mode:normal;shape-padding:0;text-decoration-color:#000000;text-decoration-line:none;text-decoration-style:solid;text-indent:0;text-orientation:mixed;text-transform:none;white-space:normal;stroke:none;fill:#00aeef;fill-opacity:1"
       id="path16" />
    <path
       d="m21.945 32.998c-.03202.15428-.04786.31293-.07422.46875.02627-.15568.04238-.31497.07422-.46875z"
       color="#000000"
       color-rendering="auto"
       dominant-baseline="auto"
       enable-background="accumulate"
       image-rendering="auto"
       shape-rendering="auto"
       solid-color="#000000"
       style="font-feature-settings:normal;font-variant-alternates:normal;font-variant-caps:normal;font-variant-ligatures:normal;font-variant-numeric:normal;font-variant-position:normal;isolation:auto;mix-blend-mode:normal;shape-padding:0;text-decoration-color:#000000;text-decoration-line:none;text-decoration-style:solid;text-indent:0;text-orientation:mixed;text-transform:none;white-space:normal;stroke:none;fill:#00aeef;fill-opacity:1"
       id="path18" />
  </g>
  <g
     id="g856"
     transform="matrix(1.7708859,0,0,1.7542481,10.731593,13.824499)"
     style="stroke:none;fill:#00aeef;fill-opacity:1">
    <path
       id="path842"
       d="M 14.332,14.126 10.252,10.5 14.332,6.874 C 14.538,6.691 14.557,6.375 14.374,6.168 14.191,5.961 13.875,5.943 13.668,6.126 L 9.5,9.831 5.332,6.126 C 5.126,5.943 4.81,5.961 4.626,6.168 4.442,6.375 4.461,6.69 4.668,6.874 l 4.08,3.626 -4.08,3.626 C 4.462,14.309 4.443,14.625 4.626,14.832 4.725,14.943 4.862,15 5,15 5.118,15 5.237,14.958 5.332,14.874 L 9.5,11.169 13.668,14.874 C 13.763,14.959 13.882,15 14,15 c 0.138,0 0.275,-0.057 0.374,-0.168 0.183,-0.206 0.165,-0.522 -0.042,-0.706 z"
       inkscape:connector-curvature="0"
       style="fill:#00aeef;stroke:none;fill-opacity:1" />
    <path
       id="path844"
       d="M 9.5,20 C 6.962,20 4.577,19.012 2.782,17.218 0.987,15.424 0,13.038 0,10.501 0,7.963 0.988,5.578 2.782,3.783 4.576,1.988 6.962,1 9.5,1 12.038,1 14.423,1.988 16.218,3.783 18.013,5.578 19,7.963 19,10.501 19,13.039 18.012,15.424 16.218,17.218 14.424,19.012 12.038,20 9.5,20 Z M 9.5,2 C 4.813,2 1,5.813 1,10.5 1,15.187 4.813,19 9.5,19 14.187,19 18,15.187 18,10.5 18,5.813 14.187,2 9.5,2 Z"
       inkscape:connector-curvature="0"
       style="fill:#00aeef;stroke:none;fill-opacity:1" />
  </g>
</svg>
