<?xml version="1.0" encoding="UTF-8" standalone="no"?>
<svg
   xmlns:dc="http://purl.org/dc/elements/1.1/"
   xmlns:cc="http://creativecommons.org/ns#"
   xmlns:rdf="http://www.w3.org/1999/02/22-rdf-syntax-ns#"
   xmlns:svg="http://www.w3.org/2000/svg"
   xmlns="http://www.w3.org/2000/svg"
   xmlns:sodipodi="http://sodipodi.sourceforge.net/DTD/sodipodi-0.dtd"
   xmlns:inkscape="http://www.inkscape.org/namespaces/inkscape"
   width="20"
   height="20"
   version="1.1"
   viewBox="0 0 5.2917 5.2917"
   id="svg20"
   sodipodi:docname="invoice-approver-2.svg"
   inkscape:version="0.92.4 (5da689c313, 2019-01-14)">
  <metadata
     id="metadata26">
    <rdf:RDF>
      <cc:Work
         rdf:about="">
        <dc:format>image/svg+xml</dc:format>
        <dc:type
           rdf:resource="http://purl.org/dc/dcmitype/StillImage" />
        <dc:title></dc:title>
      </cc:Work>
    </rdf:RDF>
  </metadata>
  <defs
     id="defs24" />
  <sodipodi:namedview
     pagecolor="#ffffff"
     bordercolor="#666666"
     borderopacity="1"
     objecttolerance="10"
     gridtolerance="10"
     guidetolerance="10"
     inkscape:pageopacity="0"
     inkscape:pageshadow="2"
     inkscape:window-width="1920"
     inkscape:window-height="1017"
     id="namedview22"
     showgrid="false"
     inkscape:snap-nodes="false"
     inkscape:snap-global="false"
     inkscape:zoom="22.627417"
     inkscape:cx="-0.34519751"
     inkscape:cy="4.1837047"
     inkscape:window-x="1912"
     inkscape:window-y="-8"
     inkscape:window-maximized="1"
     inkscape:current-layer="svg20" />
  <path
     style="color:#000000;font-variant-ligatures:normal;font-variant-position:normal;font-variant-caps:normal;font-variant-numeric:normal;font-variant-alternates:normal;font-feature-settings:normal;text-indent:0;text-decoration:none;text-decoration-line:none;text-decoration-style:solid;text-decoration-color:#000000;text-transform:none;text-orientation:mixed;dominant-baseline:auto;white-space:normal;shape-padding:0;isolation:auto;mix-blend-mode:normal;solid-color:#000000;fill:#00AEEF;stroke-width:0.16804896;color-rendering:auto;image-rendering:auto;shape-rendering:auto;stroke:none"
     d="M 2.6300149,0.02213463 C 1.8275652,0.02800122 1.1796082,0.68550217 1.1854748,1.4879519 1.189879,2.0903658 1.5616446,2.6054074 2.086162,2.8224148 2.1286294,2.7418977 2.1796291,2.6657026 2.2353805,2.5923898 1.781684,2.4268675 1.4537852,1.9965552 1.4500528,1.4860176 1.4452539,0.82961215 1.9755437,0.29151146 2.6319492,0.28671257 c 0.6564054,-0.004799 1.1945061,0.52549097 1.199305,1.18189643 0.0012,0.1635294 -0.031259,0.3197196 -0.090159,0.4621449 0.089651,0.00821 0.1777419,0.024738 0.2638996,0.046648 C 4.063672,1.8179045 4.0971462,1.6464123 4.0958322,1.4666747 4.0899656,0.66422498 3.4324647,0.01626804 2.6300149,0.02213463 Z"
     id="path888"
     inkscape:connector-curvature="0" />
  <path
     d="m 4.4636103,2.8376826 c -0.043359,3.17e-4 -0.086597,0.016657 -0.1189866,0.049233 L 3.2904579,3.9475066 2.900616,3.5667138 c -0.065724,-0.064198 -0.1739053,-0.063407 -0.238687,0.00175 -0.064778,0.065152 -0.063994,0.1723793 0.00173,0.236581 l 0.5100442,0.498537 3.288e-4,-2.4e-6 c 0.032712,0.031625 0.075994,0.048055 0.1190378,0.04782 l 3.289e-4,-2.5e-6 c 0.04261,-3.887e-4 0.086187,-0.01723 0.1186533,-0.049884 L 4.5850253,3.1217597 C 4.6498036,3.0566073 4.6490197,2.9493804 4.5832957,2.8851787 4.5504337,2.8530796 4.5069609,2.8373741 4.463602,2.837691 Z"
     dominant-baseline="auto"
     style="color:#000000;font-variant-ligatures:normal;font-variant-position:normal;font-variant-caps:normal;font-variant-numeric:normal;font-variant-alternates:normal;font-feature-settings:normal;text-indent:0;text-decoration:none;text-decoration-line:none;text-decoration-style:solid;text-decoration-color:#000000;text-transform:none;text-orientation:mixed;dominant-baseline:auto;white-space:normal;shape-padding:0;isolation:auto;mix-blend-mode:normal;solid-color:#000000;fill:#00AEEF;stroke-width:0.16804896;color-rendering:auto;image-rendering:auto;shape-rendering:auto;stroke:none"
     id="path4"
     inkscape:connector-curvature="0" />
  <g
     style="fill:#00AEEF"
     id="g10"
     transform="matrix(0.26458,0,0,0.26458,0.13229,0.02)" />
  <path
     style="color:#000000;font-variant-ligatures:normal;font-variant-position:normal;font-variant-caps:normal;font-variant-numeric:normal;font-variant-alternates:normal;font-feature-settings:normal;text-indent:0;text-decoration:none;text-decoration-line:none;text-decoration-style:solid;text-decoration-color:#000000;text-transform:none;text-orientation:mixed;dominant-baseline:auto;white-space:normal;shape-padding:0;isolation:auto;mix-blend-mode:normal;solid-color:#000000;fill:#00AEEF;stroke-width:0.63514167;color-rendering:auto;image-rendering:auto;stroke:none;stroke-opacity:1"
     d="m 12.169922,19.886719 c -0.753117,-0.170808 -1.46827,-0.471427 -2.111328,-0.898438 L 1.5,18.949219 C 1.2240052,18.950512 1,18.72567 1,18.453125 1.001,18.439199 1.0236073,17.066482 2.0585938,15.722656 3.1224232,14.341096 4.9003783,13.467934 7.2519531,13.136719 7.2843274,12.788868 7.3492303,12.448844 7.4375,12.115234 6.1838494,12.262349 5.0554288,12.535569 4.09375,12.960938 2.8947727,13.490112 1.9295961,14.23296 1.2246094,15.167969 0.01363226,16.774393 0,18.383533 0,18.451172 c 0,0.822608 0.67302563,1.488805 1.5,1.492187 l 10.769531,0.002 c -0.04763,-0.02813 -0.05762,-0.03393 -0.09961,-0.05859 z"
     transform="scale(0.264585)"
     id="path918" />
  <g
     inkscape:groupmode="layer"
     id="layer1"
     inkscape:label="Layer 1"
     style="display:inline">
    <g
       style=""
       id="g18">
      <g
         transform="matrix(.26458 0 0 .26318 3.4396e-8 .013288)"
         fill="#00AEEF"
         id="g16" />
    </g>
  </g>
  <g
     inkscape:groupmode="layer"
     id="layer2"
     inkscape:label="Layer 2"
     style="display:inline" />
  <path
     inkscape:connector-curvature="0"
     id="path2-8-4"
     style="color:#000000;font-variant-ligatures:normal;font-variant-position:normal;font-variant-caps:normal;font-variant-numeric:normal;font-variant-alternates:normal;font-feature-settings:normal;text-indent:0;text-decoration:none;text-decoration-line:none;text-decoration-style:solid;text-decoration-color:#000000;text-transform:none;text-orientation:mixed;dominant-baseline:auto;white-space:normal;shape-padding:0;isolation:auto;mix-blend-mode:normal;solid-color:#000000;fill:#00AEEF;stroke:none;stroke-width:0.1641708;color-rendering:auto;image-rendering:auto"
     dominant-baseline="auto"
     d="M 3.6343199,1.9913732 C 3.1944197,1.9871537 2.7774871,2.1536058 2.4635584,2.4590133 2.1496633,2.7643823 1.9738981,3.1742439 1.9697159,3.6102535 1.9655311,4.0460972 2.1332083,4.4592237 2.4413869,4.7704424 2.7495329,5.0816216 3.1630653,5.255903 3.6029655,5.2601225 4.0428652,5.2643379 4.4597966,5.0980364 4.7737233,4.7928145 5.0876335,4.4875826 5.2633806,4.0778968 5.2675628,3.641887 5.2717449,3.2059066 5.1040557,2.7927409 4.7958949,2.4813855 4.4877505,2.1700401 4.0742195,1.9955928 3.6343199,1.9913732 Z m -0.00314,0.3268731 C 4.359319,2.3252299 4.9447069,2.916694 4.9377843,3.6384012 4.9308584,4.3601086 4.3342323,4.940234 3.606101,4.9332496 2.877969,4.9262652 2.2925809,4.3348018 2.2995037,3.6130945 2.3064264,2.8913872 2.9030525,2.311262 3.6311838,2.3182463 Z m 1.2439383,2.0436431 c -4.74331912,0.5073964 -2.3716596,0.253703 0,0 z" />
</svg>
