<!-- Generated by IcoMoon.io -->
<svg version="1.1" xmlns="http://www.w3.org/2000/svg" width="20" height="20" viewBox="0 0 20 20">
<title>message</title>
<path fill="#00AEEF" d="M0.5 19c-0.225 0-0.422-0.15-0.482-0.367s0.032-0.447 0.225-0.562c1.691-1.014 2.392-2.489 2.641-3.179-1.838-1.407-2.884-3.354-2.884-5.392 0-1.029 0.258-2.026 0.768-2.964 0.486-0.894 1.18-1.695 2.061-2.381 1.787-1.39 4.156-2.156 6.671-2.156s4.884 0.766 6.671 2.156c0.881 0.685 1.575 1.486 2.061 2.381 0.51 0.937 0.768 1.934 0.768 2.964s-0.258 2.026-0.768 2.964c-0.486 0.894-1.18 1.695-2.061 2.381-1.787 1.39-4.156 2.156-6.671 2.156-1.033 0-2.047-0.129-3.016-0.385-0.429 0.286-1.231 0.793-2.189 1.27-1.488 0.74-2.764 1.115-3.794 1.115zM9.5 3c-4.687 0-8.5 2.916-8.5 6.5 0 1.815 1.005 3.562 2.756 4.792 0.172 0.121 0.25 0.336 0.196 0.539-0.117 0.436-0.515 1.633-1.58 2.788 1.302-0.456 2.704-1.247 3.739-1.959 0.123-0.085 0.277-0.11 0.421-0.069 0.948 0.271 1.947 0.409 2.968 0.409 4.687 0 8.5-2.916 8.5-6.5s-3.813-6.5-8.5-6.5z"></path>
<path fill="#00AEEF" d="M13.722 7.917q0 0.413-0.055 0.844-0.049 0.431-0.164 0.838t-0.304 0.771q-0.188 0.358-0.462 0.632t-0.638 0.431q-0.358 0.152-0.826 0.152-0.249 0-0.462-0.055-0.213-0.061-0.376-0.17t-0.279-0.279q-0.109-0.176-0.152-0.401-0.243 0.243-0.474 0.419-0.225 0.17-0.443 0.279t-0.431 0.158q-0.206 0.049-0.407 0.049-0.261 0-0.462-0.049-0.2-0.055-0.358-0.152-0.152-0.103-0.261-0.249t-0.182-0.328-0.103-0.401-0.030-0.474q0-0.261 0.043-0.595 0.042-0.34 0.14-0.698t0.267-0.698q0.17-0.346 0.419-0.613 0.255-0.273 0.601-0.437 0.346-0.17 0.808-0.17 0.194 0 0.37 0.049 0.182 0.042 0.346 0.14t0.316 0.243 0.31 0.346l0.103-0.534q0.024-0.085 0.109-0.128t0.316-0.042q0.109 0 0.182 0.012 0.079 0.012 0.121 0.036 0.043 0.018 0.055 0.049 0.018 0.030 0.006 0.073l-0.54 2.793q-0.097 0.528 0.049 0.783 0.146 0.249 0.553 0.249 0.249 0 0.449-0.121 0.2-0.128 0.352-0.34t0.255-0.492q0.103-0.285 0.17-0.595 0.067-0.316 0.097-0.644t0.030-0.632q0-0.528-0.146-1.002-0.14-0.48-0.486-0.838-0.346-0.364-0.929-0.577-0.577-0.219-1.451-0.219-0.717 0-1.275 0.158t-0.984 0.431q-0.425 0.267-0.729 0.619t-0.516 0.753q-0.206 0.395-0.334 0.814-0.128 0.413-0.194 0.802-0.067 0.383-0.091 0.723-0.018 0.34-0.018 0.577 0 0.674 0.152 1.233 0.158 0.559 0.54 0.966t1.026 0.632 1.621 0.225q0.443 0 0.802-0.055 0.358-0.049 0.619-0.109 0.267-0.055 0.431-0.109 0.164-0.049 0.225-0.049 0.036 0 0.061 0.018 0.030 0.024 0.043 0.067 0.018 0.049 0.024 0.115 0.006 0.073 0.006 0.176 0 0.085-0.006 0.14 0 0.055-0.012 0.097-0.012 0.049-0.036 0.085-0.018 0.036-0.055 0.067t-0.213 0.091q-0.17 0.061-0.468 0.121-0.291 0.061-0.686 0.103t-0.868 0.043q-1.136 0-1.925-0.267-0.783-0.267-1.281-0.765-0.492-0.498-0.71-1.196t-0.219-1.561q0-0.316 0.030-0.723 0.036-0.413 0.128-0.874 0.097-0.468 0.267-0.947 0.17-0.486 0.437-0.947 0.273-0.462 0.656-0.868 0.389-0.413 0.911-0.717 0.528-0.31 1.202-0.486 0.68-0.176 1.536-0.176 0.996 0 1.719 0.243 0.729 0.237 1.202 0.674t0.704 1.069q0.231 0.625 0.231 1.397zM10.2 8.311q-0.231-0.389-0.474-0.595t-0.553-0.206q-0.255 0-0.462 0.128-0.206 0.121-0.358 0.322-0.152 0.194-0.261 0.443-0.103 0.249-0.17 0.51t-0.097 0.51q-0.024 0.243-0.024 0.431 0 0.449 0.158 0.692 0.164 0.243 0.547 0.243 0.146 0 0.298-0.049 0.152-0.055 0.322-0.158 0.17-0.109 0.358-0.279 0.194-0.176 0.425-0.413z"></path>
</svg>
