<!-- Generated by IcoMoon.io -->
<svg version="1.1" xmlns="http://www.w3.org/2000/svg" width="20" height="20" viewBox="0 0 20 20">
<title>tools-alarm-new</title>
<path fill="#00AEEF" d="M9.5 1c-0.827 0-1.5 0.673-1.5 1.5v0.707c-2.306 0.655-4 2.78-4 5.293v3c0 1.429-0.657 2.742-1.801 3.602-0.172 0.129-0.242 0.353-0.174 0.557s0.26 0.344 0.475 0.344h4.551c-0.033 0.164-0.053 0.331-0.053 0.5 0 1.378 1.122 2.5 2.5 2.5s2.5-1.122 2.5-2.5c0-0.168-0.016-0.336-0.049-0.5h4.549c0.215 0 0.407-0.14 0.475-0.344s-0.002-0.428-0.174-0.557c-1.143-0.859-1.799-2.173-1.799-3.602v-1.478c0.028-0.8-0.972-0.745-1 0v1.478c0 0.88 0.203 1.72 0.6 2.498 0.182 0.356 0.403 0.693 0.658 1.002h-11.516c0.255-0.309 0.476-0.647 0.658-1.002 0.398-0.778 0.6-1.618 0.6-2.498v-3c0-2.481 2.019-4.5 4.5-4.5 1.359 0.038 1.362 0.16 1.504-0.791-0.001-0-0.003-0.002-0.004-0.002v-0.707c0-0.827-0.673-1.5-1.5-1.5zM9.5 2c0.276 0 0.5 0.224 0.5 0.5v0.523c-0.165-0.015-0.331-0.023-0.5-0.023s-0.335 0.008-0.5 0.023v-0.523c0-0.276 0.224-0.5 0.5-0.5zM8.086 16h2.828c0.056 0.16 0.086 0.329 0.086 0.5 0 0.827-0.673 1.5-1.5 1.5s-1.5-0.673-1.5-1.5c0-0.171 0.030-0.34 0.086-0.5z"></path>
<path fill="#00AEEF" d="M19.403 3.352h-2.733v-2.733c0-0.302-0.245-0.547-0.547-0.547s-0.547 0.245-0.547 0.547v2.733h-2.733c-0.302 0-0.547 0.245-0.547 0.547s0.245 0.547 0.547 0.547h2.733v2.733c0 0.302 0.245 0.547 0.547 0.547s0.547-0.245 0.547-0.547v-2.733h2.733c0.302 0 0.547-0.245 0.547-0.547s-0.245-0.547-0.547-0.547z"></path>
</svg>
