<!-- Generated by IcoMoon.io -->
<svg version="1.1" xmlns="http://www.w3.org/2000/svg" width="20" height="20" viewBox="0 0 20 20">
<title>tools-alarms</title>
<path fill="#00AEEF" d="M13.946 16.305c-1.071-0.804-1.685-2.034-1.685-3.372v-2.809c0-2.353-1.586-4.343-3.745-4.955v-0.663c0-0.774-0.63-1.404-1.404-1.404s-1.404 0.63-1.404 1.404v0.663c-2.159 0.613-3.745 2.602-3.745 4.955v2.809c0 1.338-0.614 2.566-1.685 3.372-0.161 0.121-0.227 0.331-0.163 0.522s0.243 0.32 0.444 0.32h4.26c-0.031 0.154-0.048 0.31-0.048 0.468 0 1.29 1.051 2.341 2.341 2.341s2.341-1.051 2.341-2.341c0-0.157-0.016-0.315-0.047-0.468h4.26c0.201 0 0.38-0.129 0.444-0.32s-0.002-0.402-0.163-0.522zM6.643 4.507c0-0.258 0.21-0.468 0.468-0.468s0.468 0.21 0.468 0.468v0.49c-0.154-0.014-0.31-0.022-0.468-0.022s-0.314 0.007-0.468 0.022zM8.516 17.615c0 0.774-0.63 1.404-1.404 1.404s-1.404-0.63-1.404-1.404c0-0.16 0.028-0.318 0.081-0.468h2.648c0.052 0.15 0.081 0.308 0.081 0.468zM1.72 16.211c0.239-0.289 0.447-0.605 0.617-0.937 0.373-0.728 0.561-1.516 0.561-2.34v-2.809c0-2.323 1.89-4.213 4.213-4.213s4.213 1.89 4.213 4.213v2.809c0 0.824 0.189 1.611 0.561 2.34 0.17 0.333 0.378 0.648 0.617 0.937h-10.783z"></path>
<path fill="#00AEEF" d="M10.258 1.572c-0.774 0-1.406 0.63-1.406 1.404v0.664c-0.303 0.086-0.589 0.206-0.867 0.344l0.174 0.537 0.074 0.402c0.604-0.335 1.288-0.541 2.025-0.541 2.323 0 4.213 1.89 4.213 4.213v2.809c0 0.824 0.189 1.611 0.561 2.34 0.17 0.333 0.378 0.648 0.617 0.938h-3.455l0.551 0.936h4.066c0.201 0 0.38-0.127 0.443-0.318s-0.003-0.403-0.164-0.523c-1.070-0.804-1.684-2.034-1.684-3.371v-2.809c0-2.353-1.585-4.343-3.744-4.955v-0.664c0-0.774-0.63-1.404-1.404-1.404zM10.258 2.51c0.258 0 0.467 0.208 0.467 0.467v0.49c-0.154-0.014-0.309-0.021-0.467-0.021s-0.314 0.007-0.469 0.021v-0.49c0-0.258 0.21-0.467 0.469-0.467z"></path>
<path fill="#00AEEF" d="M12.961-0.035c-0.774 0-1.404 0.63-1.404 1.404v0.662c-0.185 0.053-0.359 0.129-0.535 0.201l0.203 0.926c0.531-0.242 1.116-0.385 1.736-0.385 2.323 0 4.213 1.89 4.213 4.213v2.809c0 0.824 0.189 1.611 0.561 2.34 0.17 0.333 0.378 0.648 0.617 0.938h-3.045l0.055 0.309 0.389 0.629h3.764c0.201 0 0.38-0.129 0.443-0.32s-0.001-0.401-0.162-0.521c-1.071-0.804-1.684-2.035-1.684-3.373v-2.809c0-2.353-1.587-4.343-3.746-4.955v-0.662c0-0.774-0.63-1.404-1.404-1.404zM12.961 0.9c0.258 0 0.469 0.21 0.469 0.469v0.49c-0.154-0.014-0.311-0.021-0.469-0.021s-0.314 0.007-0.469 0.021v-0.49c0-0.258 0.21-0.469 0.469-0.469z"></path>
</svg>
