<!-- Generated by IcoMoon.io -->
<svg version="1.1" xmlns="http://www.w3.org/2000/svg" width="20" height="20" viewBox="0 0 20 20">
<title>user-delegate</title>
<path fill="#00AEEF" d="M12.316 1.955c-1.225 0-2.335 0.501-3.137 1.309-0.511 0.365 0.051 1.158 0.557 0.584 0.657-0.669 1.57-1.088 2.58-1.088 1.996 0 3.619 1.625 3.619 3.621 0 1.172-0.567 2.203-1.434 2.865-0.595 0.404-0.095 0.965 0.488 0.635 1.057-0.809 1.75-2.069 1.75-3.5 0-2.44-1.984-4.426-4.424-4.426z"></path>
<path fill="#00AEEF" d="M14.072 11.727c-0.502-0.119-0.755 0.655-0.105 0.795 1.969 0.25 3.456 0.962 4.336 2.109 0.833 1.087 0.852 2.197 0.852 2.207 0 0.222-0.18 0.402-0.402 0.402h-11.375c-0.679 0-0.632 0.805 0.012 0.805h11.363c0.665 0 1.207-0.542 1.207-1.207 0-0.055-0.012-1.355-0.986-2.654-0.567-0.756-1.342-1.356-2.307-1.785-0.748-0.333-1.625-0.549-2.594-0.672z"></path>
<path fill="#00AEEF" d="M6.652 5.092c-0.405-0.345-1.133 0.295-0.717 0.695l3.885 3.885h-9.041c-0.569 0.018-0.518 1 0 1h9.041l-3.867 3.867c-0.351 0.417 0.298 1.117 0.682 0.732l4.746-4.746c0.195-0.195 0.194-0.51 0-0.705v-0.002z"></path>
</svg>
