<!-- Generated by IcoMoon.io -->
<svg version="1.1" xmlns="http://www.w3.org/2000/svg" width="20" height="20" viewBox="0 0 20 20">
<title>filetype-txt</title>
<path fill="#333333" d="M15.836 1.373h-11.672c-0.358 0-0.648-0.291-0.648-0.648s0.291-0.648 0.648-0.648h11.672c0.358 0 0.648 0.291 0.648 0.648s-0.291 0.648-0.648 0.648z"></path>
<path fill="#333333" d="M15.836 4.038h-11.672c-0.358 0-0.648-0.291-0.648-0.648s0.291-0.648 0.648-0.648h11.672c0.358 0 0.648 0.291 0.648 0.648s-0.291 0.648-0.648 0.648z"></path>
<path fill="#333333" d="M10.648 6.703h-6.484c-0.358 0-0.648-0.291-0.648-0.648s0.291-0.648 0.648-0.648h6.484c0.358 0 0.648 0.291 0.648 0.648s-0.291 0.648-0.648 0.648z"></path>
<path fill="#333333" d="M15.836 9.369h-11.672c-0.358 0-0.648-0.291-0.648-0.648s0.291-0.648 0.648-0.648h11.672c0.358 0 0.648 0.291 0.648 0.648s-0.291 0.648-0.648 0.648z"></path>
<path fill="#333333" d="M13.242 12.034h-9.078c-0.358 0-0.648-0.291-0.648-0.648s0.291-0.648 0.648-0.648h9.078c0.358 0 0.648 0.291 0.648 0.648s-0.291 0.648-0.648 0.648z"></path>
<path fill="#333333" d="M6.954 15.103h-1.254v4.122q0 0.356-0.159 0.53-0.159 0.17-0.41 0.17-0.255 0-0.418-0.174-0.159-0.174-0.159-0.526v-4.122h-1.254q-0.294 0-0.437-0.128-0.143-0.132-0.143-0.344 0-0.221 0.147-0.348 0.151-0.128 0.433-0.128h3.653q0.298 0 0.441 0.132 0.147 0.132 0.147 0.344t-0.147 0.344q-0.147 0.128-0.441 0.128z"></path>
<path fill="#333333" d="M8.015 18.725l1.269-1.854-1.068-1.649q-0.151-0.24-0.228-0.41-0.074-0.174-0.074-0.333 0-0.163 0.143-0.29 0.147-0.132 0.356-0.132 0.24 0 0.372 0.143 0.135 0.139 0.372 0.522l0.851 1.378 0.909-1.378q0.112-0.174 0.19-0.298 0.081-0.124 0.155-0.205t0.163-0.12q0.093-0.043 0.213-0.043 0.217 0 0.352 0.132 0.139 0.128 0.139 0.306 0 0.259-0.298 0.704l-1.118 1.672 1.204 1.854q0.163 0.244 0.236 0.406 0.074 0.159 0.074 0.302 0 0.135-0.066 0.248t-0.186 0.178-0.271 0.066q-0.163 0-0.275-0.070-0.112-0.066-0.182-0.166t-0.259-0.391l-0.998-1.571-1.060 1.618q-0.124 0.193-0.178 0.271-0.050 0.077-0.124 0.151t-0.174 0.116-0.236 0.043q-0.209 0-0.348-0.128-0.135-0.128-0.135-0.372 0-0.286 0.283-0.7z"></path>
<path fill="#333333" d="M16.691 15.103h-1.254v4.122q0 0.356-0.159 0.53-0.159 0.17-0.41 0.17-0.255 0-0.418-0.174-0.159-0.174-0.159-0.526v-4.122h-1.254q-0.294 0-0.437-0.128-0.143-0.132-0.143-0.344 0-0.221 0.147-0.348 0.151-0.128 0.433-0.128h3.653q0.298 0 0.441 0.132 0.147 0.132 0.147 0.344t-0.147 0.344q-0.147 0.128-0.441 0.128z"></path>
</svg>
