<!-- Generated by IcoMoon.io -->
<svg version="1.1" xmlns="http://www.w3.org/2000/svg" width="20" height="20" viewBox="0 0 20 20">
<title>filetype-xml</title>
<path fill="#333333" d="M6.539 9.072c-0.089 0-0.177-0.034-0.245-0.101l-2.769-2.769c-0.135-0.135-0.135-0.354 0-0.489l2.769-2.769c0.135-0.135 0.354-0.135 0.489 0s0.135 0.354 0 0.489l-2.524 2.524 2.524 2.524c0.135 0.135 0.135 0.354 0 0.489-0.068 0.068-0.156 0.101-0.245 0.101z"></path>
<path fill="#333333" d="M13.462 9.072c-0.089 0-0.177-0.034-0.245-0.101-0.135-0.135-0.135-0.354 0-0.489l2.524-2.524-2.524-2.524c-0.135-0.135-0.135-0.354 0-0.489s0.354-0.135 0.489 0l2.769 2.769c0.135 0.135 0.135 0.354 0 0.489l-2.769 2.769c-0.068 0.068-0.156 0.101-0.245 0.101z"></path>
<path fill="#333333" d="M8.269 9.072c-0.063 0-0.126-0.017-0.183-0.053-0.162-0.101-0.211-0.315-0.11-0.477l3.462-5.539c0.101-0.162 0.315-0.211 0.477-0.11s0.211 0.315 0.11 0.477l-3.462 5.539c-0.066 0.105-0.179 0.163-0.294 0.163z"></path>
<path fill="#333333" d="M2.034 18.701l1.317-1.924-1.108-1.711q-0.157-0.249-0.237-0.426-0.076-0.181-0.076-0.345 0-0.169 0.149-0.301 0.153-0.137 0.369-0.137 0.249 0 0.386 0.149 0.141 0.145 0.386 0.542l0.884 1.43 0.944-1.43q0.116-0.181 0.197-0.309 0.084-0.129 0.161-0.213t0.169-0.125q0.096-0.044 0.221-0.044 0.225 0 0.365 0.137 0.145 0.133 0.145 0.317 0 0.269-0.309 0.731l-1.161 1.735 1.249 1.924q0.169 0.253 0.245 0.422 0.076 0.165 0.076 0.313 0 0.141-0.068 0.257t-0.193 0.185-0.281 0.068q-0.169 0-0.285-0.072-0.116-0.068-0.189-0.173t-0.269-0.406l-1.036-1.631-1.1 1.679q-0.129 0.201-0.185 0.281-0.052 0.080-0.129 0.157t-0.181 0.12-0.245 0.044q-0.217 0-0.361-0.133-0.141-0.133-0.141-0.386 0-0.297 0.293-0.727z"></path>
<path fill="#333333" d="M9.203 18.958l-0.944-3.751v4.065q0 0.337-0.153 0.506-0.149 0.169-0.398 0.169-0.241 0-0.394-0.165-0.153-0.169-0.153-0.51v-4.659q0-0.386 0.201-0.518 0.201-0.137 0.542-0.137h0.369q0.333 0 0.482 0.060 0.153 0.060 0.225 0.217t0.165 0.51l0.855 3.225 0.855-3.225q0.092-0.353 0.165-0.51t0.221-0.217q0.153-0.060 0.486-0.060h0.369q0.341 0 0.542 0.137 0.201 0.133 0.201 0.518v4.659q0 0.337-0.153 0.506-0.149 0.169-0.402 0.169-0.237 0-0.39-0.169t-0.153-0.506v-4.065l-0.944 3.751q-0.092 0.365-0.153 0.538-0.056 0.169-0.213 0.309t-0.434 0.141q-0.209 0-0.353-0.092-0.145-0.088-0.225-0.229t-0.129-0.309q-0.044-0.173-0.092-0.357z"></path>
<path fill="#333333" d="M15.243 14.581v4.285h2.418q0.289 0 0.442 0.141 0.157 0.141 0.157 0.353 0 0.217-0.153 0.353-0.153 0.133-0.446 0.133h-2.88q-0.39 0-0.562-0.173-0.169-0.173-0.169-0.558v-4.534q0-0.361 0.161-0.542 0.165-0.181 0.43-0.181 0.269 0 0.434 0.181 0.169 0.177 0.169 0.542z"></path>
</svg>
