<!-- Generated by IcoMoon.io -->
<svg version="1.1" xmlns="http://www.w3.org/2000/svg" width="20" height="20" viewBox="0 0 20 20">
<title>filetype-msg</title>
<path fill="#333333" d="M3.234 1.944c-0.7 0-1.269 0.57-1.269 1.269v7.613c0 0.7 0.57 1.269 1.269 1.269h13.534c0.7 0 1.268-0.57 1.268-1.269v-7.613c0-0.7-0.568-1.269-1.268-1.269zM3.234 2.79h13.534c0.025 0 0.049 0.002 0.074 0.006l-2.037 1.358c-0.361 0.259 0.073 0.949 0.418 0.736l1.968-1.311v7.246c0 0.233-0.19 0.423-0.423 0.423h-13.534c-0.233 0-0.423-0.19-0.423-0.423v-7.246l1.918 1.278c0.411 0.236 0.882-0.342 0.431-0.73l-1.999-1.332c0.024-0.004 0.048-0.006 0.074-0.006z"></path>
<path fill="#333333" d="M13.619 5.911q0 0.331-0.044 0.677-0.039 0.346-0.132 0.672t-0.244 0.619q-0.151 0.287-0.37 0.507t-0.511 0.346q-0.287 0.122-0.662 0.122-0.2 0-0.37-0.044-0.171-0.049-0.302-0.136t-0.224-0.224q-0.088-0.141-0.122-0.322-0.195 0.195-0.38 0.336-0.18 0.136-0.356 0.224t-0.346 0.127q-0.166 0.039-0.326 0.039-0.209 0-0.37-0.039-0.161-0.044-0.287-0.122-0.122-0.083-0.209-0.2t-0.146-0.263-0.083-0.322-0.024-0.38q0-0.209 0.034-0.477 0.034-0.273 0.112-0.56t0.214-0.56q0.136-0.278 0.336-0.492 0.205-0.219 0.482-0.351 0.278-0.136 0.648-0.136 0.156 0 0.297 0.039 0.146 0.034 0.278 0.112t0.253 0.195 0.248 0.278l0.083-0.429q0.019-0.068 0.088-0.102t0.253-0.034q0.088 0 0.146 0.010 0.063 0.010 0.097 0.029 0.034 0.015 0.044 0.039 0.015 0.024 0.005 0.058l-0.434 2.241q-0.078 0.424 0.039 0.628 0.117 0.2 0.443 0.2 0.2 0 0.36-0.097 0.161-0.102 0.283-0.273t0.205-0.395q0.083-0.229 0.136-0.477 0.054-0.253 0.078-0.516t0.024-0.507q0-0.424-0.117-0.804-0.112-0.385-0.39-0.672-0.278-0.292-0.745-0.463-0.463-0.175-1.164-0.175-0.575 0-1.023 0.127t-0.789 0.346q-0.341 0.214-0.585 0.497t-0.414 0.604q-0.166 0.317-0.268 0.653-0.102 0.331-0.156 0.643-0.054 0.307-0.073 0.58-0.015 0.273-0.015 0.463 0 0.541 0.122 0.989 0.127 0.448 0.434 0.775t0.823 0.507 1.301 0.18q0.356 0 0.643-0.044 0.287-0.039 0.497-0.088 0.214-0.044 0.346-0.088 0.132-0.039 0.18-0.039 0.029 0 0.049 0.015 0.024 0.019 0.034 0.054 0.015 0.039 0.019 0.093 0.005 0.058 0.005 0.141 0 0.068-0.005 0.112 0 0.044-0.010 0.078-0.010 0.039-0.029 0.068-0.015 0.029-0.044 0.054t-0.17 0.073q-0.136 0.049-0.375 0.097-0.234 0.049-0.55 0.083t-0.697 0.034q-0.911 0-1.544-0.214-0.628-0.214-1.028-0.614-0.395-0.399-0.57-0.96t-0.175-1.252q0-0.253 0.024-0.58 0.029-0.331 0.102-0.701 0.078-0.375 0.214-0.76 0.136-0.39 0.351-0.76 0.219-0.37 0.526-0.697 0.312-0.331 0.731-0.575 0.424-0.248 0.965-0.39 0.546-0.141 1.232-0.141 0.799 0 1.379 0.195 0.585 0.19 0.964 0.541t0.565 0.857q0.185 0.502 0.185 1.12zM10.794 6.228q-0.185-0.312-0.38-0.477t-0.443-0.166q-0.205 0-0.37 0.102-0.166 0.097-0.287 0.258-0.122 0.156-0.209 0.356-0.083 0.2-0.136 0.409t-0.078 0.409q-0.019 0.195-0.019 0.346 0 0.36 0.127 0.555 0.132 0.195 0.438 0.195 0.117 0 0.239-0.039 0.122-0.044 0.258-0.127 0.136-0.088 0.287-0.224 0.156-0.141 0.341-0.331z"></path>
<path fill="#333333" d="M3.336 18.997l-0.918-3.648v3.953q0 0.328-0.148 0.492-0.145 0.164-0.387 0.164-0.234 0-0.383-0.16-0.148-0.164-0.148-0.496v-4.531q0-0.375 0.195-0.504 0.195-0.133 0.527-0.133h0.359q0.324 0 0.469 0.059 0.148 0.059 0.219 0.211t0.16 0.496l0.832 3.137 0.832-3.137q0.090-0.344 0.16-0.496t0.215-0.211q0.148-0.059 0.473-0.059h0.359q0.332 0 0.527 0.133 0.195 0.129 0.195 0.504v4.531q0 0.328-0.148 0.492-0.145 0.164-0.391 0.164-0.23 0-0.379-0.164t-0.148-0.492v-3.953l-0.918 3.648q-0.090 0.355-0.148 0.523-0.055 0.164-0.207 0.301t-0.422 0.137q-0.203 0-0.344-0.090-0.141-0.086-0.219-0.223t-0.125-0.301q-0.043-0.168-0.090-0.348z"></path>
<path fill="#333333" d="M12.426 18.141q0 0.52-0.27 0.934-0.266 0.414-0.781 0.648t-1.223 0.234q-0.848 0-1.398-0.32-0.391-0.23-0.637-0.613-0.242-0.387-0.242-0.75 0-0.211 0.145-0.359 0.148-0.152 0.375-0.152 0.184 0 0.309 0.117 0.129 0.117 0.219 0.348 0.109 0.273 0.234 0.457 0.129 0.184 0.359 0.305 0.23 0.117 0.605 0.117 0.516 0 0.836-0.238 0.324-0.242 0.324-0.602 0-0.285-0.176-0.461-0.172-0.18-0.449-0.273-0.273-0.094-0.734-0.199-0.617-0.145-1.035-0.336-0.414-0.195-0.66-0.527-0.242-0.336-0.242-0.832 0-0.473 0.258-0.84t0.746-0.562q0.488-0.199 1.148-0.199 0.527 0 0.91 0.133 0.387 0.129 0.641 0.348 0.254 0.215 0.371 0.453t0.117 0.465q0 0.207-0.148 0.375-0.145 0.164-0.363 0.164-0.199 0-0.305-0.098-0.102-0.102-0.223-0.328-0.156-0.324-0.375-0.504-0.219-0.184-0.703-0.184-0.449 0-0.727 0.199-0.273 0.195-0.273 0.473 0 0.172 0.094 0.297t0.258 0.215 0.332 0.141 0.555 0.148q0.484 0.113 0.875 0.25 0.395 0.137 0.668 0.332 0.277 0.195 0.43 0.496 0.156 0.297 0.156 0.73z"></path>
<path fill="#333333" d="M18.648 17.532v1.098q0 0.219-0.043 0.352-0.043 0.129-0.16 0.234-0.113 0.105-0.293 0.203-0.52 0.281-1 0.41t-1.047 0.129q-0.66 0-1.203-0.203t-0.926-0.59-0.59-0.938q-0.203-0.551-0.203-1.231 0-0.668 0.199-1.223t0.586-0.941 0.941-0.59q0.555-0.207 1.258-0.207 0.578 0 1.023 0.156 0.445 0.152 0.723 0.387t0.418 0.496 0.141 0.465q0 0.219-0.164 0.375-0.16 0.152-0.387 0.152-0.125 0-0.242-0.059-0.113-0.059-0.191-0.164-0.215-0.336-0.363-0.508t-0.402-0.289q-0.25-0.117-0.641-0.117-0.402 0-0.719 0.141-0.316 0.137-0.543 0.402-0.223 0.262-0.344 0.645-0.117 0.383-0.117 0.848 0 1.008 0.461 1.551 0.465 0.543 1.293 0.543 0.402 0 0.754-0.105 0.355-0.105 0.719-0.301v-0.93h-0.898q-0.324 0-0.492-0.098-0.164-0.098-0.164-0.332 0-0.191 0.137-0.316 0.141-0.125 0.379-0.125h1.316q0.242 0 0.41 0.043t0.27 0.191q0.105 0.148 0.105 0.445z"></path>
</svg>
