<!-- Generated by IcoMoon.io -->
<svg version="1.1" xmlns="http://www.w3.org/2000/svg" width="20" height="20" viewBox="0 0 20 20">
<title>filetype-eml</title>
<path fill="#333333" d="M3.234 1.944c-0.7 0-1.269 0.57-1.269 1.269v7.613c0 0.7 0.57 1.269 1.269 1.269h13.534c0.7 0 1.268-0.57 1.268-1.269v-7.613c0-0.7-0.568-1.269-1.268-1.269zM3.234 2.79h13.534c0.025 0 0.049 0.002 0.074 0.006l-2.037 1.358c-0.361 0.259 0.073 0.949 0.418 0.736l1.968-1.311v7.246c0 0.233-0.19 0.423-0.423 0.423h-13.534c-0.233 0-0.423-0.19-0.423-0.423v-7.246l1.918 1.278c0.411 0.236 0.882-0.342 0.431-0.73l-1.999-1.332c0.024-0.004 0.048-0.006 0.074-0.006z"></path>
<path fill="#333333" d="M13.619 5.911q0 0.331-0.044 0.677-0.039 0.346-0.132 0.672t-0.244 0.619q-0.151 0.287-0.37 0.507t-0.511 0.346q-0.287 0.122-0.662 0.122-0.2 0-0.37-0.044-0.171-0.049-0.302-0.136t-0.224-0.224q-0.088-0.141-0.122-0.322-0.195 0.195-0.38 0.336-0.18 0.136-0.356 0.224t-0.346 0.127q-0.166 0.039-0.326 0.039-0.209 0-0.37-0.039-0.161-0.044-0.287-0.122-0.122-0.083-0.209-0.2t-0.146-0.263-0.083-0.322-0.024-0.38q0-0.209 0.034-0.477 0.034-0.273 0.112-0.56t0.214-0.56q0.136-0.278 0.336-0.492 0.205-0.219 0.482-0.351 0.278-0.136 0.648-0.136 0.156 0 0.297 0.039 0.146 0.034 0.278 0.112t0.253 0.195 0.248 0.278l0.083-0.429q0.019-0.068 0.088-0.102t0.253-0.034q0.088 0 0.146 0.010 0.063 0.010 0.097 0.029 0.034 0.015 0.044 0.039 0.015 0.024 0.005 0.058l-0.434 2.241q-0.078 0.424 0.039 0.628 0.117 0.2 0.443 0.2 0.2 0 0.36-0.097 0.161-0.102 0.283-0.273t0.205-0.395q0.083-0.229 0.136-0.477 0.054-0.253 0.078-0.516t0.024-0.507q0-0.424-0.117-0.804-0.112-0.385-0.39-0.672-0.278-0.292-0.745-0.463-0.463-0.175-1.164-0.175-0.575 0-1.023 0.127t-0.789 0.346q-0.341 0.214-0.585 0.497t-0.414 0.604q-0.166 0.317-0.268 0.653-0.102 0.331-0.156 0.643-0.054 0.307-0.073 0.58-0.015 0.273-0.015 0.463 0 0.541 0.122 0.989 0.127 0.448 0.434 0.775t0.823 0.507 1.301 0.18q0.356 0 0.643-0.044 0.287-0.039 0.497-0.088 0.214-0.044 0.346-0.088 0.132-0.039 0.18-0.039 0.029 0 0.049 0.015 0.024 0.019 0.034 0.054 0.015 0.039 0.019 0.093 0.005 0.058 0.005 0.141 0 0.068-0.005 0.112 0 0.044-0.010 0.078-0.010 0.039-0.029 0.068-0.015 0.029-0.044 0.054t-0.17 0.073q-0.136 0.049-0.375 0.097-0.234 0.049-0.55 0.083t-0.697 0.034q-0.911 0-1.544-0.214-0.628-0.214-1.028-0.614-0.395-0.399-0.57-0.96t-0.175-1.252q0-0.253 0.024-0.58 0.029-0.331 0.102-0.701 0.078-0.375 0.214-0.76 0.136-0.39 0.351-0.76 0.219-0.37 0.526-0.697 0.312-0.331 0.731-0.575 0.424-0.248 0.965-0.39 0.546-0.141 1.232-0.141 0.799 0 1.379 0.195 0.585 0.19 0.964 0.541t0.565 0.857q0.185 0.502 0.185 1.12zM10.794 6.228q-0.185-0.312-0.38-0.477t-0.443-0.166q-0.205 0-0.37 0.102-0.166 0.097-0.287 0.258-0.122 0.156-0.209 0.356-0.083 0.2-0.136 0.409t-0.078 0.409q-0.019 0.195-0.019 0.346 0 0.36 0.127 0.555 0.132 0.195 0.438 0.195 0.117 0 0.239-0.039 0.122-0.044 0.258-0.127 0.136-0.088 0.287-0.224 0.156-0.141 0.341-0.331z"></path>
<path fill="#333333" d="M5.879 15.196h-2.522v1.357h2.322q0.256 0 0.381 0.117 0.128 0.113 0.128 0.302t-0.124 0.309q-0.124 0.117-0.385 0.117h-2.322v1.572h2.609q0.264 0 0.396 0.124 0.136 0.121 0.136 0.324 0 0.196-0.136 0.32-0.132 0.121-0.396 0.121h-3.043q-0.366 0-0.528-0.162-0.158-0.162-0.158-0.524v-4.155q0-0.241 0.072-0.392 0.072-0.155 0.222-0.222 0.155-0.072 0.392-0.072h2.956q0.268 0 0.396 0.121 0.132 0.117 0.132 0.309 0 0.196-0.132 0.317-0.128 0.117-0.396 0.117z"></path>
<path fill="#333333" d="M9.261 19.027l-0.886-3.521v3.815q0 0.317-0.143 0.475-0.139 0.158-0.373 0.158-0.226 0-0.369-0.155-0.143-0.158-0.143-0.479v-4.373q0-0.362 0.189-0.486 0.189-0.128 0.509-0.128h0.347q0.313 0 0.452 0.057 0.143 0.057 0.211 0.204t0.155 0.479l0.803 3.027 0.803-3.027q0.087-0.332 0.155-0.479t0.207-0.204q0.143-0.057 0.456-0.057h0.347q0.32 0 0.509 0.128 0.189 0.124 0.189 0.486v4.373q0 0.317-0.143 0.475-0.139 0.158-0.377 0.158-0.222 0-0.366-0.158t-0.143-0.475v-3.815l-0.886 3.521q-0.087 0.343-0.143 0.505-0.053 0.158-0.2 0.29t-0.407 0.132q-0.196 0-0.332-0.087-0.136-0.083-0.211-0.215t-0.121-0.29q-0.041-0.162-0.087-0.336z"></path>
<path fill="#333333" d="M14.931 14.917v4.023h2.27q0.271 0 0.415 0.132 0.147 0.132 0.147 0.332 0 0.204-0.143 0.332-0.143 0.124-0.418 0.124h-2.703q-0.366 0-0.528-0.162-0.158-0.162-0.158-0.524v-4.257q0-0.339 0.151-0.509 0.155-0.17 0.403-0.17 0.253 0 0.407 0.17 0.158 0.166 0.158 0.509z"></path>
</svg>
