<!-- Generated by IcoMoon.io -->
<svg version="1.1" xmlns="http://www.w3.org/2000/svg" width="20" height="20" viewBox="0 0 20 20">
<title>filetype-xlsx</title>
<path fill="#333333" d="M13.499 9.188l-2.541-3.324 2.237-2.907h-2.189l-1.065 1.581-1-1.581h-2.151l2.134 2.907-2.643 3.324h2.13l1.52-2.046 1.447 2.046h2.121zM16.297 12.028h-12.594v-12.028h12.594zM4.913 10.818h10.172v-9.607h-10.172z"></path>
<path fill="#333333" d="M0.933 18.769l1.246-1.819-1.048-1.618q-0.148-0.235-0.224-0.403-0.072-0.171-0.072-0.327 0-0.16 0.141-0.285 0.144-0.129 0.349-0.129 0.235 0 0.365 0.141 0.133 0.137 0.365 0.513l0.835 1.352 0.892-1.352q0.11-0.171 0.186-0.292 0.080-0.122 0.152-0.201t0.16-0.118q0.091-0.042 0.209-0.042 0.213 0 0.346 0.129 0.137 0.125 0.137 0.3 0 0.254-0.292 0.691l-1.098 1.641 1.181 1.819q0.16 0.239 0.232 0.399 0.072 0.156 0.072 0.296 0 0.133-0.065 0.243t-0.182 0.175-0.266 0.065q-0.16 0-0.27-0.068-0.11-0.065-0.178-0.163t-0.254-0.384l-0.98-1.542-1.041 1.587q-0.122 0.19-0.175 0.266-0.049 0.076-0.122 0.148t-0.171 0.114-0.232 0.042q-0.205 0-0.342-0.125-0.133-0.125-0.133-0.365 0-0.281 0.277-0.687z"></path>
<path fill="#333333" d="M6.937 14.872v4.052h2.286q0.273 0 0.418 0.133 0.148 0.133 0.148 0.334 0 0.205-0.144 0.334-0.144 0.125-0.422 0.125h-2.723q-0.368 0-0.532-0.163-0.16-0.163-0.16-0.528v-4.288q0-0.342 0.152-0.513 0.156-0.171 0.406-0.171 0.254 0 0.41 0.171 0.16 0.167 0.16 0.513z"></path>
<path fill="#333333" d="M14.456 18.181q0 0.505-0.262 0.908-0.258 0.403-0.76 0.63t-1.189 0.228q-0.824 0-1.36-0.311-0.38-0.224-0.619-0.596-0.235-0.376-0.235-0.729 0-0.205 0.141-0.349 0.144-0.148 0.365-0.148 0.178 0 0.3 0.114 0.125 0.114 0.213 0.338 0.106 0.266 0.228 0.444 0.125 0.178 0.349 0.296 0.224 0.114 0.589 0.114 0.501 0 0.813-0.232 0.315-0.235 0.315-0.585 0-0.277-0.171-0.448-0.167-0.175-0.437-0.266-0.266-0.091-0.714-0.194-0.6-0.141-1.006-0.327-0.403-0.19-0.642-0.513-0.235-0.327-0.235-0.809 0-0.46 0.251-0.817t0.725-0.547q0.475-0.194 1.117-0.194 0.513 0 0.885 0.129 0.376 0.125 0.623 0.338 0.247 0.209 0.361 0.441t0.114 0.452q0 0.201-0.144 0.365-0.141 0.16-0.353 0.16-0.194 0-0.296-0.095-0.099-0.099-0.216-0.319-0.152-0.315-0.365-0.49-0.213-0.178-0.684-0.178-0.437 0-0.706 0.194-0.266 0.19-0.266 0.46 0 0.167 0.091 0.289t0.251 0.209 0.323 0.137 0.539 0.144q0.471 0.11 0.851 0.243 0.384 0.133 0.649 0.323 0.27 0.19 0.418 0.482 0.152 0.289 0.152 0.71z"></path>
<path fill="#333333" d="M15.212 18.769l1.246-1.819-1.048-1.618q-0.148-0.235-0.224-0.403-0.072-0.171-0.072-0.327 0-0.16 0.141-0.285 0.144-0.129 0.349-0.129 0.235 0 0.365 0.141 0.133 0.137 0.365 0.513l0.835 1.352 0.892-1.352q0.11-0.171 0.186-0.292 0.080-0.122 0.152-0.201t0.16-0.118q0.091-0.042 0.209-0.042 0.213 0 0.346 0.129 0.137 0.125 0.137 0.3 0 0.254-0.292 0.691l-1.098 1.641 1.181 1.819q0.16 0.239 0.232 0.399 0.072 0.156 0.072 0.296 0 0.133-0.065 0.243t-0.182 0.175-0.266 0.065q-0.16 0-0.27-0.068-0.11-0.065-0.178-0.163t-0.254-0.384l-0.98-1.542-1.041 1.587q-0.122 0.19-0.175 0.266-0.049 0.076-0.122 0.148t-0.171 0.114-0.232 0.042q-0.205 0-0.342-0.125-0.133-0.125-0.133-0.365 0-0.281 0.277-0.687z"></path>
</svg>
