<!-- Generated by IcoMoon.io -->
<svg version="1.1" xmlns="http://www.w3.org/2000/svg" width="20" height="20" viewBox="0 0 20 20">
<title>cdrom-new</title>
<path fill="#006F8B" d="M10 12c-1.103 0-2-0.897-2-2s0.897-2 2-2 2 0.897 2 2-0.897 2-2 2zM10 9c-0.551 0-1 0.449-1 1s0.449 1 1 1 1-0.449 1-1-0.449-1-1-1z"></path>
<path fill="#006F8B" d="M10 0c-2.671 0-5.181 1.041-7.070 2.93s-2.93 4.399-2.93 7.070 1.041 5.181 2.93 7.070 4.399 2.93 7.070 2.93 5.181-1.041 7.070-2.93 2.93-4.399 2.93-7.070c0-1.284-0.246-2.527-0.705-3.686-0.319-0.713-1.22-0.292-0.914 0.43 0.394 1.011 0.619 2.107 0.619 3.256 0 1.201-0.236 2.347-0.664 3.394l-4.535-2.148c0.129-0.393 0.199-0.811 0.199-1.246 0-2.206-1.794-4-4-4-0.435 0-0.853 0.070-1.246 0.199l-2.148-4.535c1.048-0.428 2.193-0.664 3.394-0.664 0.974 0 1.91 0.16 2.789 0.447 0.662 0.27 1.068-0.593 0.379-0.928-1.009-0.336-2.073-0.52-3.168-0.52zM5.701 2.096l2.148 4.533c-0.49 0.313-0.907 0.731-1.221 1.221l-4.535-2.148c0.831-1.52 2.087-2.776 3.607-3.606zM1.664 6.606l4.535 2.148c-0.129 0.393-0.199 0.811-0.199 1.246 0 2.206 1.794 4 4 4 0.435 0 0.853-0.070 1.246-0.199l2.148 4.535c-1.048 0.428-2.193 0.664-3.394 0.664-4.963 0-9-4.037-9-9 0-1.201 0.236-2.347 0.664-3.394zM10 7c1.654 0 3 1.346 3 3s-1.346 3-3 3-3-1.346-3-3 1.346-3 3-3zM13.371 12.15l4.535 2.148c-0.831 1.52-2.087 2.776-3.607 3.606l-2.148-4.533c0.49-0.313 0.907-0.731 1.221-1.221z"></path>
<path fill="#006F8B" d="M19.422 3.299h-2.733v-2.733c0-0.302-0.245-0.547-0.547-0.547s-0.547 0.245-0.547 0.547v2.733h-2.733c-0.302 0-0.547 0.245-0.547 0.547s0.245 0.547 0.547 0.547h2.733v2.733c0 0.302 0.245 0.547 0.547 0.547s0.547-0.245 0.547-0.547v-2.733h2.733c0.302 0 0.547-0.245 0.547-0.547s-0.245-0.547-0.547-0.547z"></path>
</svg>
