<!-- Generated by IcoMoon.io -->
<svg version="1.1" xmlns="http://www.w3.org/2000/svg" width="20" height="20" viewBox="0 0 20 20">
<title>document-CHout-cancel</title>
<path fill="#006F8B" d="M3.5 1c-0.827 0-1.5 0.673-1.5 1.5v9.881l1-1.057v-8.824c0-0.276 0.224-0.5 0.5-0.5h8.199l0.947-1h-9.147zM18 6.006l-1 1.057v11.438c0 0.276-0.224 0.5-0.5 0.5h-10.674l-0.945 1h11.619c0.827 0 1.5-0.673 1.5-1.5v-12.494zM4.002 19.988l-0.010 0.012h0.023l-0.014-0.012z"></path>
<path fill="#006F8B" d="M14.707 12.793v-1.086c0-1.103-0.897-2-2-2s-2 0.897-2 2v1.086c-0.582 0.206-1 0.762-1 1.414v2c0 0.827 0.673 1.5 1.5 1.5h3c0.827 0 1.5-0.673 1.5-1.5v-2c0-0.652-0.418-1.208-1-1.414zM12.707 10.707c0.551 0 1 0.449 1 1v1h-2v-1c0-0.551 0.449-1 1-1zM14.707 16.207c0 0.276-0.224 0.5-0.5 0.5h-3c-0.276 0-0.5-0.224-0.5-0.5v-2c0-0.276 0.224-0.5 0.5-0.5h3c0.276 0 0.5 0.224 0.5 0.5z"></path>
<path fill="#006F8B" d="M17.347 1.105l0.139 0.129c0.212 0.196 0.224 0.525 0.027 0.736l-16.261 17.441c-0.197 0.211-0.527 0.223-0.739 0.028l-0.139-0.129c-0.212-0.196-0.224-0.525-0.027-0.736l16.261-17.441c0.197-0.211 0.527-0.223 0.739-0.028z"></path>
</svg>
