<!-- Generated by IcoMoon.io -->
<svg version="1.1" xmlns="http://www.w3.org/2000/svg" width="20" height="20" viewBox="0 0 20 20">
<title>drawers-addto</title>
<path fill="#006F8B" d="M4.432 3c-0.827 0-1.5 0.673-1.5 1.5v3.551c0 0.698 1 0.698 1 0v-3.551c0-0.276 0.224-0.5 0.5-0.5h12c0.276 0 0.5 0.224 0.5 0.5v4c0 0.276-0.224 0.5-0.5 0.5h-3.833c-0.591 0-0.578 0.992 0 1h3.833c0.827 0 1.5-0.673 1.5-1.5v-4c0-0.827-0.673-1.5-1.5-1.5z"></path>
<path fill="#006F8B" d="M12.593 11c-0.556 0-0.532 1 0.007 1h3.833c0.276 0 0.5 0.224 0.5 0.5v4c0 0.276-0.224 0.5-0.5 0.5h-12c-0.276 0-0.5-0.224-0.5-0.5v-3.619c0-0.671-1-0.671-1 0v3.619c0 0.827 0.673 1.5 1.5 1.5h12c0.827 0 1.5-0.673 1.5-1.5v-4c0-0.827-0.673-1.5-1.5-1.5z"></path>
<path fill="#006F8B" d="M2.432 1c-0.827 0-1.5 0.673-1.5 1.5v5.551c0 0.698 1 0.698 1 0v-5.551c0-0.276 0.224-0.5 0.5-0.5h16c0.276 0 0.5 0.224 0.5 0.5v16c0 0.276-0.224 0.5-0.5 0.5h-16c-0.276 0-0.5-0.224-0.5-0.5v-5.619c0-0.671-1-0.671-1 0v5.619c0 0.827 0.673 1.5 1.5 1.5h16c0.827 0 1.5-0.673 1.5-1.5v-16c0-0.827-0.673-1.5-1.5-1.5z"></path>
<path fill="#006F8B" d="M7.181 6.615c-0.12 0-0.239 0.046-0.33 0.137-0.182 0.182-0.182 0.482 0 0.664l2.615 2.615h-8.834c-0.257 0-0.469 0.212-0.469 0.469s0.212 0.469 0.469 0.469h8.834l-2.615 2.615c-0.182 0.182-0.182 0.482 0 0.664 0.091 0.091 0.213 0.137 0.332 0.137s0.239-0.047 0.33-0.137l3.418-3.416c0.11-0.11 0.181-0.176 0.157-0.32l0.015-0.084c-0.015-0.093-0.101-0.189-0.172-0.26l-3.418-3.416c-0.091-0.091-0.212-0.137-0.332-0.137z"></path>
</svg>
