<!-- Generated by IcoMoon.io -->
<svg version="1.1" xmlns="http://www.w3.org/2000/svg" width="20" height="20" viewBox="0 0 20 20">
<title>file-addto</title>
<path fill="#006F8B" d="M3.5 1c-0.827 0-1.5 0.673-1.5 1.5v6.906c0 0.747 1 0.716 1 0v-6.906c0-0.276 0.224-0.5 0.5-0.5h8.5v3.5c0 0.827 0.673 1.5 1.5 1.5h3.5v11.5c0 0.276-0.224 0.5-0.5 0.5h-13c-0.276 0-0.5-0.224-0.5-0.5v-3.84c0-0.675-1-0.7-1 0v3.84c0 0.827 0.673 1.5 1.5 1.5h13c0.827 0 1.5-0.673 1.5-1.5v-12.5c0-0.133-0.053-0.26-0.146-0.354l-4.5-4.5c-0.094-0.094-0.221-0.146-0.354-0.146zM13 2.207l3.793 3.793h-3.293c-0.276 0-0.5-0.224-0.5-0.5z"></path>
<path fill="#006F8B" d="M7.415 8.144c-0.116 0-0.231 0.043-0.318 0.131-0.175 0.175-0.175 0.464 0 0.639l2.838 2.838h-9.438c-0.247 0-0.451 0.204-0.451 0.451s0.204 0.453 0.451 0.453h9.438l-2.838 2.838c-0.175 0.175-0.175 0.462 0 0.637 0.088 0.088 0.204 0.133 0.318 0.133s0.233-0.044 0.32-0.131l3.609-3.609c0.117-0.117 0.161-0.166 0.121-0.316 0.019-0.167-0.064-0.265-0.121-0.322h-0.002l-3.607-3.609c-0.087-0.087-0.204-0.131-0.32-0.131z"></path>
</svg>
