<!-- Generated by IcoMoon.io -->
<svg version="1.1" xmlns="http://www.w3.org/2000/svg" width="20" height="20" viewBox="0 0 20 20">
<title>file-new</title>
<path fill="#006F8B" d="M3.5 1c-0.827 0-1.5 0.673-1.5 1.5v16c0 0.827 0.673 1.5 1.5 1.5h13c0.827 0 1.5-0.673 1.5-1.5v-9.246c0-0.74-1-0.722-1 0v9.246c0 0.276-0.224 0.5-0.5 0.5h-13c-0.276 0-0.5-0.224-0.5-0.5v-16c0-0.276 0.224-0.5 0.5-0.5h6.654c0.677 0 0.656-1 0-1z"></path>
<path fill="#006F8B" d="M19.429 3.304h-2.733v-2.733c0-0.302-0.245-0.547-0.547-0.547s-0.547 0.245-0.547 0.547v2.733h-2.733c-0.302 0-0.547 0.245-0.547 0.547s0.245 0.547 0.547 0.547h2.733v2.733c0 0.302 0.245 0.547 0.547 0.547s0.547-0.245 0.547-0.547v-2.733h2.733c0.302 0 0.547-0.245 0.547-0.547s-0.245-0.547-0.547-0.547z"></path>
</svg>
