<!-- Generated by IcoMoon.io -->
<svg version="1.1" xmlns="http://www.w3.org/2000/svg" width="20" height="20" viewBox="0 0 20 20">
<title>message-forward</title>
<path fill="#006F8B" d="M9.5 1.998c-2.515 0-4.885 0.766-6.672 2.156-0.881 0.686-1.574 1.487-2.061 2.381-0.51 0.938-0.768 1.936-0.768 2.965 0 2.038 1.047 3.986 2.885 5.393-0.249 0.69-0.952 2.164-2.643 3.178-0.193 0.115-0.285 0.346-0.225 0.563s0.257 0.367 0.482 0.367l0.002 0.002c1.030 0 2.305-0.375 3.793-1.115 0.958-0.477 1.761-0.985 2.189-1.272 0.027 0.007 0.057 0.009 0.084 0.016 0.569 0.096 0.961-0.876 0.238-0.971-0.092-0.023-0.185-0.042-0.275-0.068-0.144-0.041-0.297-0.017-0.42 0.068-1.035 0.712-2.438 1.503-3.74 1.959 1.065-1.155 1.463-2.353 1.58-2.789 0.054-0.203-0.023-0.416-0.195-0.537-1.751-1.23-2.756-2.978-2.756-4.793 0-3.584 3.813-6.5 8.5-6.5s8.5 2.916 8.5 6.5c0 0.322-0.042 0.636-0.102 0.945-0.178 0.569 0.756 0.89 0.98 0.195 0.072-0.375 0.121-0.754 0.121-1.141 0-1.030-0.258-2.028-0.768-2.965-0.486-0.895-1.179-1.696-2.061-2.381-1.787-1.39-4.157-2.156-6.672-2.156z"></path>
<path fill="#006F8B" d="M13.722 7.917q0 0.413-0.055 0.844-0.049 0.431-0.164 0.838t-0.304 0.771q-0.188 0.358-0.462 0.632t-0.638 0.431q-0.358 0.152-0.826 0.152-0.249 0-0.462-0.055-0.213-0.061-0.376-0.17t-0.279-0.279q-0.109-0.176-0.152-0.401-0.243 0.243-0.474 0.419-0.225 0.17-0.443 0.279t-0.431 0.158q-0.206 0.049-0.407 0.049-0.261 0-0.462-0.049-0.2-0.055-0.358-0.152-0.152-0.103-0.261-0.249t-0.182-0.328-0.103-0.401-0.030-0.474q0-0.261 0.043-0.595 0.042-0.34 0.14-0.698t0.267-0.698q0.17-0.346 0.419-0.613 0.255-0.273 0.601-0.437 0.346-0.17 0.808-0.17 0.194 0 0.37 0.049 0.182 0.042 0.346 0.14t0.316 0.243 0.31 0.346l0.103-0.534q0.024-0.085 0.109-0.128t0.316-0.042q0.109 0 0.182 0.012 0.079 0.012 0.121 0.036 0.043 0.018 0.055 0.049 0.018 0.030 0.006 0.073l-0.54 2.793q-0.097 0.528 0.049 0.783 0.146 0.249 0.553 0.249 0.249 0 0.449-0.121 0.2-0.128 0.352-0.34t0.255-0.492q0.103-0.285 0.17-0.595 0.067-0.316 0.097-0.644t0.030-0.632q0-0.528-0.146-1.002-0.14-0.48-0.486-0.838-0.346-0.364-0.929-0.577-0.577-0.219-1.451-0.219-0.717 0-1.275 0.158t-0.984 0.431q-0.425 0.267-0.729 0.619t-0.516 0.753q-0.206 0.395-0.334 0.814-0.128 0.413-0.194 0.802-0.067 0.383-0.091 0.723-0.018 0.34-0.018 0.577 0 0.674 0.152 1.233 0.158 0.559 0.54 0.966t1.026 0.632 1.621 0.225q0.443 0 0.802-0.055 0.358-0.049 0.619-0.109 0.267-0.055 0.431-0.109 0.164-0.049 0.225-0.049 0.036 0 0.061 0.018 0.030 0.024 0.043 0.067 0.018 0.049 0.024 0.115 0.006 0.073 0.006 0.176 0 0.085-0.006 0.14 0 0.055-0.012 0.097-0.012 0.049-0.036 0.085-0.018 0.036-0.055 0.067t-0.213 0.091q-0.17 0.061-0.468 0.121-0.291 0.061-0.686 0.103t-0.868 0.043q-1.136 0-1.925-0.267-0.783-0.267-1.281-0.765-0.492-0.498-0.71-1.196t-0.219-1.561q0-0.316 0.030-0.723 0.036-0.413 0.128-0.874 0.097-0.468 0.267-0.947 0.17-0.486 0.437-0.947 0.273-0.462 0.656-0.868 0.389-0.413 0.911-0.717 0.528-0.31 1.202-0.486 0.68-0.176 1.536-0.176 0.996 0 1.719 0.243 0.729 0.237 1.202 0.674t0.704 1.069q0.231 0.625 0.231 1.397zM10.2 8.311q-0.231-0.389-0.474-0.595t-0.553-0.206q-0.255 0-0.462 0.128-0.206 0.121-0.358 0.322-0.152 0.194-0.261 0.443-0.103 0.249-0.17 0.51t-0.097 0.51q-0.024 0.243-0.024 0.431 0 0.449 0.158 0.692 0.164 0.243 0.547 0.243 0.146 0 0.298-0.049 0.152-0.055 0.322-0.158 0.17-0.109 0.358-0.279 0.194-0.176 0.425-0.413z"></path>
<path fill="#006F8B" d="M15.889 11.83c-0.116 0-0.231 0.043-0.318 0.131-0.175 0.175-0.175 0.464 0 0.639l2.838 2.838h-9.437c-0.247 0-0.451 0.204-0.451 0.451s0.204 0.453 0.451 0.453h9.437l-2.838 2.838c-0.175 0.175-0.175 0.462 0 0.637 0.088 0.088 0.204 0.133 0.318 0.133s0.233-0.044 0.32-0.131l3.609-3.609c0.117-0.117 0.161-0.166 0.121-0.316 0.019-0.167-0.064-0.265-0.121-0.322h-0.002l-3.607-3.609c-0.087-0.087-0.204-0.131-0.32-0.131z"></path>
</svg>
