<?xml version="1.0" standalone="no"?>
<!DOCTYPE svg PUBLIC "-//W3C//DTD SVG 20010904//EN"
 "http://www.w3.org/TR/2001/REC-SVG-20010904/DTD/svg10.dtd">
<svg version="1.0" xmlns="http://www.w3.org/2000/svg"
 width="700.000000pt" height="700.000000pt" viewBox="0 0 700.000000 700.000000"
 preserveAspectRatio="xMidYMid meet">
<metadata>
Created by potrace 1.11, written by Peter Selinger 2001-2013
</metadata>
<g transform="translate(0.000000,700.000000) scale(0.100000,-0.100000)"
fill="#000000" stroke="none">
<path d="M2515 6711 c-26 -69 -53 -139 -60 -156 -7 -16 -77 -196 -154 -400
-78 -203 -146 -379 -151 -390 -5 -11 -18 -45 -29 -75 -28 -77 -160 -421 -171
-445 -5 -11 -57 -146 -115 -300 -59 -154 -133 -347 -165 -430 -130 -335 -164
-423 -185 -480 -51 -137 -176 -461 -185 -480 -5 -11 -32 -81 -60 -155 -28 -74
-54 -144 -59 -155 -5 -11 -30 -76 -56 -145 -26 -69 -78 -204 -115 -300 -37
-96 -104 -272 -149 -390 -45 -118 -90 -235 -101 -260 -10 -25 -60 -153 -110
-285 -50 -132 -95 -249 -100 -260 -8 -20 -152 -392 -196 -510 -44 -119 -95
-250 -103 -270 -6 -11 -49 -123 -96 -250 -48 -126 -95 -248 -105 -270 -36 -82
-44 -117 -29 -126 18 -11 34 -12 996 -14 l823 -1 13 30 c8 17 113 280 233 583
l219 553 390 1 c215 0 751 1 1193 3 l803 3 13 -26 c8 -14 44 -107 81 -206 36
-99 71 -189 75 -200 5 -11 69 -180 141 -375 73 -195 134 -357 136 -360 4 -4
1853 -9 1853 -4 0 5 -114 315 -130 354 -10 25 -60 155 -110 290 -51 135 -124
328 -162 430 -39 102 -83 219 -98 260 -25 67 -311 827 -397 1055 -19 50 -40
106 -47 125 -27 73 -108 287 -236 625 -73 193 -143 377 -155 410 -12 33 -88
236 -169 450 -81 215 -219 579 -306 810 -87 231 -202 535 -255 675 -53 140
-173 460 -267 710 -94 250 -173 458 -177 462 -3 4 -436 9 -962 11 l-957 4 -47
-126z m793 -1794 c80 -145 421 -796 667 -1272 43 -82 97 -186 120 -230 23 -44
90 -173 148 -286 l107 -206 -263 -1 c-144 0 -267 -1 -273 -1 -8 -1 -7 -22 3
-73 21 -113 32 -174 48 -263 2 -16 7 -40 9 -51 2 -12 7 -39 10 -60 4 -22 13
-79 22 -129 8 -49 17 -103 20 -120 2 -16 9 -55 14 -85 34 -197 34 -199 8 -204
-37 -9 -139 -25 -188 -31 -25 -4 -59 -8 -77 -10 -30 -4 -33 -2 -42 33 -5 20
-12 53 -15 72 -3 19 -8 45 -10 56 -6 29 -17 94 -21 119 -4 28 -34 195 -40 225
-4 22 -26 142 -40 225 -13 75 -27 143 -37 177 -13 45 10 49 -275 -43 -117 -38
-218 -69 -223 -69 -11 0 -8 77 4 136 2 12 7 59 11 105 4 46 8 86 10 89 1 3 6
32 9 65 4 33 11 87 16 120 5 33 12 87 15 120 4 33 9 69 10 80 2 11 8 58 15
105 7 47 14 101 16 120 2 19 9 69 14 110 6 42 12 94 15 115 3 22 7 56 10 75 3
19 7 49 9 66 2 17 9 64 15 105 6 41 13 94 16 119 3 25 8 56 10 70 2 14 7 50
10 80 3 30 8 66 10 80 3 14 7 39 9 55 2 17 7 48 10 70 4 22 8 56 10 75 12 97
17 137 21 160 3 14 8 43 11 65 3 22 8 47 9 55 2 8 4 18 4 23 2 18 18 4 39 -36z"/>
</g>
</svg>
