<?xml version="1.0" encoding="UTF-8"?>
<!-- Generated by IcoMoon.io -->
<svg width="20" height="20" version="1.1" viewBox="0 0 20 20" xmlns="http://www.w3.org/2000/svg">
 <title>info-circle</title>
 <path d="m9.5 20c-2.538 0-4.923-.988-6.718-2.782s-2.782-4.18-2.782-6.717c0-2.538.988-4.923 2.782-6.718s4.18-2.783 6.718-2.783 4.923.988 6.718 2.783 2.782 4.18 2.782 6.718-.988 4.923-2.782 6.717-4.18 2.782-6.718 2.782zm0-18c-4.687 0-8.5 3.813-8.5 8.5s3.813 8.5 8.5 8.5 8.5-3.813 8.5-8.5-3.813-8.5-8.5-8.5z" fill="#006F8B"/>
 <ellipse cx="9.5" cy="6.5917" rx=".66898" ry=".6993" fill="#006f8b"/>
 <path d="m9.5 15.214c-.32104 0-.58159-.2562-.58159-.57187v-5.7187c0-.31567.26055-.57187.58159-.57187.32103 0 .58159.2562.58159.57187v5.7187c0 .31567-.26055.57187-.58159.57187z" fill="#006f8b" stroke-width="1.1534"/>
</svg>
