<?xml version="1.0" encoding="UTF-8"?>
<svg width="130" height="130" version="1.0" viewBox="0 0 97.5 97.5" xmlns="http://www.w3.org/2000/svg">
 <g transform="matrix(.45047 0 0 -.45047 22.648 99.071)">
  <path d="m54.936 146.52-27.248-70.797c-14.982-38.954-27.328-71.156-27.488-71.516-.23972-.67921.87893-.7198 19.497-.7198h19.778l4.9533 12.505 4.9544 12.465 25.65.11979 25.609.07986 1.199-3.0756c.63925-1.718 2.7571-7.3923 4.7148-12.626l3.5558-9.4685h39.713l-.51907 1.5184c-.31962.79906-9.9482 26.369-21.415 56.813-11.507 30.444-23.333 61.888-26.369 69.919l-5.4735 14.583-20.576.11979zm15.298-40.142c.04057.008.07915-.0408.1241-.0906.15981-.15981 2.5171-4.5541 5.194-9.7081s5.9928-11.546 7.3911-14.183c1.3584-2.6369 4.2355-8.1505 6.3929-12.266l3.8753-7.5109h-11.747l.23958-1.0792c.71916-3.5958 3.476-19.817 3.3562-19.896-.35957-.27968-6.7511-1.279-6.871-1.0392-.11987.15981-.95989 4.6749-1.8788 10.029-.91893 5.3937-1.7978 9.9486-1.9576 10.108-.15981.15982-2.5569-.51954-5.3936-1.5184-2.7967-.99883-5.1939-1.7181-5.3138-1.5982-.11986.07992 1.0793 9.8682 2.6774 21.654 3.2512 24.227 3.6268 27.041 3.9109 27.099z" fill="#006f8b" stroke-width=".039953"/>
 </g>
</svg>
