<?xml version="1.0" encoding="UTF-8"?>
<svg xmlns="http://www.w3.org/2000/svg" xmlns:xlink="http://www.w3.org/1999/xlink" width="20pt" height="20pt" viewBox="0 0 20 20" version="1.1">
<g id="surface1">
<path style=" stroke:none;fill-rule:nonzero;fill:#73b746;fill-opacity:1;" d="M 0 5.660156 C 0 5.324219 0.121094 5.027344 0.367188 4.78125 C 0.613281 4.535156 0.910156 4.410156 1.25 4.410156 L 18.746094 4.410156 C 19.082031 4.410156 19.378906 4.53125 19.625 4.777344 C 19.871094 5.023438 19.996094 5.320312 19.996094 5.660156 C 19.996094 5.996094 19.875 6.292969 19.628906 6.539062 L 10.875 15.296875 C 10.628906 15.542969 10.332031 15.664062 10 15.664062 C 9.664062 15.664062 9.367188 15.542969 9.121094 15.296875 L 0.371094 6.539062 C 0.121094 6.292969 0 5.996094 0 5.660156 Z M 0 5.660156 "/>
</g>
</svg>
