<?xml version="1.0" encoding="UTF-8"?>
<svg xmlns="http://www.w3.org/2000/svg" xmlns:xlink="http://www.w3.org/1999/xlink" width="20pt" height="20pt" viewBox="0 0 20 20" version="1.1">
<g id="surface1">
<path style=" stroke:none;fill-rule:nonzero;fill:#73b746;fill-opacity:1;" d="M 2.839844 5.652344 C 2.839844 5.316406 2.925781 5.023438 3.105469 4.777344 C 3.28125 4.535156 3.492188 4.410156 3.734375 4.410156 L 16.265625 4.410156 C 16.503906 4.410156 16.71875 4.53125 16.894531 4.773438 C 17.070312 5.019531 17.160156 5.3125 17.160156 5.652344 C 17.160156 5.984375 17.074219 6.277344 16.894531 6.523438 L 10.628906 15.21875 C 10.453125 15.460938 10.242188 15.582031 10 15.582031 C 9.757812 15.582031 9.546875 15.460938 9.371094 15.21875 L 3.105469 6.523438 C 2.925781 6.277344 2.839844 5.984375 2.839844 5.652344 Z M 2.839844 5.652344 "/>
</g>
</svg>
