<!-- Generated by IcoMoon.io -->
<svg version="1.1" xmlns="http://www.w3.org/2000/svg" width="20" height="20" viewBox="0 0 20 20">
<title>comment-new</title>
<path fill="#73b746" d="M9.5 1.998c-2.515 0-4.885 0.766-6.672 2.156-0.881 0.686-1.574 1.487-2.061 2.381-0.51 0.938-0.768 1.936-0.768 2.965 0 2.038 1.047 3.986 2.885 5.393-0.249 0.69-0.952 2.164-2.643 3.178-0.193 0.115-0.285 0.346-0.225 0.563s0.257 0.367 0.482 0.367l0.002 0.002c1.030 0 2.305-0.375 3.793-1.115 0.958-0.477 1.761-0.985 2.189-1.272 0.969 0.256 1.983 0.387 3.016 0.387 2.515 0 4.885-0.766 6.672-2.156 0.881-0.686 1.574-1.487 2.061-2.381 0.51-0.938 0.768-1.935 0.768-2.965 0-0.032-0.005-0.062-0.006-0.094-0.010-0.535-1.056-0.305-1.019 0.461-0.251 3.413-3.95 6.133-8.475 6.133-1.021 0-2.021-0.137-2.969-0.408-0.144-0.041-0.297-0.017-0.42 0.068-1.035 0.712-2.438 1.503-3.74 1.959 1.065-1.155 1.463-2.353 1.58-2.789 0.054-0.203-0.023-0.416-0.195-0.537-1.751-1.23-2.756-2.978-2.756-4.793 0-3.584 3.813-6.5 8.5-6.5 0.153 0 0.302 0.011 0.453 0.018 0.719 0.033 0.823-0.826 0.266-0.99-0.238-0.014-0.477-0.029-0.719-0.029z"></path>
<path fill="#73b746" d="M5.5 6c-0.276 0-0.5 0.224-0.5 0.5s0.224 0.5 0.5 0.5h4.585c0.497 0 0.568-1 0.010-1h-4.596z"></path>
<path fill="#73b746" d="M5.5 8c-0.276 0-0.5 0.224-0.5 0.5s0.224 0.5 0.5 0.5h5.721c0.536 0 0.565-1-0.032-1z"></path>
<path fill="#73b746" d="M13.5 11h-8c-0.276 0-0.5-0.224-0.5-0.5s0.224-0.5 0.5-0.5h8c0.276 0 0.5 0.224 0.5 0.5s-0.224 0.5-0.5 0.5z"></path>
<path fill="#73b746" d="M11.5 13h-6c-0.276 0-0.5-0.224-0.5-0.5s0.224-0.5 0.5-0.5h6c0.276 0 0.5 0.224 0.5 0.5s-0.224 0.5-0.5 0.5z"></path>
<path fill="#73b746" d="M19.403 3.352h-2.733v-2.733c0-0.302-0.245-0.547-0.547-0.547s-0.547 0.245-0.547 0.547v2.733h-2.733c-0.302 0-0.547 0.245-0.547 0.547s0.245 0.547 0.547 0.547h2.733v2.733c0 0.302 0.245 0.547 0.547 0.547s0.547-0.245 0.547-0.547v-2.733h2.733c0.302 0 0.547-0.245 0.547-0.547s-0.245-0.547-0.547-0.547z"></path>
</svg>
