<!-- Generated by IcoMoon.io -->
<svg version="1.1" xmlns="http://www.w3.org/2000/svg" width="20" height="20" viewBox="0 0 20 20">
<title>drawers-reopen</title>
<path fill="#73b746" d="M3.5 3c-0.827 0-1.5 0.673-1.5 1.5v4c0 0.010 0.004 0.019 0.004 0.029-0.011 0.761 0.99 0.723 1.002 0-0.001-0.010-0.006-0.019-0.006-0.029v-4c0-0.276 0.224-0.5 0.5-0.5h12c0.276 0 0.5 0.224 0.5 0.5v4c0 0.010-0.005 0.019-0.006 0.029-0.010 0.678 1.020 0.793 1.002 0 0-0.010 0.004-0.019 0.004-0.029v-4c0-0.827-0.673-1.5-1.5-1.5z"></path>
<path fill="#73b746" d="M2 12.5v4c0 0.827 0.673 1.5 1.5 1.5h12c0.827 0 1.5-0.673 1.5-1.5v-4c0-0.673-0.995-0.654-1 0v4c0 0.276-0.224 0.5-0.5 0.5h-12c-0.276 0-0.5-0.224-0.5-0.5v-4c-0.019-0.673-1.001-0.664-1 0z"></path>
<path fill="#73b746" d="M17.5 20h-16c-0.827 0-1.5-0.673-1.5-1.5v-16c0-0.827 0.673-1.5 1.5-1.5h16c0.827 0 1.5 0.673 1.5 1.5v16c0 0.827-0.673 1.5-1.5 1.5zM1.5 2c-0.276 0-0.5 0.224-0.5 0.5v16c0 0.276 0.224 0.5 0.5 0.5h16c0.276 0 0.5-0.224 0.5-0.5v-16c0-0.276-0.224-0.5-0.5-0.5h-16z"></path>
<path fill="#73b746" d="M9.502 5.764c-1.202 0-2.327 0.475-3.197 1.297l-0.043 0.004-0.068 0.070c-0.883 0.882-1.371 2.059-1.371 3.307s0.489 2.426 1.371 3.309c0.882 0.883 2.061 1.371 3.309 1.371 0.292 0 0.533-0.243 0.533-0.535s-0.241-0.533-0.533-0.533c-1.994 0-3.611-1.618-3.611-3.611s1.618-3.609 3.611-3.609c1.994 0 3.609 1.616 3.609 3.609v0.006l-0.643-0.643c-0.206-0.206-0.548-0.206-0.754 0s-0.206 0.549 0 0.756l1.555 1.555c0.103 0.102 0.24 0.156 0.377 0.156 0.135 0 0.273-0.053 0.377-0.156l1.555-1.555c0.206-0.206 0.206-0.549 0-0.756s-0.548-0.206-0.754 0l-0.643 0.643v-0.006c0-1.248-0.489-2.424-1.371-3.307s-2.061-1.371-3.309-1.371z"></path>
</svg>
