<!-- Generated by IcoMoon.io -->
<svg version="1.1" xmlns="http://www.w3.org/2000/svg" width="20" height="20" viewBox="0 0 20 20">
<title>filetype-bmp</title>
<path fill="#73b746" d="M15.849 1.302c0 0 0.001 0.001 0.002 0.002v10.028c-0 0-0.001 0.001-0.002 0.002h-11.7c-0-0-0.001-0.001-0.002-0.002v-10.028c0-0 0.001-0.001 0.002-0.002zM15.851 0.466h-11.703c-0.46 0-0.836 0.376-0.836 0.836v10.031c0 0.46 0.376 0.836 0.836 0.836h11.703c0.46 0 0.836-0.376 0.836-0.836v-10.031c0-0.46-0.376-0.836-0.836-0.836z"></path>
<path fill="#73b746" d="M14.179 3.392c0 0.693-0.561 1.254-1.254 1.254s-1.254-0.561-1.254-1.254c0-0.693 0.561-1.254 1.254-1.254s1.254 0.561 1.254 1.254z"></path>
<path fill="#73b746" d="M15.015 10.497h-10.031v-1.672l2.926-5.016 3.344 4.18h0.836l2.926-2.508z"></path>
<path fill="#73b746" d="M4.055 19.767h-1.75q-0.379 0-0.543-0.168-0.16-0.172-0.16-0.543v-4.305q0-0.379 0.164-0.543 0.168-0.168 0.539-0.168h1.856q0.41 0 0.711 0.051t0.539 0.195q0.203 0.121 0.359 0.309 0.156 0.184 0.238 0.41 0.082 0.223 0.082 0.473 0 0.859-0.859 1.258 1.129 0.359 1.129 1.398 0 0.48-0.246 0.867-0.246 0.383-0.664 0.566-0.262 0.109-0.602 0.156-0.34 0.043-0.793 0.043zM3.969 17.224h-1.207v1.672h1.246q1.176 0 1.176-0.848 0-0.434-0.305-0.629t-0.91-0.195zM2.762 14.912v1.481h1.063q0.434 0 0.668-0.082 0.238-0.082 0.363-0.313 0.098-0.164 0.098-0.367 0-0.434-0.309-0.574-0.309-0.145-0.941-0.145z"></path>
<path fill="#73b746" d="M9.293 18.904l-0.918-3.648v3.953q0 0.328-0.148 0.492-0.145 0.164-0.387 0.164-0.234 0-0.383-0.16-0.148-0.164-0.148-0.496v-4.531q0-0.375 0.195-0.504 0.195-0.133 0.527-0.133h0.359q0.324 0 0.469 0.059 0.148 0.059 0.219 0.211t0.16 0.496l0.832 3.137 0.832-3.137q0.090-0.344 0.16-0.496t0.215-0.211q0.148-0.059 0.473-0.059h0.359q0.332 0 0.527 0.133 0.195 0.129 0.195 0.504v4.531q0 0.328-0.148 0.492-0.145 0.164-0.391 0.164-0.23 0-0.379-0.164t-0.148-0.492v-3.953l-0.918 3.648q-0.090 0.355-0.148 0.523-0.055 0.164-0.207 0.301t-0.422 0.137q-0.203 0-0.344-0.090-0.141-0.086-0.219-0.223t-0.125-0.301q-0.043-0.168-0.090-0.348z"></path>
<path fill="#73b746" d="M16.254 17.536h-1.063v1.621q0 0.348-0.164 0.527t-0.414 0.18q-0.262 0-0.422-0.176-0.16-0.18-0.16-0.523v-4.414q0-0.383 0.176-0.547t0.559-0.164h1.488q0.66 0 1.016 0.102 0.352 0.098 0.605 0.324 0.258 0.227 0.391 0.555t0.133 0.738q0 0.875-0.539 1.328-0.539 0.449-1.606 0.449zM15.973 14.911h-0.781v1.75h0.781q0.41 0 0.684-0.086 0.277-0.086 0.422-0.281t0.145-0.512q0-0.379-0.223-0.617-0.25-0.254-1.027-0.254z"></path>
</svg>
