<!-- Generated by IcoMoon.io -->
<svg version="1.1" xmlns="http://www.w3.org/2000/svg" width="20" height="20" viewBox="0 0 20 20">
<title>help-circle</title>
<path fill="#73b746" d="M10 1.004c-4.938 0-8.957 4.020-8.957 8.957s4.020 8.953 8.957 8.953c4.938 0 8.957-4.016 8.957-8.953s-4.020-8.957-8.957-8.957zM10 18.254c-4.57 0-8.293-3.723-8.293-8.293s3.723-8.293 8.293-8.293c4.57 0 8.293 3.719 8.293 8.293s-3.723 8.293-8.293 8.293z"></path>
<path fill="#73b746" d="M9.441 11.777c0.004-0.266 0.023-0.5 0.059-0.703 0.035-0.199 0.094-0.387 0.172-0.559s0.184-0.336 0.316-0.496c0.133-0.16 0.293-0.332 0.484-0.52 0.168-0.168 0.32-0.324 0.461-0.469s0.262-0.293 0.363-0.453c0.102-0.156 0.18-0.328 0.238-0.516 0.055-0.188 0.086-0.406 0.086-0.66 0-0.25-0.035-0.477-0.102-0.684-0.066-0.203-0.168-0.383-0.297-0.531-0.133-0.148-0.297-0.262-0.496-0.344s-0.426-0.121-0.688-0.121c-0.242 0-0.465 0.035-0.672 0.105-0.203 0.070-0.383 0.176-0.531 0.313-0.152 0.137-0.27 0.305-0.352 0.5s-0.129 0.422-0.133 0.672h-0.746c0.004-0.355 0.070-0.676 0.199-0.957s0.301-0.52 0.52-0.711c0.219-0.191 0.477-0.34 0.77-0.441s0.609-0.152 0.941-0.152c0.375 0 0.707 0.059 0.996 0.172s0.531 0.273 0.727 0.48c0.195 0.203 0.348 0.453 0.449 0.738 0.102 0.289 0.152 0.605 0.152 0.945 0 0.281-0.035 0.539-0.105 0.773s-0.172 0.461-0.301 0.672c-0.129 0.211-0.285 0.414-0.469 0.609-0.18 0.195-0.383 0.395-0.598 0.594-0.133 0.113-0.246 0.234-0.34 0.367s-0.164 0.27-0.219 0.418c-0.055 0.145-0.094 0.297-0.117 0.457s-0.035 0.32-0.035 0.488h-0.734zM9.344 13.871c0-0.141 0.043-0.262 0.133-0.359s0.215-0.148 0.379-0.148c0.16 0 0.285 0.051 0.379 0.148s0.141 0.219 0.141 0.359c0 0.137-0.047 0.254-0.141 0.348s-0.219 0.141-0.379 0.141c-0.164 0-0.289-0.047-0.379-0.141s-0.133-0.211-0.133-0.348z"></path>
</svg>
