<?xml version="1.0"?>
<!-- Generated by IcoMoon.io -->
<svg xmlns="http://www.w3.org/2000/svg" version="1.1" width="20" height="20" viewBox="0 0 20 20" fill="#21123d">
<title>folder-mynewdocs</title>
<path fill="#21123d" d="M1.887 7.488l2.402 3.635v-3.669q0-0.358 0.151-0.534 0.156-0.181 0.417-0.181 0.269 0 0.425 0.181 0.156 0.177 0.156 0.534v4.851q0 0.812-0.673 0.812-0.168 0-0.303-0.050-0.135-0.046-0.252-0.151t-0.219-0.244q-0.101-0.143-0.202-0.29l-2.344-3.593v3.614q0 0.353-0.164 0.534t-0.421 0.181q-0.265 0-0.425-0.181-0.16-0.185-0.16-0.534v-4.759q0-0.303 0.067-0.475 0.080-0.189 0.265-0.307 0.185-0.122 0.4-0.122 0.168 0 0.286 0.055 0.122 0.055 0.21 0.147 0.093 0.093 0.185 0.24 0.097 0.147 0.198 0.307z"/>
<path fill="#21123d" d="M10.869 7.808h-2.815v1.515h2.592q0.286 0 0.425 0.13 0.143 0.126 0.143 0.337t-0.139 0.345q-0.139 0.13-0.429 0.13h-2.592v1.754h2.912q0.295 0 0.442 0.139 0.151 0.135 0.151 0.362 0 0.219-0.151 0.358-0.147 0.135-0.442 0.135h-3.395q-0.408 0-0.589-0.181-0.177-0.181-0.177-0.585v-4.637q0-0.269 0.080-0.438 0.080-0.172 0.248-0.248 0.172-0.080 0.438-0.080h3.299q0.299 0 0.442 0.135 0.147 0.13 0.147 0.345 0 0.219-0.147 0.353-0.143 0.13-0.442 0.13z"/>
<path fill="#21123d" d="M16.928 12.040l-0.997-3.698-1.010 3.698q-0.118 0.421-0.189 0.606-0.067 0.181-0.24 0.328-0.172 0.143-0.459 0.143-0.231 0-0.383-0.088-0.147-0.084-0.24-0.24-0.093-0.16-0.151-0.374-0.059-0.219-0.105-0.404l-1.027-4.153q-0.093-0.362-0.093-0.551 0-0.24 0.168-0.404t0.417-0.164q0.341 0 0.459 0.219t0.206 0.635l0.808 3.602 0.905-3.37q0.101-0.387 0.181-0.589t0.261-0.349 0.492-0.147q0.316 0 0.488 0.156 0.177 0.151 0.244 0.332t0.181 0.597l0.913 3.37 0.808-3.602q0.059-0.282 0.109-0.442 0.055-0.16 0.181-0.286 0.13-0.126 0.374-0.126t0.412 0.164q0.172 0.16 0.172 0.404 0 0.173-0.093 0.551l-1.027 4.153q-0.105 0.421-0.177 0.618-0.067 0.194-0.236 0.341-0.164 0.147-0.467 0.147-0.286 0-0.459-0.143t-0.24-0.32q-0.067-0.181-0.189-0.614z"/>
<path fill="#21123d" d="M10.022 4.225c-0.291 0-0.528-0.236-0.528-0.526v-3.156c0-0.29 0.236-0.526 0.528-0.526s0.528 0.236 0.528 0.526v3.156c0 0.29-0.236 0.526-0.528 0.526z"/>
<path fill="#21123d" d="M10.022 20.006c-0.291 0-0.528-0.236-0.528-0.526v-3.156c0-0.29 0.236-0.526 0.528-0.526s0.528 0.236 0.528 0.526v3.156c0 0.29-0.236 0.526-0.528 0.526z"/>
<path fill="#21123d" d="M5.807 5.811c-0.135 0-0.27-0.052-0.374-0.154l-2.239-2.231c-0.206-0.205-0.206-0.539 0-0.744s0.54-0.205 0.746 0l2.239 2.231c0.206 0.205 0.206 0.539 0 0.744-0.103 0.103-0.239 0.154-0.374 0.154z"/>
<path fill="#21123d" d="M3.568 17.496c-0.135 0-0.27-0.052-0.374-0.154-0.206-0.205-0.206-0.539 0-0.744l2.239-2.231c0.206-0.205 0.54-0.205 0.746 0s0.206 0.539 0 0.744l-2.239 2.231c-0.103 0.103-0.239 0.154-0.374 0.154z"/>
<path fill="#21123d" d="M14.236 5.811c-0.135 0-0.27-0.052-0.374-0.154-0.206-0.205-0.206-0.539 0-0.744l2.239-2.231c0.206-0.205 0.54-0.205 0.746 0s0.206 0.539 0 0.744l-2.239 2.231c-0.103 0.103-0.239 0.154-0.374 0.154z"/>
<path fill="#21123d" d="M16.475 17.496c-0.135 0-0.27-0.052-0.374-0.154l-2.239-2.231c-0.206-0.205-0.206-0.539 0-0.744s0.54-0.205 0.746 0l2.239 2.231c0.206 0.205 0.206 0.539 0 0.744-0.103 0.103-0.239 0.154-0.374 0.154z"/>
</svg>
