<?xml version="1.0" encoding="UTF-8"?>
<!-- Generated by IcoMoon.io -->
<svg width="20" height="20" version="1.1" viewBox="0 0 20 20" xmlns="http://www.w3.org/2000/svg">
 <title>cart-add</title>
 <path d="m8 20c-1.103 0-2-.897-2-2s.897-2 2-2 2 .897 2 2-.897 2-2 2zm0-3c-.551 0-1 .449-1 1s.449 1 1 1 1-.449 1-1-.449-1-1-1z" fill="#73b746"/>
 <path d="m15 20c-1.103 0-2-.897-2-2s.897-2 2-2 2 .897 2 2-.897 2-2 2zm0-3c-.551 0-1 .449-1 1s.449 1 1 1 1-.449 1-1-.449-1-1-1z" fill="#73b746"/>
 <path d="m1.5 2c-.276 0-.5.224-.5.5s.224.5.5.5h1c.307 0 .62188.26536.67188.56836l1.6699 10.027c.131.787.8592 1.4043 1.6582 1.4043h10c.276 0 .5-.224.5-.5s-.224-.5-.5-.5h-10c-.307 0-.62188-.26536-.67188-.56836l-.24609-1.4805 9.9648-.86719c.775-.067 1.4833-.72028 1.6113-1.4883l.002-.00977c.14485-.58463-.78946-.74911-.98638-.16601l-.002.011719c-.053.316-.39094.62825-.71094.65625l-10.043.87305-.99414-5.9629h5.5977c.83487 0 .79519-.99805 0-.99805h-5.7637l-.099609-.5957c-.131-.787-.8592-1.4043-1.6582-1.4043z" fill="#73b746"/>
 <path d="m15.923.044746c-2.24 0-4.055 1.815-4.055 4.055 0 2.24 1.815 4.055 4.055 4.055s4.055-1.815 4.055-4.055c0-2.24-1.815-4.055-4.055-4.055zm2.253 4.506h-1.802v1.802c0 .642-.901.631-.901 0v-1.802h-1.802c-.541 0-.557-.901 0-.901h1.802v-1.802c0-.539.901-.546.901 0v1.802h1.802c.454 0 .484.901 0 .901z" fill="#73b746"/>
</svg>
