<!-- Generated by IcoMoon.io -->
<svg version="1.1" xmlns="http://www.w3.org/2000/svg" width="20" height="20" viewBox="0 0 20 20">
<title>drawers-removefrom</title>
<path fill="#73b746" d="M4.432 3c-0.827 0-1.5 0.673-1.5 1.5v0.119c0.001 0.722 0.984 0.703 1 0v-0.119c0-0.276 0.224-0.5 0.5-0.5h12c0.276 0 0.5 0.224 0.5 0.5v4c0 0.276-0.224 0.5-0.5 0.5h-3.832c-0.591 0-0.578 0.992 0 1h3.832c0.827 0 1.5-0.673 1.5-1.5v-4c0-0.827-0.673-1.5-1.5-1.5z"></path>
<path fill="#73b746" d="M12.594 11c-0.556 0-0.533 1 0.006 1h3.832c0.276 0 0.5 0.224 0.5 0.5v4c0 0.276-0.224 0.5-0.5 0.5h-12c-0.276 0-0.5-0.224-0.5-0.5v-0.119c-0.013-0.706-1.010-0.697-1 0v0.119c0 0.827 0.673 1.5 1.5 1.5h12c0.827 0 1.5-0.673 1.5-1.5v-4c0-0.827-0.673-1.5-1.5-1.5z"></path>
<path fill="#73b746" d="M2.432 1c-0.827 0-1.5 0.673-1.5 1.5v3.129c0 0.924 1 0.907 1 0v-3.129c0-0.276 0.224-0.5 0.5-0.5h16c0.276 0 0.5 0.224 0.5 0.5v16c0 0.276-0.224 0.5-0.5 0.5h-16c-0.276 0-0.5-0.224-0.5-0.5v-3.123c0-0.793-1-0.821-1 0v3.123c0 0.827 0.673 1.5 1.5 1.5h16c0.827 0 1.5-0.673 1.5-1.5v-16c0-0.827-0.673-1.5-1.5-1.5z"></path>
<path fill="#73b746" d="M3.971 6.615c0.12 0 0.239 0.046 0.33 0.137 0.182 0.182 0.182 0.482 0 0.664l-2.615 2.615h8.834c0.257 0 0.469 0.212 0.469 0.469s-0.212 0.469-0.469 0.469h-8.834l2.615 2.615c0.182 0.182 0.182 0.482 0 0.664-0.091 0.091-0.213 0.137-0.332 0.137s-0.239-0.047-0.33-0.137l-3.418-3.416c-0.11-0.11-0.181-0.176-0.157-0.32l-0.015-0.084c0.015-0.093 0.101-0.189 0.172-0.26l3.418-3.416c0.091-0.091 0.212-0.137 0.332-0.137z"></path>
</svg>
