<!-- Generated by IcoMoon.io -->
<svg version="1.1" xmlns="http://www.w3.org/2000/svg" width="20" height="20" viewBox="0 0 20 20">
<title>filetype-doc</title>
<path fill="#73b746" d="M14.329 3.599h-1.562l-1.090 3.612-1.136-3.612h-1.19l-1.221 3.612-1.001-3.612h-1.565l1.718 5.589h1.524l1.102-3.239 1.051 3.239h1.528l1.842-5.589zM16.297 12.028h-12.593v-12.028h12.593zM4.914 10.818h10.172v-9.607h-10.172z"></path>
<path fill="#73b746" d="M2.394 14.357h1.463q0.571 0 0.979 0.106t0.741 0.397q0.866 0.741 0.866 2.254 0 0.499-0.087 0.911t-0.268 0.745q-0.182 0.329-0.465 0.59-0.223 0.2-0.488 0.321t-0.571 0.17q-0.303 0.049-0.684 0.049h-1.463q-0.306 0-0.461-0.091-0.155-0.095-0.204-0.261-0.045-0.17-0.045-0.439v-4.065q0-0.363 0.163-0.526t0.526-0.163zM2.829 15.246v3.762h0.851q0.28 0 0.439-0.015t0.329-0.076 0.295-0.17q0.563-0.476 0.563-1.641 0-0.821-0.25-1.229-0.246-0.408-0.609-0.518-0.363-0.113-0.877-0.113z"></path>
<path fill="#73b746" d="M9.87 14.263q0.862 0 1.478 0.352 0.62 0.348 0.938 0.994 0.318 0.643 0.318 1.513 0 0.643-0.174 1.168t-0.522 0.911-0.855 0.59-1.161 0.204q-0.65 0-1.165-0.208-0.514-0.212-0.858-0.594t-0.522-0.919q-0.174-0.537-0.174-1.161 0-0.639 0.182-1.172 0.185-0.533 0.533-0.908t0.847-0.571q0.499-0.2 1.134-0.2zM11.466 17.114q0-0.609-0.197-1.055t-0.563-0.673q-0.363-0.231-0.836-0.231-0.337 0-0.624 0.129-0.284 0.125-0.492 0.367-0.204 0.242-0.325 0.62-0.117 0.374-0.117 0.843 0 0.473 0.117 0.855 0.121 0.382 0.337 0.635 0.219 0.25 0.499 0.374 0.284 0.125 0.62 0.125 0.431 0 0.79-0.216 0.363-0.216 0.575-0.666 0.216-0.45 0.216-1.108z"></path>
<path fill="#73b746" d="M18.294 18.15q0 0.265-0.132 0.575-0.129 0.306-0.408 0.605-0.28 0.295-0.715 0.48t-1.013 0.185q-0.439 0-0.798-0.083t-0.654-0.257q-0.291-0.178-0.537-0.465-0.219-0.261-0.374-0.582-0.155-0.325-0.234-0.692-0.076-0.367-0.076-0.779 0-0.669 0.193-1.199 0.197-0.529 0.56-0.904 0.363-0.378 0.851-0.575t1.040-0.197q0.673 0 1.199 0.268t0.805 0.666q0.28 0.393 0.28 0.745 0 0.193-0.136 0.34t-0.329 0.147q-0.216 0-0.325-0.102-0.106-0.102-0.238-0.352-0.219-0.412-0.518-0.616-0.295-0.204-0.73-0.204-0.692 0-1.104 0.526-0.408 0.526-0.408 1.494 0 0.647 0.182 1.078 0.182 0.427 0.514 0.639t0.779 0.212q0.484 0 0.817-0.238 0.337-0.242 0.507-0.707 0.072-0.219 0.178-0.355 0.106-0.14 0.34-0.14 0.2 0 0.344 0.14t0.144 0.348z"></path>
</svg>
