<?xml version="1.0" encoding="UTF-8"?>
<!-- Generated by IcoMoon.io -->
<svg width="20" height="20" version="1.1" viewBox="0 0 20 20" xmlns="http://www.w3.org/2000/svg">
 <title>filetype-pptx</title>
 <path d="m10.969 5.4225c0-.22459-.06969-.40342-.20738-.5386-.13811-.13391-.37446-.20108-.7082-.20108h-.55455v1.5016h.55077c.35767 0 .60283-.074304.7359-.22207.12216-.13266.18345-.31233.18345-.53986m1.4693-.015112c0 .49662-.12426.90676-.37488 1.2313-.32324.42063-.86016.63053-1.6112.63053h-.95336v1.9197h-1.471v-5.5908h2.3983c.68217 0 1.2002.18933 1.5541.56756.30519.32366.458.738.458 1.2418zm3.8588 6.6206h-12.594v-12.028h12.594zm-11.384-1.2098h10.172v-9.6079h-10.172" clip-rule="evenodd" fill="#73b746" fill-rule="evenodd" stroke-width=".4198"/>
 <g transform="translate(-.045612)" fill="#73b746" aria-label="PPTX">
  <path d="m2.9144 17.579h-.99167v1.513q0 .32448-.15312.49219t-.38646.16771q-.24427 0-.39375-.16406-.14948-.16771-.14948-.48854v-4.1198q0-.35729.16406-.51042.16406-.15312.52135-.15312h1.3891q.61615 0 .94792.09479.32812.09115.5651.3026.24062.21146.36458.51771.12396.30625.12396.68906 0 .81667-.50312 1.2396-.50312.41927-1.4984.41927zm-.2625-2.45h-.72917v1.6333h.72917q.38281 0 .63802-.08021.25885-.08021.39375-.2625.1349-.18229.1349-.4776 0-.35364-.20781-.57604-.23333-.23698-.95885-.23698z"/>
  <path d="m7.9019 17.579h-.99167v1.513q0 .32448-.15312.49219t-.38646.16771q-.24427 0-.39375-.16406-.14948-.16771-.14948-.48854v-4.1198q0-.35729.16406-.51042t.52135-.15312h1.3891q.61615 0 .94792.09479.32812.09115.5651.3026.24062.21146.36458.51771.12396.30625.12396.68906 0 .81667-.50312 1.2396-.50312.41927-1.4984.41927zm-.2625-2.45h-.72917v1.6333h.72917q.38281 0 .63802-.08021.25885-.08021.39375-.2625.1349-.18229.1349-.4776 0-.35364-.20781-.57604-.23333-.23698-.95885-.23698z"/>
  <path d="m14.286 15.209h-1.1812v3.8828q0 .33542-.14948.49948-.14948.16042-.38646.16042-.24062 0-.39375-.16406-.14948-.16406-.14948-.49583v-3.8828h-1.1812q-.27708 0-.41198-.12031-.1349-.12396-.1349-.32448 0-.20781.13854-.32812.14219-.12031.40833-.12031h3.4417q.28073 0 .41562.12396.13854.12396.13854.32448t-.13854.32448q-.13854.12031-.41562.12031z"/>
  <path d="m15.285 18.622 1.1958-1.7464-1.0062-1.5531q-.14219-.22604-.2151-.38646-.06927-.16406-.06927-.31354 0-.15312.1349-.27344.13854-.12396.33542-.12396.22604 0 .35.1349.1276.13125.35.49219l.80208 1.2979.85677-1.2979q.10573-.16406.17864-.28073.07656-.11667.14583-.19323.06927-.07656.15312-.11302.0875-.0401.20052-.0401.20417 0 .33177.12396.13125.12031.13125.28802 0 .24427-.28073.66354l-1.0536 1.575 1.1339 1.7464q.15312.22969.2224.38281.06927.14948.06927.28438 0 .1276-.06198.23333t-.175.16771q-.11302.06198-.25521.06198-.15312 0-.25885-.06562-.10573-.06198-.17136-.15677-.06563-.09479-.24427-.36823l-.94062-1.4802-.99896 1.524q-.11667.18229-.16771.25521-.0474.07292-.11667.14219-.06927.06927-.16406.10938-.09479.0401-.2224.0401-.19688 0-.32812-.12031-.1276-.12031-.1276-.35 0-.26979.26615-.6599z"/>
 </g>
</svg>
