<?xml version="1.0" encoding="UTF-8"?>
<svg width="20" height="20" version="1.1" viewBox="0 0 20 20" xmlns="http://www.w3.org/2000/svg">
 <title>filetype-zip</title>
 <path d="m9.8951 1.661h-.831c-.229 0-.415-.186-.415-.415s.186-.415.415-.415h.831c.229 0 .415.186.415.415s-.186.415-.415.415z" fill="#73b746"/>
 <path d="m10.636 2.477h-.831c-.229 0-.415-.186-.415-.415s.186-.415.415-.415h.831c.229 0 .415.186.415.415s-.186.415-.415.415z" fill="#73b746"/>
 <path d="m10 3.322h-.831c-.229 0-.415-.186-.415-.415s.186-.415.415-.415h.831c.229 0 .415.186.415.415s-.186.415-.415.415z" fill="#73b746"/>
 <path d="m10.831 4.152h-.831c-.229 0-.415-.186-.415-.415s.186-.415.415-.415h.831c.229 0 .415.186.415.415s-.186.415-.415.415z" fill="#73b746"/>
 <path d="m10 4.983h-.831c-.229 0-.415-.186-.415-.415s.186-.415.415-.415h.831c.229 0 .415.186.415.415s-.186.415-.415.415z" fill="#73b746"/>
 <path d="m10.831 5.814h-.831c-.229 0-.415-.186-.415-.415s.186-.415.415-.415h.831c.229 0 .415.186.415.415s-.186.415-.415.415z" fill="#73b746"/>
 <path d="m10 6.644c-.687 0-1.246.559-1.246 1.246v3.322c0 .687.559 1.246 1.246 1.246s1.246-.559 1.246-1.246v-3.322c0-.687-.559-1.246-1.246-1.246zm0 .831c.229 0 .415.186.415.415v.415h-.831v-.415c0-.229.186-.415.415-.415zm0 4.152c-.229 0-.415-.186-.415-.415v-2.076h.831v2.076c0 .229-.186.415-.415.415z" fill="#73b746"/>
 <path d="m10 6.644h-.831c-.229 0-.415-.186-.415-.415s.186-.415.415-.415h.831c.229 0 .415.186.415.415s-.186.415-.415.415z" fill="#73b746"/>
 <path d="m4.003 18.547 2.998-3.588h-2.576q-.271 0-.41-.119-.135-.119-.135-.315 0-.203.135-.327.139-.127.41-.127h3.321q.645 0 .645.601 0 .287-.107.458t-.434.553l-2.803 3.337h3.09q.275 0 .41.115.135.111.135.315 0 .211-.135.334t-.41.123h-3.791q-.386 0-.581-.171-.195-.175-.195-.466 0-.1.032-.183t.084-.155q.056-.076.151-.187.096-.115.167-.199z" fill="#73b746"/>
 <path d="m9.478 19.288v-4.599q0-.358.163-.538t.422-.179q.267 0 .43.179.167.175.167.538v4.599q0 .362-.167.542-.163.179-.43.179-.255 0-.422-.179-.163-.183-.163-.542z" fill="#73b746"/>
 <path d="m14.244 17.636h-1.083v1.652q0 .354-.167.538t-.422.183q-.267 0-.43-.179-.163-.183-.163-.534v-4.499q0-.39.179-.557t.569-.167h1.517q.673 0 1.035.104.358.1.617.33.263.231.398.565t.135.753q0 .892-.549 1.354-.549.458-1.637.458zm-.287-2.676h-.796v1.784h.796q.418 0 .697-.088.283-.088.43-.287t.147-.522q0-.386-.227-.629-.255-.259-1.047-.259z" fill="#73b746"/>
 <path d="m18.322 1.8846h-7.1186c-.08163 0-.2259-.086565-.26197-.15748l-.52488-1.0185c-.19552-.38034-.6739-.66674-1.1115-.66674h-6.6441c-.43756 0-.91593.2864-1.1115.66674l-.52488 1.0185c-.14997.29009-.26197.7533-.26197 1.0784v9.6695c0 .76159.63878 1.3814 1.4237 1.3814h16.136c.78495 0 1.4237-.61977 1.4237-1.3814v-9.2091c0-.76159-.63878-1.3814-1.4237-1.3814zm.47458 10.59c0 .25417-.21261.46046-.47458.46046h-16.136c-.26197 0-.47458-.20628-.47458-.46046v-9.6695c0-.1805.07878-.50466.16231-.66674l.52488-1.0185c.036068-.07091.18129-.15748.26197-.15748h6.6441c.081627 0 .2259.086565.26197.15748l.52488 1.0185c.19552.38034.6739.66674 1.1115.66674h7.1186c.26197 0 .47458.20628.47458.46045z" fill="#73b746" stroke-width=".93492"/>
</svg>
