<?xml version="1.0" encoding="UTF-8" standalone="no"?>
<svg
   xmlns:dc="http://purl.org/dc/elements/1.1/"
   xmlns:cc="http://creativecommons.org/ns#"
   xmlns:rdf="http://www.w3.org/1999/02/22-rdf-syntax-ns#"
   xmlns:svg="http://www.w3.org/2000/svg"
   xmlns="http://www.w3.org/2000/svg"
   xmlns:sodipodi="http://sodipodi.sourceforge.net/DTD/sodipodi-0.dtd"
   xmlns:inkscape="http://www.inkscape.org/namespaces/inkscape"
   width="44.944927"
   height="49.057804"
   version="1.1"
   viewBox="0 0 44.944927 49.057804"
   id="svg32"
   sodipodi:docname="invoice-approved.svg"
   style="enable-background:new"
   inkscape:version="0.92.4 (5da689c313, 2019-01-14)">
  <metadata
     id="metadata38">
    <rdf:RDF>
      <cc:Work
         rdf:about="">
        <dc:format>image/svg+xml</dc:format>
        <dc:type
           rdf:resource="http://purl.org/dc/dcmitype/StillImage" />
      </cc:Work>
    </rdf:RDF>
  </metadata>
  <defs
     id="defs36" />
  <sodipodi:namedview
     pagecolor="#ffffff"
     bordercolor="#666666"
     borderopacity="1"
     objecttolerance="10"
     gridtolerance="10"
     guidetolerance="10"
     inkscape:pageopacity="0"
     inkscape:pageshadow="2"
     inkscape:window-width="1920"
     inkscape:window-height="1001"
     id="namedview34"
     showgrid="false"
     inkscape:zoom="6.675088"
     inkscape:cx="52.151316"
     inkscape:cy="18.495203"
     inkscape:window-x="-9"
     inkscape:window-y="-9"
     inkscape:window-maximized="1"
     inkscape:current-layer="svg32"
     inkscape:snap-global="false" />
  <g
     id="g18"
     transform="translate(-4.9609,-0.91992)"
     style="fill:#73b746;stroke:none">
    <path
       d="m 4.9609,0.91992 0.10547,48 7.9336,-2.9199 6,3 5.752,-2.2949 c -0.13248,-0.12348 -0.27363,-0.23464 -0.40234,-0.36328 -0.63537,-0.63502 -1.1962,-1.3242 -1.7031,-2.0449 l -3.6465,1.7031 c -2.0653,-1.0681 -2.8332,-0.7298 -6,-3 l -4.9727,2.25 0.00781,-41.244 c 11.361002,0.071293 22.593002,0.024417 33.955002,0.037109 l 0.0078,17.768 c 1.0657,0.53121 2.0749,1.1819 3.002,1.959 v -22.77 L 6.2599554,0.920071 h -1.2988 z"
       id="path867"
       inkscape:connector-curvature="0"
       style="stroke:none" />
    <path
       d="M 13.559,13.142 C 25.688,11.0763 25.635,11.0763 25.635,11.0763"
       id="path4"
       inkscape:connector-curvature="0"
       style="stroke:none" />
    <path
       d="m 25,11 -10.416,0.01389 a 1.4843,1.4843 0 1 0 0.0043,2.9668 l 10.416,-0.01192 A 1.4844016,1.4844016 0 1 0 25,10.99997 Z"
       dominant-baseline="auto"
       style="color:#000000;font-variant-ligatures:normal;font-variant-position:normal;font-variant-caps:normal;font-variant-numeric:normal;font-variant-alternates:normal;font-feature-settings:normal;text-indent:0;text-decoration:none;text-decoration-line:none;text-decoration-style:solid;text-decoration-color:#000000;text-transform:none;text-orientation:mixed;dominant-baseline:auto;white-space:normal;shape-padding:0;isolation:auto;mix-blend-mode:normal;solid-color:#000000;stroke:none;color-rendering:auto;image-rendering:auto;shape-rendering:auto;enable-background:accumulate"
       id="path6"
       inkscape:connector-curvature="0" />
    <path
       d="m 32,11 a 1.5002,1.5002 0 1 0 0,3 h 4.8984 a 1.5002,1.5002 0 1 0 0,-3 z"
       dominant-baseline="auto"
       style="color:#000000;font-variant-ligatures:normal;font-variant-position:normal;font-variant-caps:normal;font-variant-numeric:normal;font-variant-alternates:normal;font-feature-settings:normal;text-indent:0;text-decoration:none;text-decoration-line:none;text-decoration-style:solid;text-decoration-color:#000000;text-transform:none;text-orientation:mixed;dominant-baseline:auto;white-space:normal;shape-padding:0;isolation:auto;mix-blend-mode:normal;solid-color:#000000;stroke:none;color-rendering:auto;image-rendering:auto;shape-rendering:auto;enable-background:accumulate"
       id="path8"
       inkscape:connector-curvature="0" />
    <path
       d="M 13.559,23.142 C 25.688,21.0763 25.635,21.0763 25.635,21.0763"
       id="path10"
       inkscape:connector-curvature="0"
       style="stroke:none" />
    <path
       style="font-variant-ligatures:normal;font-variant-position:normal;font-variant-caps:normal;font-variant-numeric:normal;font-variant-alternates:normal;font-feature-settings:normal;text-indent:0;text-decoration:none;text-decoration-line:none;text-decoration-style:solid;text-decoration-color:#000000;text-transform:none;text-orientation:mixed;white-space:normal;shape-padding:0;isolation:auto;mix-blend-mode:normal;stroke:none"
       d="m 19.232422,21.007812 -4.648438,0.0059 a 1.4843,1.4843 0 1 0 0.0039,2.966797 l 2.558593,-0.002 c 0.584257,-1.053562 1.284404,-2.045304 2.085938,-2.970704 z"
       id="path12"
       inkscape:connector-curvature="0" />
    <path
       d="M 13.559,33.142 C 25.688,31.0763 25.635,31.0763 25.635,31.0763"
       id="path14"
       inkscape:connector-curvature="0"
       style="stroke:none" />
    <path
       style="font-variant-ligatures:normal;font-variant-position:normal;font-variant-caps:normal;font-variant-numeric:normal;font-variant-alternates:normal;font-feature-settings:normal;text-indent:0;text-decoration:none;text-decoration-line:none;text-decoration-style:solid;text-decoration-color:#000000;text-transform:none;text-orientation:mixed;white-space:normal;shape-padding:0;isolation:auto;mix-blend-mode:normal;stroke:none"
       d="m 14.487023,31.042108 a 1.2358,1.6952 0 1 0 0.002,3.388672 h 0.466797 c -0.0737,-0.655838 -0.123047,-1.317326 -0.123047,-1.986328 0,-0.471269 0.03163,-0.937275 0.06836,-1.402344 z"
       id="path938"
       inkscape:connector-curvature="0" />
    <path
       style="font-variant-ligatures:normal;font-variant-position:normal;font-variant-caps:normal;font-variant-numeric:normal;font-variant-alternates:normal;font-feature-settings:normal;text-indent:0;text-decoration:none;text-decoration-line:none;text-decoration-style:solid;text-decoration-color:#000000;text-transform:none;text-orientation:mixed;white-space:normal;shape-padding:0;isolation:auto;mix-blend-mode:normal;stroke:none"
       d="m 16.427734,32.417969 c 0,0.539191 0.02777,1.073463 0.08203,1.601562 -0.05384,-0.526483 -0.08191,-1.061243 -0.08203,-1.601562 z"
       id="path16"
       inkscape:connector-curvature="0" />
  </g>
  <g
     inkscape:groupmode="layer"
     id="layer1"
     inkscape:label="Layer 1"
     transform="translate(-4.9983527,-0.95737269)" />
  <g
     style="fill:#73b746;stroke:none"
     id="g28"
     transform="matrix(1.4945895,0,0,1.4945895,17.15245,19.243963)">
    <path
       inkscape:connector-curvature="0"
       id="path26"
       style="color:#000000;font-variant-ligatures:normal;font-variant-position:normal;font-variant-caps:normal;font-variant-numeric:normal;font-variant-alternates:normal;font-feature-settings:normal;text-indent:0;text-decoration:none;text-decoration-line:none;text-decoration-style:solid;text-decoration-color:#000000;text-transform:none;text-orientation:mixed;dominant-baseline:auto;white-space:normal;shape-padding:0;isolation:auto;mix-blend-mode:normal;solid-color:#000000;fill:#73b746;stroke:none;color-rendering:auto;image-rendering:auto;shape-rendering:auto;enable-background:accumulate"
       dominant-baseline="auto"
       d="m 13.277,2.4642 c -0.31961,10e-8 -0.63919,0.11916 -0.87968,0.35965 l -7.8272,7.8296 -2.8529,-2.8529 c -0.48098,-0.48098 -1.2784,-0.48098 -1.7594,0 -0.48098,0.48098 -0.48098,1.2784 0,1.7594 l 3.7326,3.735 h 0.00243 c 0.23941,0.23696 0.55755,0.36149 0.87482,0.36208 H 4.5701 c 0.31408,-5.75e-4 0.63619,-0.12345 0.87725,-0.36451 l 8.7093,-8.7093 c 0.48098,-0.48098 0.48098,-1.2784 0,-1.7594 C 13.91616,2.58333 13.59658,2.46417 13.27697,2.46417 Z" />
  </g>
  <path
     d="m 27.407126,13.982066 c -4.6787,0 -9.09592,1.828798 -12.40323,5.138085 -3.307037,3.308865 -5.1345657,7.724537 -5.1345657,12.403237 0,4.676729 1.8252737,9.0924 5.1345657,12.399855 3.30886,3.307032 7.72453,5.134561 12.40323,5.134561 4.6787,0 9.09593,-1.827247 12.40324,-5.134561 3.30731,-3.307314 5.13456,-7.721153 5.13456,-12.399855 0,-4.678418 -1.82556,-9.094231 -5.13456,-12.403237 -3.30887,-3.308864 -7.72454,-5.138085 -12.40324,-5.138085 z m 0,1.753808 c 2.14145,0 4.20649,0.435802 6.11775,1.239986 -1.88307,-0.796191 -3.94994,-1.239986 -6.11775,-1.239986 z m 0,0 c -2.1678,0 -4.23454,0.443795 -6.11775,1.239986 1.9114,-0.804184 3.97631,-1.239986 6.11775,-1.239986 z m 0,1.753808 c 7.74441,0 14.03032,6.285912 14.03032,14.030325 0,7.74441 -6.28591,14.030321 -14.03032,14.030321 -7.74441,0 -14.03032,-6.285911 -14.03032,-14.030321 0,-7.744413 6.28591,-14.030325 14.03032,-14.030325 z m -14.54412,7.919483 c -0.778567,1.843599 -1.19868,3.869598 -1.216004,5.987503 0.01699,-2.093379 0.429318,-4.116418 1.216004,-5.987503 z m 29.08824,0 c 0.78646,1.871085 1.19904,3.894124 1.21601,5.987503 -0.0174,-2.117905 -0.43744,-4.143904 -1.21601,-5.987503 z m -30.328672,6.114223 c 4.73e-4,2.166536 0.444217,4.232144 1.239982,6.114226 -0.803757,-1.91126 -1.239982,-3.973627 -1.239982,-6.114226 z m 31.567702,0 c 0,2.141446 -0.43602,4.203248 -1.23999,6.114226 0.79577,-1.882082 1.23951,-3.94769 1.23999,-6.114226 z m -23.55279,13.434351 c -33.094282,3.262065 -16.547141,1.631033 0,0 z m 7.7688,2.346398 c -38.274517,1.697847 -19.1365557,0.84891 0,0 z"
     dominant-baseline="auto"
     style="color:#000000;font-variant-ligatures:normal;font-variant-position:normal;font-variant-caps:normal;font-variant-numeric:normal;font-variant-alternates:normal;font-feature-settings:normal;text-indent:0;text-decoration:none;text-decoration-line:none;text-decoration-style:solid;text-decoration-color:#000000;text-transform:none;text-orientation:mixed;dominant-baseline:auto;white-space:normal;shape-padding:0;isolation:auto;mix-blend-mode:normal;solid-color:#000000;fill:#73b746;stroke:none;stroke-width:1.40958679;color-rendering:auto;image-rendering:auto;shape-rendering:auto;enable-background:accumulate"
     id="path22-2-3"
     inkscape:connector-curvature="0" />
</svg>
