<!-- Generated by IcoMoon.io -->
<svg version="1.1" xmlns="http://www.w3.org/2000/svg" width="20" height="20" viewBox="0 0 20 20">
<title>message-attach</title>
<path fill="#73b746" d="M9.5 1.998c-2.515 0-4.885 0.766-6.672 2.156-0.881 0.686-1.574 1.487-2.061 2.381-0.51 0.938-0.768 1.936-0.768 2.965 0 2.038 1.047 3.986 2.885 5.393-0.249 0.69-0.952 2.164-2.643 3.178-0.193 0.115-0.285 0.346-0.225 0.563s0.257 0.367 0.482 0.367l0.002 0.002c1.030 0 2.305-0.375 3.793-1.115 0.958-0.477 1.761-0.985 2.189-1.272 0.969 0.256 1.983 0.387 3.016 0.387 2.515 0 4.885-0.766 6.672-2.156 0.063-0.049 0.117-0.104 0.178-0.154 0.501-0.685-0.232-1.265-0.684-0.73-1.55 1.252-3.738 2.039-6.166 2.039-1.021 0-2.021-0.137-2.969-0.408-0.144-0.041-0.297-0.017-0.42 0.068-1.035 0.712-2.438 1.503-3.74 1.959 1.065-1.155 1.463-2.353 1.58-2.789 0.054-0.203-0.023-0.416-0.195-0.537-1.751-1.23-2.756-2.978-2.756-4.793 0-3.584 3.813-6.5 8.5-6.5 0.682 0 1.343 0.069 1.978 0.186 0.922 0.269 0.928-0.849 0.193-0.982-0.705-0.13-1.43-0.205-2.172-0.205z"></path>
<path fill="#73b746" d="M12.951 7.959q0 0.413-0.055 0.844-0.049 0.431-0.164 0.838t-0.304 0.771q-0.188 0.358-0.462 0.632t-0.638 0.431q-0.358 0.152-0.826 0.152-0.249 0-0.462-0.055-0.213-0.061-0.376-0.17t-0.279-0.279q-0.109-0.176-0.152-0.401-0.243 0.243-0.474 0.419-0.225 0.17-0.443 0.279t-0.431 0.158q-0.206 0.049-0.407 0.049-0.261 0-0.462-0.049-0.2-0.055-0.358-0.152-0.152-0.103-0.261-0.249t-0.182-0.328-0.103-0.401-0.030-0.474q0-0.261 0.042-0.595 0.042-0.34 0.14-0.698t0.267-0.698q0.17-0.346 0.419-0.613 0.255-0.273 0.601-0.437 0.346-0.17 0.808-0.17 0.194 0 0.37 0.049 0.182 0.042 0.346 0.14t0.316 0.243 0.31 0.346l0.103-0.534q0.024-0.085 0.109-0.128t0.316-0.042q0.109 0 0.182 0.012 0.079 0.012 0.121 0.036 0.043 0.018 0.055 0.049 0.018 0.030 0.006 0.073l-0.54 2.793q-0.097 0.528 0.049 0.783 0.146 0.249 0.553 0.249 0.249 0 0.449-0.121 0.2-0.128 0.352-0.34t0.255-0.492q0.103-0.285 0.17-0.595 0.067-0.316 0.097-0.644t0.030-0.632q0-0.528-0.146-1.002-0.14-0.48-0.486-0.838-0.346-0.364-0.929-0.577-0.577-0.219-1.451-0.219-0.717 0-1.275 0.158t-0.984 0.431q-0.425 0.267-0.729 0.619t-0.516 0.753q-0.206 0.395-0.334 0.814-0.128 0.413-0.194 0.802-0.067 0.383-0.091 0.723-0.018 0.34-0.018 0.577 0 0.674 0.152 1.233 0.158 0.559 0.54 0.966t1.026 0.632 1.621 0.225q0.443 0 0.802-0.055 0.358-0.049 0.619-0.109 0.267-0.055 0.431-0.109 0.164-0.049 0.225-0.049 0.036 0 0.061 0.018 0.030 0.024 0.043 0.067 0.018 0.049 0.024 0.115 0.006 0.073 0.006 0.176 0 0.085-0.006 0.14 0 0.055-0.012 0.097-0.012 0.049-0.036 0.085-0.018 0.036-0.055 0.067t-0.213 0.091q-0.17 0.061-0.468 0.121-0.291 0.061-0.686 0.103t-0.868 0.043q-1.136 0-1.925-0.267-0.783-0.267-1.281-0.765-0.492-0.498-0.71-1.196t-0.219-1.561q0-0.316 0.030-0.723 0.036-0.413 0.128-0.874 0.097-0.468 0.267-0.947 0.17-0.486 0.437-0.947 0.273-0.462 0.656-0.868 0.389-0.413 0.911-0.717 0.528-0.31 1.202-0.486 0.68-0.176 1.536-0.176 0.996 0 1.719 0.243 0.729 0.237 1.202 0.674t0.704 1.069q0.231 0.625 0.231 1.397zM9.429 8.354q-0.231-0.389-0.474-0.595t-0.553-0.206q-0.255 0-0.462 0.128-0.206 0.121-0.358 0.322-0.152 0.194-0.261 0.443-0.103 0.249-0.17 0.51t-0.097 0.51q-0.024 0.243-0.024 0.431 0 0.449 0.158 0.692 0.164 0.243 0.547 0.243 0.146 0 0.298-0.049 0.152-0.055 0.322-0.158 0.17-0.109 0.358-0.279 0.194-0.176 0.425-0.413z"></path>
<path fill="#73b746" d="M17.034 12.373c-1.514 0-2.746-1.232-2.746-2.746v-7.322c0-1.178 0.958-2.136 2.136-2.136s2.136 0.958 2.136 2.136v6.712c0 0.841-0.685 1.525-1.525 1.525s-1.525-0.685-1.525-1.525v-3.661c0-0.168 0.137-0.305 0.305-0.305s0.305 0.137 0.305 0.305v3.661c0 0.505 0.411 0.915 0.915 0.915s0.915-0.411 0.915-0.915v-6.712c0-0.841-0.685-1.525-1.525-1.525s-1.525 0.685-1.525 1.525v7.322c0 1.178 0.958 2.136 2.136 2.136s2.136-0.958 2.136-2.136v-4.271c0-0.168 0.137-0.305 0.305-0.305s0.305 0.137 0.305 0.305v4.271c0 1.514-1.232 2.746-2.746 2.746z"></path>
</svg>
