<!-- Generated by IcoMoon.io -->
<svg version="1.1" xmlns="http://www.w3.org/2000/svg" width="20" height="20" viewBox="0 0 20 20">
<title>save-next</title>
<path fill="#73b746" d="M13.5 6h-2c-0.276 0-0.5-0.224-0.5-0.5v-3c0-0.276 0.224-0.5 0.5-0.5h2c0.276 0 0.5 0.224 0.5 0.5v3c0 0.276-0.224 0.5-0.5 0.5zM12 5h1v-2h-1v2z"></path>
<path fill="#73b746" d="M0.5 0c-0.276 0-0.5 0.224-0.5 0.5v19c0 0.276 0.224 0.5 0.5 0.5h12.211c0.74 0 0.753-1 0-1h-8.711v-8h8.543c0.799 0 0.812-1 0-1h-9.043c-0.276 0-0.5 0.224-0.5 0.5v8.5h-2v-18h4v6.5c0 0.276 0.224 0.5 0.5 0.5h10c0.276 0 0.5-0.224 0.5-0.5v-6.5h0.793l2.207 2.207v7.811c0 0.636 1 0.725 1 0v-8.018c0-0.133-0.053-0.26-0.146-0.354l-2.5-2.5c-0.094-0.094-0.221-0.146-0.354-0.146zM6 1h9v6h-9z"></path>
<path fill="#73b746" d="M15.914 10.51c-0.116 0-0.231 0.043-0.318 0.131-0.175 0.175-0.175 0.464 0 0.639l2.838 2.838h-9.438c-0.247 0-0.451 0.204-0.451 0.451s0.204 0.453 0.451 0.453h9.438l-2.838 2.838c-0.175 0.175-0.175 0.462 0 0.637 0.088 0.088 0.204 0.133 0.318 0.133s0.233-0.044 0.32-0.131l3.609-3.609c0.117-0.117 0.161-0.166 0.121-0.316 0.019-0.167-0.064-0.265-0.121-0.322h-0.002l-3.607-3.609c-0.087-0.087-0.204-0.131-0.32-0.131z"></path>
</svg>
