<!-- Generated by IcoMoon.io -->
<svg version="1.1" xmlns="http://www.w3.org/2000/svg" width="20" height="20" viewBox="0 0 20 20">
<title>filetype-pdf</title>
<path fill="#003665" d="M15.99 7.458c-0.248-0.244-0.796-0.373-1.632-0.384-0.565-0.006-1.246 0.044-1.962 0.144-0.32-0.185-0.651-0.386-0.91-0.628-0.698-0.651-1.28-1.555-1.643-2.55 0.024-0.093 0.044-0.175 0.063-0.258 0 0 0.393-2.232 0.289-2.986-0.015-0.103-0.023-0.133-0.051-0.214l-0.034-0.088c-0.107-0.247-0.316-0.508-0.645-0.493l-0.198-0.006c-0.366 0-0.665 0.187-0.743 0.467-0.239 0.879 0.008 2.192 0.453 3.894l-0.114 0.277c-0.319 0.778-0.718 1.561-1.071 2.252l-0.046 0.090c-0.371 0.726-0.708 1.342-1.013 1.864l-0.315 0.167c-0.023 0.012-0.563 0.298-0.689 0.374-1.075 0.642-1.787 1.37-1.905 1.948-0.038 0.185-0.010 0.421 0.182 0.53l0.305 0.153c0.132 0.066 0.272 0.1 0.414 0.1 0.765 0 1.654-0.953 2.878-3.090 1.413-0.46 3.022-0.843 4.432-1.053 1.075 0.605 2.396 1.025 3.231 1.025 0.148 0 0.276-0.014 0.38-0.042 0.16-0.042 0.295-0.133 0.377-0.258 0.162-0.244 0.194-0.579 0.151-0.923-0.013-0.102-0.095-0.228-0.183-0.314zM4.558 11.531c0.14-0.382 0.692-1.136 1.509-1.805 0.051-0.042 0.178-0.16 0.294-0.27-0.854 1.363-1.426 1.905-1.803 2.076zM9.396 0.39c0.246 0 0.386 0.62 0.398 1.201s-0.124 0.989-0.293 1.291c-0.14-0.447-0.207-1.151-0.207-1.612 0 0-0.010-0.88 0.103-0.88zM7.953 8.329c0.171-0.307 0.35-0.63 0.532-0.973 0.444-0.84 0.725-1.497 0.934-2.037 0.416 0.756 0.933 1.399 1.541 1.913 0.076 0.064 0.156 0.129 0.241 0.193-1.237 0.245-2.306 0.543-3.247 0.904zM15.752 8.26c-0.075 0.047-0.291 0.074-0.43 0.074-0.448 0-1.002-0.205-1.779-0.538 0.299-0.022 0.572-0.033 0.818-0.033 0.449 0 0.583-0.002 1.022 0.11s0.445 0.339 0.37 0.387z"></path>
<path fill="#003665" d="M4.407 17.541h-1.102v1.681q0 0.36-0.17 0.547t-0.429 0.186q-0.271 0-0.437-0.182-0.166-0.186-0.166-0.543v-4.576q0-0.397 0.182-0.567t0.579-0.17h1.543q0.684 0 1.053 0.105 0.364 0.101 0.628 0.336 0.267 0.235 0.405 0.575t0.138 0.765q0 0.907-0.559 1.377-0.559 0.466-1.664 0.466zM4.116 14.82h-0.81v1.814h0.81q0.425 0 0.709-0.089 0.288-0.089 0.437-0.292t0.15-0.531q0-0.393-0.231-0.64-0.259-0.263-1.065-0.263z"></path>
<path fill="#003665" d="M8.388 13.916h1.567q0.612 0 1.049 0.113t0.794 0.425q0.927 0.794 0.927 2.414 0 0.535-0.093 0.976t-0.288 0.798q-0.194 0.352-0.498 0.632-0.239 0.215-0.522 0.344t-0.612 0.182q-0.324 0.053-0.733 0.053h-1.567q-0.328 0-0.494-0.097-0.166-0.101-0.219-0.279-0.049-0.182-0.049-0.47v-4.353q0-0.389 0.174-0.563t0.563-0.174zM8.854 14.868v4.030h0.911q0.3 0 0.47-0.016t0.352-0.081 0.316-0.182q0.603-0.51 0.603-1.758 0-0.879-0.267-1.316-0.263-0.437-0.652-0.555-0.389-0.122-0.94-0.122z"></path>
<path fill="#003665" d="M17.33 14.844h-2.369v1.519h1.98q0.275 0 0.409 0.126 0.138 0.122 0.138 0.328t-0.138 0.328-0.409 0.122h-1.98v1.956q0 0.373-0.17 0.555-0.166 0.178-0.429 0.178-0.267 0-0.437-0.182-0.166-0.182-0.166-0.551v-4.568q0-0.259 0.077-0.421 0.077-0.166 0.239-0.239 0.166-0.077 0.421-0.077h2.835q0.288 0 0.425 0.13 0.142 0.126 0.142 0.332 0 0.211-0.142 0.34-0.138 0.126-0.425 0.126z"></path>
</svg>
