<!-- Generated by IcoMoon.io -->
<svg version="1.1" xmlns="http://www.w3.org/2000/svg" width="20" height="20" viewBox="0 0 20 20">
<title>filetype-png</title>
<path fill="#003665" d="M15.849 1.302c0 0 0.001 0.001 0.002 0.002v10.028c-0 0-0.001 0.001-0.002 0.002h-11.7c-0-0-0.001-0.001-0.002-0.002v-10.028c0-0 0.001-0.001 0.002-0.002zM15.851 0.466h-11.703c-0.46 0-0.836 0.376-0.836 0.836v10.031c0 0.46 0.376 0.836 0.836 0.836h11.703c0.46 0 0.836-0.376 0.836-0.836v-10.031c0-0.46-0.376-0.836-0.836-0.836z"></path>
<path fill="#003665" d="M14.179 3.392c0 0.693-0.561 1.254-1.254 1.254s-1.254-0.561-1.254-1.254c0-0.693 0.561-1.254 1.254-1.254s1.254 0.561 1.254 1.254z"></path>
<path fill="#003665" d="M15.015 10.497h-10.031v-1.672l2.926-5.016 3.344 4.18h0.836l2.926-2.508z"></path>
<path fill="#003665" d="M3.935 17.451h-1.056v1.611q0 0.345-0.163 0.524t-0.411 0.179q-0.26 0-0.419-0.175-0.159-0.179-0.159-0.52v-4.386q0-0.38 0.175-0.543t0.555-0.163h1.479q0.656 0 1.009 0.101 0.349 0.097 0.602 0.322 0.256 0.225 0.388 0.551t0.132 0.734q0 0.869-0.536 1.32-0.536 0.446-1.595 0.446zM3.655 14.843h-0.776v1.739h0.776q0.408 0 0.679-0.085 0.276-0.085 0.419-0.279t0.144-0.508q0-0.377-0.221-0.613-0.248-0.252-1.021-0.252z"></path>
<path fill="#003665" d="M8.538 14.57l2.216 3.354v-3.385q0-0.33 0.14-0.493 0.144-0.167 0.384-0.167 0.248 0 0.392 0.167 0.144 0.163 0.144 0.493v4.475q0 0.749-0.621 0.749-0.155 0-0.279-0.047-0.124-0.043-0.233-0.14t-0.202-0.225q-0.093-0.132-0.186-0.268l-2.162-3.315v3.334q0 0.326-0.151 0.493t-0.388 0.167q-0.245 0-0.392-0.167-0.148-0.171-0.148-0.493v-4.39q0-0.279 0.062-0.439 0.074-0.175 0.245-0.283 0.171-0.113 0.369-0.113 0.155 0 0.264 0.050 0.113 0.050 0.194 0.136 0.085 0.085 0.171 0.221 0.089 0.136 0.182 0.283z"></path>
<path fill="#003665" d="M18.274 17.353v1.091q0 0.217-0.043 0.349-0.043 0.128-0.159 0.233-0.113 0.105-0.291 0.202-0.516 0.279-0.994 0.408t-1.040 0.128q-0.656 0-1.196-0.202t-0.92-0.586-0.586-0.932q-0.202-0.547-0.202-1.223 0-0.664 0.198-1.215t0.582-0.935 0.935-0.586q0.551-0.206 1.25-0.206 0.574 0 1.017 0.155 0.442 0.151 0.718 0.384t0.415 0.493 0.14 0.462q0 0.217-0.163 0.373-0.159 0.151-0.384 0.151-0.124 0-0.241-0.058-0.113-0.058-0.19-0.163-0.213-0.334-0.361-0.505t-0.4-0.287q-0.248-0.116-0.637-0.116-0.4 0-0.714 0.14-0.314 0.136-0.54 0.4-0.221 0.26-0.342 0.64-0.116 0.38-0.116 0.842 0 1.001 0.458 1.541 0.462 0.54 1.285 0.54 0.4 0 0.749-0.105 0.353-0.105 0.714-0.299v-0.924h-0.893q-0.322 0-0.489-0.097-0.163-0.097-0.163-0.33 0-0.19 0.136-0.314 0.14-0.124 0.377-0.124h1.308q0.241 0 0.408 0.043t0.268 0.19q0.105 0.148 0.105 0.442z"></path>
</svg>
