<!-- Generated by IcoMoon.io -->
<svg version="1.1" xmlns="http://www.w3.org/2000/svg" width="20" height="20" viewBox="0 0 20 20">
<title>filetype-html</title>
<path fill="#003665" d="M14.204 1.852c-1.123-1.123-2.616-1.741-4.204-1.741s-3.081 0.618-4.204 1.741c-1.123 1.123-1.741 2.616-1.741 4.204s0.618 3.081 1.741 4.204c1.123 1.123 2.616 1.741 4.204 1.741s3.081-0.618 4.204-1.741c1.123-1.123 1.741-2.616 1.741-4.204s-0.618-3.081-1.741-4.204zM14.992 4.13c-0.116-0.209-0.407-0.308-0.788-0.438-0.408-0.139-0.553-0.559-0.72-1.045-0.145-0.422-0.295-0.858-0.651-1.129 0.974 0.611 1.738 1.526 2.159 2.612zM13.324 6.169c0.045 0.402 0.092 0.819-0.408 1.381-0.135 0.152-0.214 0.363-0.298 0.586-0.194 0.518-0.377 1.007-1.157 1.014-0.022-0.026-0.084-0.125-0.139-0.436-0.051-0.287-0.080-0.658-0.111-1.049-0.048-0.602-0.102-1.284-0.25-1.85-0.19-0.724-0.51-1.151-0.976-1.307-0.203-0.068-0.411-0.101-0.635-0.101-0.165 0-0.315 0.018-0.447 0.033-0.103 0.012-0.2 0.024-0.282 0.024-0.139 0-0.297 0-0.491-0.445-0.279-0.639-0.073-1.663 0.746-2.204 0.449-0.296 0.759-0.423 1.036-0.423 0.221 0 0.46 0.077 0.798 0.257 0.4 0.213 0.713 0.24 0.941 0.24 0.090 0 0.172-0.005 0.251-0.010 0.067-0.004 0.129-0.008 0.187-0.008 0.131 0 0.237 0.017 0.361 0.102 0.229 0.156 0.348 0.502 0.473 0.867 0.19 0.554 0.406 1.182 1.091 1.415 0.092 0.032 0.25 0.085 0.363 0.132-0.097 0.1-0.259 0.244-0.417 0.386-0.102 0.092-0.218 0.195-0.347 0.312-0.371 0.338-0.327 0.734-0.288 1.083zM4.65 6.010c0.064 0.011 0.133 0.025 0.205 0.040 0.334 0.071 0.49 0.136 0.559 0.172-0.032 0.061-0.095 0.152-0.137 0.211-0.147 0.209-0.33 0.468-0.26 0.754 0.047 0.193 0.007 0.43-0.061 0.649-0.197-0.558-0.305-1.157-0.305-1.781 0-0.015 0.001-0.030 0.001-0.046zM10 11.406c-2.036 0-3.811-1.144-4.715-2.822 0.156-0.297 0.445-0.953 0.31-1.527 0.010-0.058 0.108-0.197 0.166-0.281 0.161-0.229 0.361-0.513 0.213-0.814-0.104-0.212-0.383-0.354-0.931-0.478-0.127-0.029-0.251-0.052-0.356-0.070 0.319-2.649 2.579-4.708 5.312-4.708 0.938 0 1.82 0.243 2.587 0.669-0.19-0.083-0.361-0.096-0.499-0.096-0.076 0-0.15 0.004-0.223 0.009-0.071 0.004-0.144 0.008-0.216 0.008-0.169 0-0.379-0.020-0.661-0.171-0.43-0.229-0.753-0.327-1.077-0.327-0.402 0-0.81 0.156-1.363 0.521-0.479 0.316-0.839 0.798-1.015 1.36-0.172 0.548-0.153 1.108 0.052 1.578 0.242 0.554 0.561 0.801 1.036 0.801 0.117 0 0.231-0.014 0.352-0.028 0.122-0.014 0.247-0.029 0.378-0.029 0.161 0 0.303 0.023 0.446 0.070 0.261 0.087 0.454 0.38 0.589 0.894s0.187 1.169 0.232 1.746c0.038 0.482 0.074 0.936 0.153 1.279 0.048 0.208 0.11 0.366 0.19 0.483 0.119 0.175 0.291 0.271 0.482 0.271 0.526 0 0.945-0.169 1.248-0.504 0.251-0.278 0.38-0.621 0.483-0.897 0.061-0.162 0.124-0.331 0.185-0.4 0.676-0.759 0.606-1.385 0.555-1.842-0.037-0.335-0.038-0.454 0.097-0.578 0.126-0.115 0.241-0.218 0.342-0.308 0.216-0.193 0.372-0.332 0.481-0.451 0.075-0.082 0.251-0.274 0.202-0.514-0.001-0.002-0.001-0.004-0.001-0.007 0.204 0.565 0.315 1.175 0.315 1.81 0 2.951-2.4 5.351-5.351 5.351z"></path>
<path fill="#003665" d="M1.521 15.238v1.427h2.178v-1.427q0-0.306 0.136-0.459 0.139-0.153 0.364-0.153 0.228 0 0.367 0.153 0.143 0.15 0.143 0.459v3.925q0 0.309-0.143 0.462t-0.367 0.153q-0.228 0-0.364-0.153-0.136-0.156-0.136-0.462v-1.676h-2.178v1.676q0 0.309-0.143 0.462t-0.367 0.153q-0.228 0-0.364-0.153-0.136-0.156-0.136-0.462v-3.925q0-0.306 0.133-0.459 0.136-0.153 0.367-0.153 0.228 0 0.367 0.153 0.143 0.15 0.143 0.459z"></path>
<path fill="#003665" d="M9.028 15.544h-1.101v3.619q0 0.313-0.139 0.466-0.139 0.15-0.36 0.15-0.224 0-0.367-0.153-0.139-0.153-0.139-0.462v-3.619h-1.101q-0.258 0-0.384-0.112-0.126-0.116-0.126-0.302 0-0.194 0.129-0.306 0.133-0.112 0.381-0.112h3.208q0.262 0 0.387 0.116 0.129 0.116 0.129 0.302t-0.129 0.302q-0.129 0.112-0.387 0.112z"></path>
<path fill="#003665" d="M11.825 18.943l-0.799-3.174v3.439q0 0.285-0.129 0.428-0.126 0.143-0.336 0.143-0.204 0-0.333-0.139-0.129-0.143-0.129-0.432v-3.942q0-0.326 0.17-0.438 0.17-0.116 0.459-0.116h0.313q0.282 0 0.408 0.051 0.129 0.051 0.19 0.184t0.139 0.432l0.724 2.729 0.724-2.729q0.078-0.299 0.139-0.432t0.187-0.184q0.129-0.051 0.411-0.051h0.313q0.289 0 0.459 0.116 0.17 0.112 0.17 0.438v3.942q0 0.285-0.129 0.428-0.126 0.143-0.34 0.143-0.201 0-0.33-0.143t-0.129-0.428v-3.439l-0.799 3.174q-0.078 0.309-0.129 0.455-0.048 0.143-0.18 0.262t-0.367 0.119q-0.177 0-0.299-0.078-0.122-0.075-0.19-0.194t-0.109-0.262q-0.037-0.146-0.078-0.302z"></path>
<path fill="#003665" d="M16.936 15.238v3.626h2.046q0.245 0 0.374 0.119 0.133 0.119 0.133 0.299 0 0.184-0.129 0.299-0.129 0.112-0.377 0.112h-2.437q-0.33 0-0.476-0.146-0.143-0.146-0.143-0.472v-3.837q0-0.306 0.136-0.459 0.139-0.153 0.364-0.153 0.228 0 0.367 0.153 0.143 0.15 0.143 0.459z"></path>
</svg>
