<!-- Generated by IcoMoon.io -->
<svg version="1.1" xmlns="http://www.w3.org/2000/svg" width="20" height="20" viewBox="0 0 20 20">
<title>filetype-tif</title>
<path fill="#003665" d="M15.849 1.302c0 0 0.001 0.001 0.002 0.002v10.028c-0 0-0.001 0.001-0.002 0.002h-11.7c-0-0-0.001-0.001-0.002-0.002v-10.028c0-0 0.001-0.001 0.002-0.002zM15.851 0.466h-11.703c-0.46 0-0.836 0.376-0.836 0.836v10.031c0 0.46 0.376 0.836 0.836 0.836h11.703c0.46 0 0.836-0.376 0.836-0.836v-10.031c0-0.46-0.376-0.836-0.836-0.836z"></path>
<path fill="#003665" d="M14.179 3.392c0 0.693-0.561 1.254-1.254 1.254s-1.254-0.561-1.254-1.254c0-0.693 0.561-1.254 1.254-1.254s1.254 0.561 1.254 1.254z"></path>
<path fill="#003665" d="M15.015 10.497h-10.031v-1.672l2.926-5.016 3.344 4.18h0.836l2.926-2.508z"></path>
<path fill="#003665" d="M8.262 14.997h-1.266v4.16q0 0.359-0.16 0.535-0.16 0.172-0.414 0.172-0.258 0-0.422-0.176-0.16-0.176-0.16-0.531v-4.16h-1.266q-0.297 0-0.441-0.129-0.145-0.133-0.145-0.348 0-0.223 0.148-0.352 0.152-0.129 0.438-0.129h3.688q0.301 0 0.445 0.133 0.148 0.133 0.148 0.348t-0.148 0.348q-0.148 0.129-0.445 0.129z"></path>
<path fill="#003665" d="M9.59 19.158v-4.512q0-0.352 0.16-0.527t0.414-0.176q0.262 0 0.422 0.176 0.164 0.172 0.164 0.527v4.512q0 0.355-0.164 0.531-0.16 0.176-0.422 0.176-0.25 0-0.414-0.176-0.16-0.18-0.16-0.531z"></path>
<path fill="#003665" d="M15.465 14.935h-2.285v1.465h1.91q0.266 0 0.395 0.121 0.133 0.117 0.133 0.316t-0.133 0.316-0.395 0.117h-1.91v1.887q0 0.359-0.164 0.535-0.16 0.172-0.414 0.172-0.258 0-0.422-0.176-0.16-0.176-0.16-0.531v-4.406q0-0.25 0.074-0.406 0.074-0.16 0.23-0.23 0.16-0.074 0.406-0.074h2.734q0.277 0 0.41 0.125 0.137 0.121 0.137 0.32 0 0.203-0.137 0.328-0.133 0.121-0.41 0.121z"></path>
</svg>
