<svg id="Layer_1" data-name="Layer 1" xmlns="http://www.w3.org/2000/svg" xmlns:xlink="http://www.w3.org/1999/xlink" viewBox="0 0 143.99987 147.04961">
  <defs>
    <style>
      .cls-1 {
        fill: url(#radial-gradient);
      }
    </style>
    <radialGradient id="radial-gradient" cx="141.97973" cy="156.09037" fx="129.8060562811036" fy="169.16197333407464" r="70.05761" gradientTransform="translate(-75.46936 -88.60079) scale(1.03866 1.03866)" gradientUnits="userSpaceOnUse">
      <stop offset="0.28045" stop-color="#00baff"/>
      <stop offset="0.97781" stop-color="#007ad7"/>
    </radialGradient>
  </defs>
  <path class="cls-1" d="M143.75484,51.37072c-1.378-5.474-8.02683-8.40949-20.26385-8.95113a59.31058,59.31058,0,0,0-45.43777-27.905C73.311,4.151,68.3548-.5993,62.99259.06026c-5.96192.71941-9.44688,8.06487-11.31221,18.29811A58.4648,58.4648,0,0,0,28.88681,34.23173c-10.91333-3.12867-17.707-2.4544-20.71623,2.051C4.922,41.14788,7.48439,48.383,15.96665,58.31375a58.33635,58.33635,0,0,0-1.86052,11.58532C3.40327,76.24086-1.14647,82.01742.24366,87.53431c1.40915,5.59246,8.59865,8.13917,18.36707,8.8251a59.26471,59.26471,0,0,0,46.85021,35.74012c4.00657,8.89864,8.798,14.95008,14.3288,14.95008a7.66136,7.66136,0,0,0,.922-.05579c5.36829-.64612,9.033-6.37374,11.1735-17.48157a58.64061,58.64061,0,0,0,17.48512-9.35939,44.6041,44.6041,0,0,0,12.57149,2.29743c4.47823,0,7.577-1.3318,9.35508-3.99541,2.88219-4.31847,1.17408-10.48377-5.19636-18.81338a58.81643,58.81643,0,0,0,5.88407-31.89812C141.19393,61.91408,145.05418,56.525,143.75484,51.37072ZM123.9411,63.06686c.0606.29618.10295.59185.15823.888-.83757.46507-1.72282.94129-2.67071,1.43172a158.48293,158.48293,0,0,1-15.21531,6.77668,7.48574,7.48574,0,0,0-12.3945,4.40418c-5.934,1.93076-12.20228,3.7393-18.67364,5.36982q-2.391.6025-4.7592,1.15227a14.11308,14.11308,0,0,0-11.31982-8.04712c-.81145-6.7356-1.37795-13.34213-1.70051-19.66718.00913-.00558.01877-.00938.02815-.015A7.501,7.501,0,0,0,57.05171,42.29a157.85425,157.85425,0,0,1,.86623-16.3605c.08191-.73868.16914-1.44135.25916-2.12525,1.49866-.44859,3.02166-.84088,4.57307-1.15811a52.36882,52.36882,0,0,1,10.49112-1.06706A51.90061,51.90061,0,0,1,123.9411,63.06686Zm-53.48336,62.186c-.27209-.69633-.547-1.418-.82541-2.17977a171.05684,171.05684,0,0,1-6.02912-21.17928,14.03389,14.03389,0,0,0,3.45351-2.2982,222.50809,222.50809,0,0,0,33.9237,17.58934,51.57507,51.57507,0,0,1-17.46,7.07286A52.16652,52.16652,0,0,1,70.45774,125.25286ZM26.546,89.29619q-1.45986.02168-2.781.00482a52.78065,52.78065,0,0,1-1.4345-5.4639,51.82751,51.82751,0,0,1-.34031-19.01066A213.04766,213.04766,0,0,0,44.40846,84.08511a14.05376,14.05376,0,0,0-.88474,3.91427A159.284,159.284,0,0,1,26.546,89.29619Zm29.80075-6.941a6.86894,6.86894,0,1,1-5.49559,8.01009A6.83793,6.83793,0,0,1,56.34676,82.35519Zm7.51612-75.077c.01217-.001.02637-.002.04158-.002.58983,0,2.86039,1.27349,5.99363,7.12865a59.97125,59.97125,0,0,0-8.60449,1.1188c-.5632.11513-1.11727.25434-1.67464.38494C61.29512,9.1851,63.2624,7.3507,63.86288,7.27817Zm-13.313,19.474c-.47014,4.95267-.68011,10.26366-.69684,15.63551-.0492.02789-.09991.0497-.1486.07886A7.50326,7.50326,0,0,0,50.163,55.59841c.357,7.43776.98415,14.5015,1.68834,20.3412.00989.08216.02155.16964.03144.25231a14.03671,14.03671,0,0,0-3.23314,1.98122A193.249,193.249,0,0,1,24.5123,56.97079c-.14454-.15469-.26727-.29543-.408-.44757A52.16921,52.16921,0,0,1,29.86791,44.871,51.52914,51.52914,0,0,1,50.54992,26.75213ZM14.218,40.31969c.30632-.459,2.83553-1.45758,9.84449.16838-.0852.12679-.177.24774-.26119.37529a59.75711,59.75711,0,0,0-5.026,9.3343C14.02372,43.84445,13.86193,40.852,14.218,40.31969ZM7.29319,85.75722c-.13744-.54773.85076-3.14541,6.93466-7.329a60.05215,60.05215,0,0,0,.98009,6.86544c.24343,1.19132.53353,2.36489.84543,3.52958C9.44812,87.99329,7.439,86.33386,7.29319,85.75722Zm37.26108,30.96317A51.54084,51.54084,0,0,1,26.69055,96.53667a169.78092,169.78092,0,0,0,18.11527-1.44338,14.123,14.123,0,0,0,11.72276,8.11964,189.33947,189.33947,0,0,0,5.80876,20.97185A51.80946,51.80946,0,0,1,44.55427,116.72039Zm35.2872,23.05552c-.604.08419-2.90907-1.20957-6.08542-7.19711a59.653,59.653,0,0,0,10.22157-1.02016C82.29714,138.03027,80.3674,139.71277,79.84147,139.77591Zm45.4081-25.358c-.33219.49854-2.83452,1.40078-9.44789-.07911a59.58724,59.58724,0,0,0,6.30248-7.82042C125.48819,111.53189,125.57618,113.92923,125.24957,114.41788Zm-17.44-2.43843c-.61721-.21757-1.23316-.43463-1.89094-.6806C95.68085,107.468,83.5374,101.25732,71.03489,93.50866a14.03711,14.03711,0,0,0,.64688-3.26484c1.83288-.42069,3.59374-.84214,5.24049-1.257,6.70542-1.68935,13.20924-3.56889,19.37175-5.581a7.47894,7.47894,0,0,0,12.30523-4.37527,166.41922,166.41922,0,0,0,16.16954-7.18672c.06416-.03322.12172-.06568.18562-.0989A51.97276,51.97276,0,0,1,107.80959,111.97945Zm22.85088-52.12368a59.55275,59.55275,0,0,0-3.23112-9.83942c7.05739.81348,9.135,2.57231,9.276,3.13044C136.84833,53.71583,135.90146,56.08275,130.66047,59.85577Z"/>
</svg>
