<?xml version="1.0" encoding="UTF-8"?>
<svg width="370pt" version="1.1" xmlns="http://www.w3.org/2000/svg" height="70pt" viewBox="0 0 370 70" xmlns:xlink="http://www.w3.org/1999/xlink">
 <defs/>
 <g id="Background">
  <path style="fill:#003765; fill-rule:nonzero;stroke:none;" d="M18.56 31.68 C12.16 31.44 7.04 28.72 3.92 22.96 C0 15.6 2.8 6.32 10.24 2.24 C12.96 0.72 15.76 0 18.96 0.08 C26.24 0.16 32.24 4.64 34.4 10.96 C36.8 18 33.76 25.84 27.36 29.52 C24.56 30.96 21.6 31.68 18.56 31.68 Z M9.28 15.84 C9.28 21.04 13.28 25.04 18.64 25.04 C23.92 25.04 28.08 21.12 28.08 15.92 C28.08 10.72 24.08 6.72 18.72 6.72 C13.28 6.64 9.28 10.48 9.28 15.84 Z" transform="translate(138.72, 21.76)"/>
  <path style="fill:#00afef; fill-rule:nonzero;stroke:none;" d="M17.28 31.52 C12.32 31.28 7.2 28.72 4 22.96 C0 15.6 2.8 6.32 10.16 2.24 C12.88 0.72 15.84 0 18.88 0.08 C26.16 0.16 32.16 4.64 34.16 10.96 C36.56 18 33.6 25.84 27.12 29.52 C24.48 30.88 21.84 31.52 17.28 31.52 Z M9.36 15.76 C9.36 20.96 13.36 24.96 18.72 24.96 C24.08 24.96 28.16 20.96 28.16 15.76 C28.16 10.56 24.16 6.64 18.8 6.64 C13.36 6.56 9.36 10.56 9.36 15.76 Z" transform="translate(333.44, 21.84)"/>
  <path style="fill:#003765; fill-rule:nonzero;stroke:none;" d="M15.44 6.56 C15.2 6.48 15.04 6.56 14.8 6.56 C10.16 6.56 5.36 6.56 0.72 6.56 C0 6.56 0 6.56 0 5.84 C0 4.08 0 2.4 0 0.64 C0 0.08 0.24 0 0.64 0 C8.48 0 16.24 0 24 0 C24.4 0 24.64 0.08 24.64 0.64 C24.64 2.48 24.64 4.4 24.64 6.32 C24.64 6.64 24.56 6.96 24.32 7.2 C21.68 9.92 19.12 12.72 16.48 15.44 C14.08 17.92 11.68 20.56 9.28 23.04 C9.2 23.12 9.04 23.28 8.96 23.36 C9.2 23.44 9.36 23.44 9.6 23.44 C14.4 23.44 19.04 23.44 23.84 23.44 C24.72 23.44 24.72 23.44 24.72 24.32 C24.72 26.08 24.72 27.76 24.72 29.44 C24.72 29.84 24.64 30.08 24.08 30.08 C16.24 30.08 8.48 30.08 0.64 30.08 C0.08 30.08 5.68434e-14 29.84 5.68434e-14 29.44 C5.68434e-14 27.52 5.68434e-14 25.52 5.68434e-14 23.68 C5.68434e-14 23.36 0.08 23.04 0.32 22.8 C4 18.88 7.68 14.96 11.36 11.2 C12.64 9.92 14 8.48 15.28 7.04 C15.28 6.8 15.52 6.8 15.44 6.56 Z" transform="translate(266.4, 22.64)"/>
  <path style="fill:#003765; fill-rule:nonzero;stroke:none;" d="M28.16 9.36 C28.16 12.16 28.24 14.88 28.16 17.68 C28.08 20.32 27.44 22.8 26.08 25.04 C24.56 27.52 22.4 29.2 19.6 30 C15.84 31.12 12.08 31.2 8.32 29.92 C4.64 28.72 2.24 26.24 0.96 22.56 C0.32 20.72 0 18.8 0 16.72 C0 11.44 0 6.08 0 0.8 C0 0.08 0 0.08 0.72 0.08 C2.56 0.08 4.4 0.08 6.24 0.08 C6.96 0.08 6.96 0.08 6.96 0.8 C6.96 6.08 6.96 11.44 6.96 16.64 C6.96 17.92 7.2 19.28 7.6 20.4 C8.48 22.32 10 23.52 12.16 24 C13.6 24.24 14.88 24.24 16.32 23.92 C18.96 23.28 20.8 21.2 21.12 18.24 C21.2 17.6 21.2 16.96 21.2 16.32 C21.2 11.12 21.2 5.92 21.2 0.72 C21.2 0 21.2 0 21.92 0 C23.76 0 25.6 0 27.36 0 C28.08 0 28.08 0 28.08 0.72 C28.16 3.68 28.16 6.56 28.16 9.36 L28.16 9.36 Z" transform="translate(219.44, 22.48)"/>
  <path style="fill:#003765; fill-rule:nonzero;stroke:none;" d="M12.8 31.84 C8.64 31.84 5.52 30.96 2.56 28.72 C1.68 28.08 0.96 27.28 0.32 26.32 C0.08 26 0 25.76 0.4 25.6 C1.84 24.72 3.2 23.84 4.56 22.88 C4.8 22.8 4.96 22.64 5.2 22.88 C6.32 24.32 7.92 24.8 9.52 25.28 C11.44 25.68 13.76 25.84 16.72 25.2 C17.28 25.12 17.84 24.88 18.24 24.56 C19.52 23.68 19.68 22.16 18.32 21.2 C17.68 20.64 16.8 20.32 16.08 20.08 C14 19.52 10.88 18.96 8.8 18.32 C6.88 17.76 5.04 16.88 3.52 15.6 C0.4 12.8 0.08 7.92 2.64 4.56 C4.48 2.16 6.88 0.96 9.68 0.56 C13.04 0 17.36 0.24 20.4 1.76 C21.84 2.4 23.04 3.36 24 4.48 C24.24 4.8 24.32 5.04 24 5.2 C22.8 6.4 21.6 7.44 20.4 8.64 C20.08 8.88 20 8.88 19.68 8.64 C17.76 7.36 15.12 6.4 12.08 6.56 C11.2 6.56 10.32 6.8 9.44 7.12 C7.52 8 7.52 10.4 9.12 11.44 C10.08 12.08 11.04 12.4 12.16 12.72 C14.32 13.28 17.68 13.84 19.76 14.48 C21.04 14.88 22.24 15.6 23.36 16.32 C26.48 18.56 27.6 23.84 24.64 27.28 C22.56 29.68 20 30.88 16.96 31.44 C15.84 31.76 13.44 31.84 12.8 31.84 Z" transform="translate(98.24, 21.6)"/>
  <path style="fill:#003765; fill-rule:nonzero;stroke:none;" d="M0.08 21.12 C0.08 14.4 0.08 7.52 0.08 0.72 C0.08 0 0.8 0 0.8 0 L6.32 0 C6.32 0 6.96 0.08 6.96 0.64 C6.96 14.32 6.96 28 6.96 41.68 C6.96 42.24 6.88 42.32 6.32 42.32 C4.48 42.32 2.56 42.32 0.64 42.32 C0.08 42.32 0 42.08 0 41.6 C0.08 34.8 0.08 27.92 0.08 21.12 Z" transform="translate(192.48, 10.32)"/>
  <path style="fill:#00afef; fill-rule:nonzero;stroke:none;" d="M6.88 15.04 C6.88 19.84 6.88 24.56 6.88 29.36 C6.88 30.08 6.88 30.08 6.16 30.08 C4.32 30.08 2.48 30.08 0.64 30.08 C0.08 30.08 0 30 0 29.44 C0 19.92 0 10.24 0 0.64 C0 0.08 0.64 0 0.64 0 L6.32 0 C6.32 0 7.04 0 7.04 0.72 C6.88 5.52 6.88 10.24 6.88 15.04 Z" transform="translate(310.56, 22.56)"/>
  <path style="fill:#00afef; fill-rule:nonzero;stroke:none;" d="M68.423 33.7048 C65.9975 32.3352 62.8533 32.4245 60.0984 34.0621 L36.3525 47.6393 L12.6365 33.943 C8.35449 31.6504 6.25838 28.8813 6.25838 25.6657 C6.25838 24.5045 6.70755 23.5815 7.30643 23.1348 L7.54599 23.0157 C8.23471 22.6584 9.04321 23.0157 9.73193 23.373 L34.9751 37.8732 C35.9033 38.439 37.0712 38.439 37.9994 37.8732 L66.9257 21.2888 C67.0455 21.2888 67.0455 21.1697 67.0455 21.1697 C67.2851 21.0506 67.4048 20.9315 67.4947 20.8124 C67.6145 20.6933 67.7342 20.5742 67.854 20.3658 C67.854 20.2467 67.9738 20.2467 67.9738 20.1276 C67.9738 20.0085 67.9738 19.8894 68.0936 19.7703 C68.2133 19.5321 68.2133 19.413 68.3331 19.2046 C68.3331 18.9664 68.3331 18.8473 68.3331 18.6389 C68.3331 18.4007 68.3331 18.2816 68.3331 18.0732 C68.3331 17.8647 68.2133 17.7159 68.0936 17.5074 C68.0936 17.3883 68.0936 17.2692 67.9738 17.1501 C67.9738 17.0311 67.854 17.0311 67.854 16.912 C67.7342 16.7929 67.6145 16.5547 67.4947 16.4653 C67.3749 16.376 67.1353 16.2271 67.0455 16.108 C66.9257 16.108 66.9257 15.9889 66.806 15.9889 L44.3477 4.01957 C37.2808 0 31.8309 2.05444 27.459 4.58528 L4.64138 17.7159 C4.5216 17.7159 4.5216 17.7159 4.40183 17.835 C4.28205 17.835 4.28205 17.9541 4.16227 17.9541 L3.59333 18.3114 C3.234 18.5496 2.90461 18.8771 2.66505 19.1153 C1.04805 20.7231 0.119778 23.0157 0.119778 25.6657 C0.119778 29.5661 1.73678 35.1042 9.61215 39.2429 L34.7355 53.7431 C35.6638 54.3088 36.8316 54.3088 37.7599 53.7431 L63.003 39.362 C63.6917 39.0047 64.62 38.6772 65.3087 39.0047 C65.9975 39.362 66.4766 40.4934 66.4766 41.6546 C66.4766 43.9473 65.6681 46.7163 60.0086 50.051 L36.3525 63.5389 L4.97077 45.4658 C3.59333 44.6618 1.617 45.1085 0.808499 46.627 C0 48.1157 0.449166 49.9617 1.97633 50.7656 L34.8553 69.6427 C35.3044 69.8809 35.9033 70 36.3525 70 C36.8017 70 37.4006 69.8809 37.8497 69.6427 L63.0929 55.1425 C67.1353 52.7308 72.5852 48.8005 72.5852 41.5653 C72.5852 38.2008 71.088 35.2233 68.423 33.7048 Z M30.5732 9.76606 C34.9751 7.23522 37.7599 7.11612 41.4431 9.31944 L59.1402 18.758 L36.3525 31.6504 L14.3434 18.9962 L30.5732 9.76606 Z" transform="translate(1, -1)"/>
 </g>
</svg>
