<?xml version="1.0" encoding="UTF-8"?>
<svg width="200pt" version="1.1" xmlns="http://www.w3.org/2000/svg" height="200pt" viewBox="0 0 200 200" xmlns:xlink="http://www.w3.org/1999/xlink">
 <defs/>
 <g id="Background">
  <path style="fill:#00afef; fill-rule:nonzero;stroke:none;" d="M188.532 92.8696 C181.848 89.0958 173.185 89.3419 165.594 93.8541 L100.165 131.265 L34.8184 93.526 C23.0198 87.209 17.2442 79.579 17.2442 70.7188 C17.2442 67.5193 18.4819 64.9761 20.132 63.7452 L20.7921 63.4171 C22.6898 62.4326 24.9175 63.4171 26.8152 64.4016 L96.3698 104.355 C98.9273 105.914 102.145 105.914 104.703 104.355 L184.406 58.6588 C184.736 58.6588 184.736 58.3306 184.736 58.3306 C185.396 58.0025 185.726 57.6743 185.974 57.3461 C186.304 57.018 186.634 56.6898 186.964 56.1156 C186.964 55.7874 187.294 55.7874 187.294 55.4592 C187.294 55.1311 187.294 54.8029 187.624 54.4747 C187.954 53.8184 187.954 53.4902 188.284 52.916 C188.284 52.2597 188.284 51.9315 188.284 51.3573 C188.284 50.701 188.284 50.3728 188.284 49.7986 C188.284 49.2241 187.954 48.8141 187.624 48.2396 C187.624 47.9114 187.624 47.5833 187.294 47.2551 C187.294 46.9272 186.964 46.9272 186.964 46.599 C186.634 46.2709 186.304 45.6145 185.974 45.3682 C185.644 45.1221 184.983 44.7119 184.736 44.3837 C184.406 44.3837 184.406 44.0555 184.076 44.0555 L122.195 11.0755 C102.723 0 87.7063 5.66077 75.6601 12.6342 L12.7888 48.8141 C12.4587 48.8141 12.4587 48.8141 12.1287 49.1422 C11.7987 49.1422 11.7987 49.4704 11.4686 49.4704 L9.901 50.4549 C8.91091 51.1112 8.00331 52.0136 7.34323 52.67 C2.88778 57.1001 0.330034 63.4171 0.330034 70.7188 C0.330034 81.4659 4.78549 96.7255 26.4852 108.129 L95.7096 148.083 C98.2674 149.642 101.485 149.642 104.043 148.083 L173.597 108.457 C175.495 107.473 178.053 106.57 179.95 107.473 C181.848 108.457 183.168 111.575 183.168 114.774 C183.168 121.092 180.941 128.721 165.347 137.91 L100.165 175.074 L13.6964 125.276 C9.901 123.06 4.45545 124.291 2.22772 128.475 C0 132.577 1.23762 137.664 5.44555 139.879 L96.0397 191.892 C97.2771 192.549 98.9273 192.877 100.165 192.877 C101.403 192.877 103.053 192.549 104.29 191.892 L173.845 151.939 C184.983 145.294 200 134.464 200 114.528 C200 105.258 195.875 97.0537 188.532 92.8696 Z M84.2409 26.9092 C96.3698 19.9358 104.043 19.6076 114.192 25.6786 L162.954 51.6855 L100.165 87.209 L39.5216 52.3418 L84.2409 26.9092 Z" transform="translate(0, 2)"/>
 </g>
</svg>
