<?xml version="1.0" encoding="UTF-8"?>
<svg width="753.75pt" version="1.1" xmlns="http://www.w3.org/2000/svg" height="355.75pt" viewBox="0 0 753.75 355.75" xmlns:xlink="http://www.w3.org/1999/xlink">
 <defs>
  <clipPath id="Clip0">
   <path d="M0 0 L753.75 0 L753.75 355.75 L0 355.75 L0 0 Z" transform="translate(0, 0)"/>
  </clipPath>
  <clipPath id="Clip1">
   <path d="M0 0 L327 0 L327 52.23 L0 52.23 L0 0 Z" transform="translate(345.36, 151.76)"/>
  </clipPath>
 </defs>
 <g id="Background">
  <g id="Group6" clip-path="url(#Clip0)">
   <path style="fill:#161413; fill-rule:evenodd;stroke:none;" d="M90 0 L663.75 0 C713.456 0 753.75 40.2944 753.75 90 L753.75 265.75 C753.75 315.456 713.456 355.75 663.75 355.75 L90 355.75 C40.2944 355.75 0 315.456 0 265.75 L0 90 C0 40.2944 40.2944 0 90 0 Z" transform="translate(0, 0)"/>
   <g id="Group1" clip-path="url(#Clip1)">
    <path style="fill:#ffffff; fill-rule:evenodd;stroke:none;" d="M22.3326 38.1607 C14.6317 37.8716 8.471 34.5951 4.71681 27.6568 C0 18.7912 3.36915 7.61286 12.3215 2.69823 C15.5943 0.867288 18.9635 0 22.814 0.0963653 C31.5737 0.192731 38.7933 5.58919 41.3924 13.202 C44.2802 21.6822 40.6223 31.126 32.9214 35.5588 C29.5523 37.2934 25.9906 38.1607 22.3326 38.1607 Z M11.1663 19.0803 C11.1663 25.3441 15.9794 30.1623 22.4289 30.1623 C28.7822 30.1623 33.7878 25.4404 33.7878 19.1767 C33.7878 12.913 28.9747 8.09469 22.5252 8.09469 C15.9794 7.99832 11.1663 12.6239 11.1663 19.0803 Z" transform="translate(394.068, 165.54)"/>
    <path style="fill:#ede611; fill-rule:evenodd;stroke:none;" d="M20.7925 37.9679 C14.8243 37.6788 8.66353 34.5951 4.81307 27.6568 C0 18.7912 3.36915 7.61286 12.2252 2.69823 C15.4981 0.867288 19.0598 0 22.7177 0.0963653 C31.4775 0.192731 38.6971 5.58919 41.1036 13.202 C43.9915 21.6822 40.4298 31.126 32.6326 35.5588 C29.456 37.197 26.2794 37.9679 20.7925 37.9679 Z M11.2626 18.984 C11.2626 25.2477 16.0757 30.066 22.5252 30.066 C28.9747 30.066 33.884 25.2477 33.884 18.984 C33.884 12.7202 29.0709 7.99832 22.6214 7.99832 C16.0757 7.90196 11.2626 12.7202 11.2626 18.984 Z" transform="translate(628.369, 165.637)"/>
    <path style="fill:#ffffff; fill-rule:evenodd;stroke:none;" d="M18.5785 7.90196 C18.2897 7.80559 18.0971 7.90196 17.8084 7.90196 C12.2252 7.90196 6.44951 7.90196 0.866353 7.90196 C0 7.90196 0 7.90196 0 7.03467 C0 4.91463 0 2.89096 0 0.770923 C0 0.0963653 0.288784 0 0.770091 0 C10.2037 0 19.5411 0 28.8784 0 C29.3597 0 29.6485 0.0963653 29.6485 0.770923 C29.6485 2.98732 29.6485 5.30009 29.6485 7.61286 C29.6485 7.99832 29.5523 8.38378 29.2635 8.67288 C26.0868 11.9493 23.0065 15.3221 19.8298 18.5985 C16.942 21.5858 14.0542 24.7659 11.1663 27.7532 C11.0701 27.8496 10.8775 28.0423 10.7813 28.1387 C11.0701 28.235 11.2626 28.235 11.5514 28.235 C17.3271 28.235 22.9102 28.235 28.6859 28.235 C29.7448 28.235 29.7448 28.235 29.7448 29.2951 C29.7448 31.4151 29.7448 33.4388 29.7448 35.4624 C29.7448 35.9443 29.6485 36.2334 28.9747 36.2334 C19.5411 36.2334 10.2037 36.2334 0.770091 36.2334 C0.0962614 36.2334 5.68434e-14 35.9443 5.68434e-14 35.4624 C5.68434e-14 33.1497 5.68434e-14 30.7405 5.68434e-14 28.5241 C5.68434e-14 28.1387 0.0962614 27.7532 0.385046 27.4641 C4.81307 22.7422 9.2411 18.0203 13.6691 13.4911 C15.2093 11.9493 16.8457 10.2147 18.3859 8.48015 C18.3859 8.19105 18.6747 8.19105 18.5785 7.90196 Z" transform="translate(547.701, 166.6)"/>
    <path style="fill:#ffffff; fill-rule:evenodd;stroke:none;" d="M33.884 11.2747 C33.884 14.6475 33.9803 17.9239 33.884 21.2967 C33.7878 24.4768 33.0177 27.4641 31.3812 30.1623 C29.5523 33.1497 26.9532 35.1733 23.584 36.137 C19.0598 37.4861 14.5355 37.5825 10.0112 36.0406 C5.58316 34.5951 2.69532 31.6078 1.15514 27.175 C0.385046 24.9586 0 22.6458 0 20.1404 C0 13.7802 0 7.32376 0 0.963653 C0 0.0963653 0 0.0963653 0.866353 0.0963653 C3.08037 0.0963653 5.29438 0.0963653 7.50839 0.0963653 C8.37474 0.0963653 8.37474 0.0963653 8.37474 0.963653 C8.37474 7.32376 8.37474 13.7802 8.37474 20.044 C8.37474 21.5858 8.66353 23.224 9.14483 24.5732 C10.2037 26.8859 12.0327 28.3314 14.6317 28.9096 C16.3644 29.1987 17.9046 29.1987 19.6373 28.8132 C22.814 28.0423 25.028 25.5368 25.413 21.9713 C25.5093 21.2004 25.5093 20.4294 25.5093 19.6585 C25.5093 13.3948 25.5093 7.13103 25.5093 0.867288 C25.5093 0 25.5093 0 26.3756 0 C28.5896 0 30.8037 0 32.9214 0 C33.7878 0 33.7878 0 33.7878 0.867288 C33.884 4.4328 33.884 7.90196 33.884 11.2747 L33.884 11.2747 Z" transform="translate(491.196, 166.408)"/>
    <path style="fill:#ffffff; fill-rule:evenodd;stroke:none;" d="M15.4018 38.3534 C10.3962 38.3534 6.64204 37.2934 3.08037 34.5951 C2.02149 33.8242 1.15514 32.8606 0.385046 31.7042 C0.0962614 31.3187 0 31.0296 0.481307 30.8369 C2.21401 29.7769 3.85046 28.7169 5.4869 27.5605 C5.77568 27.4641 5.96821 27.2714 6.25699 27.5605 C7.60465 29.2951 9.52988 29.8732 11.4551 30.4514 C13.7654 30.9333 16.557 31.126 20.1186 30.3551 C20.7925 30.2587 21.4663 29.9696 21.9476 29.5842 C23.4878 28.5241 23.6803 26.6932 22.0439 25.5368 C21.2738 24.8623 20.2149 24.4768 19.3485 24.1877 C16.8457 23.5131 13.0916 22.8386 10.5888 22.0677 C8.27848 21.3931 6.06447 20.3331 4.2355 18.7912 C0.481307 15.4185 0.0962614 9.54017 3.17663 5.49282 C5.39064 2.60186 8.27848 1.15638 11.6476 0.674557 C15.6906 0 20.8887 0.289096 24.5467 2.12004 C26.2794 2.89096 27.7233 4.04734 28.8784 5.39646 C29.1672 5.78192 29.2635 6.07101 28.8784 6.26375 C27.4345 7.70923 25.9906 8.96197 24.5467 10.4075 C24.1616 10.6965 24.0654 10.6965 23.6803 10.4075 C21.37 8.86561 18.1934 7.70923 14.5355 7.90196 C13.4766 7.90196 12.4177 8.19105 11.3588 8.57651 C9.04857 9.63653 9.04857 12.5275 10.9738 13.7802 C12.1289 14.5512 13.2841 14.9366 14.6317 15.3221 C17.2308 15.9966 21.2738 16.6712 23.7766 17.4421 C25.3168 17.9239 26.7607 18.7912 28.1083 19.6585 C31.8625 22.3568 33.2102 28.7169 29.6485 32.8606 C27.1457 35.7515 24.0654 37.197 20.4074 37.8716 C19.0598 38.257 16.1719 38.3534 15.4018 38.3534 Z" transform="translate(345.36, 165.348)"/>
    <path style="fill:#ffffff; fill-rule:evenodd;stroke:none;" d="M0.0962614 25.4404 C0.0962614 17.3458 0.0962614 9.05834 0.0962614 0.867288 C0.0962614 0 0.962614 0 0.962614 0 L7.60465 0 C7.60465 0 8.37474 0.0963653 8.37474 0.770923 C8.37474 17.2494 8.37474 33.7279 8.37474 50.2063 C8.37474 50.8809 8.27848 50.9773 7.60465 50.9773 C5.39064 50.9773 3.08037 50.9773 0.770091 50.9773 C0.0962614 50.9773 0 50.6882 0 50.11 C0.0962614 41.9189 0.0962614 33.6315 0.0962614 25.4404 Z" transform="translate(458.756, 151.76)"/>
    <path style="fill:#ede611; fill-rule:evenodd;stroke:none;" d="M8.27848 18.1167 C8.27848 23.8986 8.27848 29.5842 8.27848 35.3661 C8.27848 36.2334 8.27848 36.2334 7.41213 36.2334 C5.19812 36.2334 2.9841 36.2334 0.770091 36.2334 C0.0962614 36.2334 0 36.137 0 35.4624 C0 23.995 0 12.3348 0 0.770923 C0 0.0963653 0.770091 0 0.770091 0 L7.60465 0 C7.60465 0 8.471 0 8.471 0.867288 C8.27848 6.64921 8.27848 12.3348 8.27848 18.1167 Z" transform="translate(600.838, 166.504)"/>
   </g>
   <path style="fill:#ede611; fill-rule:evenodd;stroke:none;" d="M182.8 90.56 C176.32 86.88 167.92 87.12 160.56 91.52 L97.12 128 L33.76 91.2 C22.32 85.04 16.72 77.6 16.72 68.96 C16.72 65.84 17.92 63.36 19.52 62.16 L20.16 61.84 C22 60.88 24.16 61.84 26 62.8 L93.44 101.76 C95.92 103.28 99.04 103.28 101.52 101.76 L178.8 57.2 C179.12 57.2 179.12 56.88 179.12 56.88 C179.76 56.56 180.08 56.24 180.32 55.92 C180.64 55.6 180.96 55.28 181.28 54.72 C181.28 54.4 181.6 54.4 181.6 54.08 C181.6 53.76 181.6 53.44 181.92 53.12 C182.24 52.48 182.24 52.16 182.56 51.6 C182.56 50.96 182.56 50.64 182.56 50.08 C182.56 49.44 182.56 49.12 182.56 48.56 C182.56 48 182.24 47.6 181.92 47.04 C181.92 46.72 181.92 46.4 181.6 46.08 C181.6 45.76 181.28 45.76 181.28 45.44 C180.96 45.12 180.64 44.48 180.32 44.24 C180 44 179.36 43.6 179.12 43.28 C178.8 43.28 178.8 42.96 178.48 42.96 L118.48 10.8 C99.6 0 85.04 5.52 73.36 12.32 L12.4 47.6 C12.08 47.6 12.08 47.6 11.76 47.92 C11.44 47.92 11.44 48.24 11.12 48.24 L9.6 49.2 C8.64 49.84 7.76 50.72 7.12 51.36 C2.8 55.68 0.32 61.84 0.32 68.96 C0.32 79.44 4.64 94.32 25.68 105.44 L92.8 144.4 C95.28 145.92 98.4 145.92 100.88 144.4 L168.32 105.76 C170.16 104.8 172.64 103.92 174.48 104.8 C176.32 105.76 177.6 108.8 177.6 111.92 C177.6 118.08 175.44 125.52 160.32 134.48 L97.12 170.72 L13.28 122.16 C9.6 120 4.32 121.2 2.16 125.28 C0 129.28 1.2 134.24 5.28 136.4 L93.12 187.12 C94.32 187.76 95.92 188.08 97.12 188.08 C98.32 188.08 99.92 187.76 101.12 187.12 L168.56 148.16 C179.36 141.68 193.92 131.12 193.92 111.68 C193.92 102.64 189.92 94.64 182.8 90.56 Z M81.68 26.24 C93.44 19.44 100.88 19.12 110.72 25.04 L158 50.4 L97.12 85.04 L38.32 51.04 L81.68 26.24 Z" transform="translate(102.68, 83.835)"/>
  </g>
 </g>
</svg>
