<?xml version="1.0" encoding="UTF-8"?>
<svg xmlns="http://www.w3.org/2000/svg" xmlns:xlink="http://www.w3.org/1999/xlink" width="20pt" height="20pt" viewBox="0 0 20 20" version="1.1">
<g id="surface1">
<path style=" stroke:none;fill-rule:nonzero;fill:rgb(0%,21.176471%,39.607843%);fill-opacity:1;" d="M 19.199219 4.585938 C 19.199219 4.816406 19.015625 5 18.785156 5 L 17.527344 5 L 17.527344 17.34375 C 17.527344 18.777344 16.582031 20 15.4375 20 L 4.558594 20 C 3.40625 20 2.46875 18.824219 2.46875 17.398438 L 2.46875 5 L 1.214844 5 C 0.976562 5 0.800781 4.816406 0.800781 4.585938 L 0.800781 3.753906 C 0.800781 3.523438 0.984375 3.339844 1.214844 3.339844 L 5.253906 3.339844 L 6.164062 1.164062 C 6.433594 0.519531 7.214844 0 7.910156 0 L 12.09375 0 C 12.789062 0 13.574219 0.519531 13.828125 1.160156 L 14.738281 3.335938 L 18.777344 3.335938 C 19.015625 3.335938 19.191406 3.519531 19.191406 3.75 Z M 15.855469 5 L 4.144531 5 L 4.144531 17.34375 C 4.144531 17.96875 4.496094 18.335938 4.558594 18.335938 L 15.4375 18.335938 C 15.5 18.335938 15.851562 17.976562 15.851562 17.34375 Z M 7.488281 15.414062 C 7.488281 15.644531 7.304688 15.828125 7.074219 15.828125 L 6.242188 15.828125 C 6.003906 15.828125 5.828125 15.644531 5.828125 15.414062 L 5.828125 7.921875 C 5.828125 7.691406 6.011719 7.507812 6.242188 7.507812 L 7.082031 7.507812 C 7.320312 7.507812 7.496094 7.691406 7.496094 7.921875 L 7.496094 15.417969 L 7.488281 15.417969 Z M 12.929688 3.335938 L 12.296875 1.808594 C 12.257812 1.761719 12.144531 1.679688 12.074219 1.664062 L 7.9375 1.664062 C 7.859375 1.679688 7.753906 1.753906 7.714844 1.808594 L 7.070312 3.335938 Z M 10.839844 15.414062 C 10.839844 15.644531 10.65625 15.828125 10.425781 15.828125 L 9.59375 15.828125 C 9.355469 15.828125 9.179688 15.644531 9.179688 15.414062 L 9.179688 7.921875 C 9.179688 7.691406 9.363281 7.507812 9.59375 7.507812 L 10.425781 7.507812 C 10.664062 7.507812 10.839844 7.691406 10.839844 7.921875 Z M 14.183594 15.414062 C 14.183594 15.644531 14 15.828125 13.769531 15.828125 L 12.929688 15.828125 C 12.699219 15.828125 12.515625 15.644531 12.515625 15.414062 L 12.515625 7.921875 C 12.515625 7.691406 12.699219 7.507812 12.929688 7.507812 L 13.761719 7.507812 C 14 7.507812 14.175781 7.691406 14.175781 7.921875 L 14.175781 15.417969 L 14.183594 15.417969 Z M 14.183594 15.414062 "/>
</g>
</svg>
