<?xml version="1.0" encoding="UTF-8"?>
<!-- Generated by IcoMoon.io -->
<svg width="14" height="14" version="1.1" viewBox="0 0 14 14" xmlns="http://www.w3.org/2000/svg">
 <title>page-last</title>
 <path d="m6.9247 13.916c-.09329 0-.18657-.03571-.258-.1064-.14212-.14212-.14212-.37314 0-.51526l6.3012-6.3012-6.3012-6.3012c-.14212-.14212-.14212-.37315 0-.51526.14212-.14212.37315-.14212.51526 0l6.5592 6.5592c.14212.14212.14212.37315 0 .51526l-6.5592 6.5592c-.07142.07142-.16471.1064-.258.1064z" fill="#006f8b" stroke-width=".7288"/>
 <path d="m.91568 13.916c-.09329 0-.18657-.03571-.258-.1064-.14212-.14212-.14212-.37314 0-.51526l6.3012-6.3012-6.3012-6.3012c-.14212-.14212-.14212-.37315 0-.51526.14212-.14212.37315-.14212.51526 0l6.5592 6.5592c.14212.14212.14212.37315 0 .51526l-6.5592 6.5592c-.07142.07142-.16471.1064-.25799.1064z" fill="#006f8b" stroke-width=".7288"/>
</svg>
