<!-- Generated by IcoMoon.io -->
<svg version="1.1" xmlns="http://www.w3.org/2000/svg" width="20" height="20" viewBox="0 0 20 20">
<title>archive-box-add</title>
<path fill="#006F8B" d="M5 0c-0.734 0-1.566 0.477-1.936 1.111l-2.492 4.273c-0.321 0.55-0.572 1.478-0.572 2.115v3c0 0.652 0.418 1.208 1 1.414v6.586c0 0.827 0.673 1.5 1.5 1.5h15c0.827 0 1.5-0.673 1.5-1.5v-6.586c0.582-0.206 1-0.762 1-1.414v-1.341c0-0.634-1-0.559-1 0.049v1.291c0 0.276-0.224 0.5-0.5 0.5h-17c-0.276 0-0.5-0.224-0.5-0.5v-3c0-0.276 0.224-0.5 0.5-0.5h8.691c0.485 0 0.577-1-0.023-1h-8.668c-0.043 0-0.085 0.002-0.127 0.006 0.021-0.042 0.042-0.080 0.063-0.117l2.492-4.273c0.188-0.322 0.699-0.615 1.072-0.615h5.797c0.652 0 0.641-1 0.028-1zM2 12h16v6.5c0 0.276-0.224 0.5-0.5 0.5h-15c-0.276 0-0.5-0.224-0.5-0.5z"></path>
<path fill="#006F8B" d="M12.5 16h-5c-0.827 0-1.5-0.673-1.5-1.5s0.673-1.5 1.5-1.5h5c0.827 0 1.5 0.673 1.5 1.5s-0.673 1.5-1.5 1.5zM7.5 14c-0.276 0-0.5 0.224-0.5 0.5s0.224 0.5 0.5 0.5h5c0.276 0 0.5-0.224 0.5-0.5s-0.224-0.5-0.5-0.5h-5z"></path>
<path fill="#006F8B" d="M15.903 0.043c-2.24 0-4.055 1.815-4.055 4.055s1.815 4.055 4.055 4.055c2.24 0 4.055-1.815 4.055-4.055s-1.815-4.055-4.055-4.055zM18.156 4.549h-1.802v1.802c0 0.642-0.901 0.631-0.901 0v-1.802h-1.802c-0.541 0-0.557-0.901 0-0.901h1.802v-1.802c0-0.539 0.901-0.546 0.901 0v1.802h1.802c0.454 0 0.484 0.901 0 0.901z"></path>
</svg>
