<!-- Generated by IcoMoon.io -->
<svg version="1.1" xmlns="http://www.w3.org/2000/svg" width="20" height="20" viewBox="0 0 20 20">
<title>cart-remove-all</title>
<path fill="#006F8B" d="M8 20c-1.103 0-2-0.897-2-2s0.897-2 2-2 2 0.897 2 2-0.897 2-2 2zM8 17c-0.551 0-1 0.449-1 1s0.449 1 1 1 1-0.449 1-1-0.449-1-1-1z"></path>
<path fill="#006F8B" d="M15 20c-1.103 0-2-0.897-2-2s0.897-2 2-2 2 0.897 2 2-0.897 2-2 2zM15 17c-0.551 0-1 0.449-1 1s0.449 1 1 1 1-0.449 1-1-0.449-1-1-1z"></path>
<path fill="#006F8B" d="M1.5 2c-0.276 0-0.5 0.224-0.5 0.5s0.224 0.5 0.5 0.5h1c0.307 0 0.622 0.265 0.672 0.568l1.26 7.57c0.153 0.705 1.088 0.44 0.98-0.211l-0.988-5.93h7.738c0.765 0 0.851-0.998 0-0.998h-7.904l-0.1-0.596c-0.131-0.787-0.859-1.404-1.658-1.404z"></path>
<path fill="#006F8B" d="M16.717 6.15l-0.545 3.281c-0.053 0.316-0.391 0.628-0.711 0.656l-2.928 0.254c-0.698 0.077-0.68 1.065-0.017 0.994l3.031-0.251c0.775-0.067 1.483-0.72 1.611-1.488l0.543-3.434c0.047-0.774-0.899-0.689-0.984-0.011z"></path>
<path fill="#006F8B" d="M8.881 14c-0.693 0-0.645 1-0.023 1h7.643c0.276 0 0.5-0.224 0.5-0.5s-0.224-0.5-0.5-0.5z"></path>
<path fill="#006F8B" d="M18.801 0.492l-18.475 18.305c-0.492 0.469 0.229 1.198 0.703 0.711l18.475-18.305c0.422-0.433-0.194-1.097-0.703-0.711z"></path>
</svg>
