<!-- Generated by IcoMoon.io -->
<svg version="1.1" xmlns="http://www.w3.org/2000/svg" width="20" height="20" viewBox="0 0 20 20">
<title>drawers-new</title>
<path fill="#006F8B" d="M3.5 3c-0.827 0-1.5 0.673-1.5 1.5v4c0 0.827 0.673 1.5 1.5 1.5h11.961c0.621 0 0.616-0.99 0-1h-11.961c-0.276 0-0.5-0.224-0.5-0.5v-4c0-0.276 0.224-0.5 0.5-0.5h6.717c0.577 0.004 0.591-0.996 0-1z"></path>
<path fill="#006F8B" d="M15.5 18h-12c-0.827 0-1.5-0.673-1.5-1.5v-4c0-0.827 0.673-1.5 1.5-1.5h12c0.827 0 1.5 0.673 1.5 1.5v4c0 0.827-0.673 1.5-1.5 1.5zM3.5 12c-0.276 0-0.5 0.224-0.5 0.5v4c0 0.276 0.224 0.5 0.5 0.5h12c0.276 0 0.5-0.224 0.5-0.5v-4c0-0.276-0.224-0.5-0.5-0.5h-12z"></path>
<path fill="#006F8B" d="M1.5 1c-0.827 0-1.5 0.673-1.5 1.5v16c0 0.827 0.673 1.5 1.5 1.5h16c0.827 0 1.5-0.673 1.5-1.5v-8.986c0-0.608-1-0.619-1 0v8.986c0 0.276-0.224 0.5-0.5 0.5h-16c-0.276 0-0.5-0.224-0.5-0.5v-16c0-0.276 0.224-0.5 0.5-0.5h9.106c0.642-0.006 0.598-1.002-0.015-1z"></path>
<path fill="#006F8B" d="M19.399 3.334h-2.733v-2.733c0-0.302-0.245-0.547-0.547-0.547s-0.547 0.245-0.547 0.547v2.733h-2.733c-0.302 0-0.547 0.245-0.547 0.547s0.245 0.547 0.547 0.547h2.733v2.733c0 0.302 0.245 0.547 0.547 0.547s0.547-0.245 0.547-0.547v-2.733h2.733c0.302 0 0.547-0.245 0.547-0.547s-0.245-0.547-0.547-0.547z"></path>
</svg>
