<?xml version="1.0" encoding="UTF-8" standalone="no"?>
<svg
   xmlns:dc="http://purl.org/dc/elements/1.1/"
   xmlns:cc="http://creativecommons.org/ns#"
   xmlns:rdf="http://www.w3.org/1999/02/22-rdf-syntax-ns#"
   xmlns:svg="http://www.w3.org/2000/svg"
   xmlns="http://www.w3.org/2000/svg"
   xmlns:sodipodi="http://sodipodi.sourceforge.net/DTD/sodipodi-0.dtd"
   xmlns:inkscape="http://www.inkscape.org/namespaces/inkscape"
   width="20pt"
   height="20pt"
   viewBox="0 0 20 20"
   version="1.1"
   id="svg5"
   sodipodi:docname="Expand.svg"
   inkscape:version="0.92.4 (5da689c313, 2019-01-14)">
  <metadata
     id="metadata11">
    <rdf:RDF>
      <cc:Work
         rdf:about="">
        <dc:format>image/svg+xml</dc:format>
        <dc:type
           rdf:resource="http://purl.org/dc/dcmitype/StillImage" />
      </cc:Work>
    </rdf:RDF>
  </metadata>
  <defs
     id="defs9" />
  <sodipodi:namedview
     pagecolor="#ffffff"
     bordercolor="#666666"
     borderopacity="1"
     objecttolerance="10"
     gridtolerance="10"
     guidetolerance="10"
     inkscape:pageopacity="0"
     inkscape:pageshadow="2"
     inkscape:window-width="1920"
     inkscape:window-height="1017"
     id="namedview7"
     showgrid="false"
     inkscape:zoom="8.85"
     inkscape:cx="13.333333"
     inkscape:cy="13.333333"
     inkscape:window-x="1912"
     inkscape:window-y="-8"
     inkscape:window-maximized="1"
     inkscape:current-layer="svg5" />
  <g
     id="surface1"
     transform="rotate(-90,10,9.9960935)">
    <path
       style="fill:#006F8B;fill-opacity:1;fill-rule:nonzero;stroke:none"
       d="m 2.839844,5.652344 c 0,-0.335938 0.085937,-0.628906 0.265625,-0.875 C 3.28125,4.535156 3.492188,4.410156 3.734375,4.410156 h 12.53125 c 0.238281,0 0.453125,0.121094 0.628906,0.363282 0.175781,0.246093 0.265625,0.539062 0.265625,0.878906 0,0.332031 -0.08594,0.625 -0.265625,0.871094 L 10.628906,15.21875 C 10.453125,15.460938 10.242188,15.582031 10,15.582031 c -0.242188,0 -0.453125,-0.121093 -0.628906,-0.363281 L 3.105469,6.523438 C 2.925781,6.277344 2.839844,5.984375 2.839844,5.652344 Z m 0,0"
       id="path2"
       inkscape:connector-curvature="0" />
  </g>
</svg>
