<?xml version="1.0" encoding="UTF-8" standalone="no"?>
<svg
   xmlns:dc="http://purl.org/dc/elements/1.1/"
   xmlns:cc="http://creativecommons.org/ns#"
   xmlns:rdf="http://www.w3.org/1999/02/22-rdf-syntax-ns#"
   xmlns:svg="http://www.w3.org/2000/svg"
   xmlns="http://www.w3.org/2000/svg"
   xmlns:sodipodi="http://sodipodi.sourceforge.net/DTD/sodipodi-0.dtd"
   xmlns:inkscape="http://www.inkscape.org/namespaces/inkscape"
   width="20"
   height="20"
   version="1.1"
   viewBox="0 0 5.2917 5.2917"
   id="svg20"
   sodipodi:docname="invoice-approver-2-add.svg"
   inkscape:version="0.92.4 (5da689c313, 2019-01-14)">
  <metadata
     id="metadata26">
    <rdf:RDF>
      <cc:Work
         rdf:about="">
        <dc:format>image/svg+xml</dc:format>
        <dc:type
           rdf:resource="http://purl.org/dc/dcmitype/StillImage" />
      </cc:Work>
    </rdf:RDF>
  </metadata>
  <defs
     id="defs24" />
  <sodipodi:namedview
     pagecolor="#ffffff"
     bordercolor="#666666"
     borderopacity="1"
     objecttolerance="10"
     gridtolerance="10"
     guidetolerance="10"
     inkscape:pageopacity="0"
     inkscape:pageshadow="2"
     inkscape:window-width="1920"
     inkscape:window-height="1001"
     id="namedview22"
     showgrid="false"
     inkscape:zoom="23.6"
     inkscape:cx="13.354477"
     inkscape:cy="13.723057"
     inkscape:window-x="-9"
     inkscape:window-y="-9"
     inkscape:window-maximized="1"
     inkscape:current-layer="svg20" />
  <path
     style="fill:#006F8B;stroke:none;stroke-width:1"
     d="M 3.2427727,0.47189246 C 3.2928227,0.39523875 3.3518901,0.32648862 3.4199386,0.26592545 3.2001176,0.12569098 2.9408479,0.0414342 2.6615094,0.03734177 1.8591243,0.02558688 1.197055,0.66895685 1.1852997,1.471342 1.1764708,2.0737072 1.5368838,2.59662 2.0565096,2.8250927 2.1007347,2.7455272 2.1530046,2.6705255 2.2103523,2.5984546 1.7603998,2.4230097 1.4423874,1.9855817 1.4498663,1.4750852 1.4594811,0.81873261 2.0014135,0.29229253 2.6577661,0.30190836 c 0.2145817,0.003144 0.4124044,0.0676447 0.5850066,0.1699841 z"
     id="path4571"
     inkscape:connector-curvature="0" />
  <path
     d="m 4.6101754,2.9235537 c -0.043359,3.175e-4 -0.086597,0.016656 -0.1189865,0.049233 L 3.437023,4.0333777 3.0471811,3.6525849 c -0.065724,-0.064198 -0.1739054,-0.063407 -0.2386869,0.00175 -0.064778,0.065152 -0.063994,0.1723793 0.00172,0.2365811 l 0.5100442,0.4985366 3.175e-4,-2e-6 c 0.032712,0.03163 0.075994,0.04805 0.1190379,0.04782 l 3.175e-4,-2e-6 c 0.04261,-3.97e-4 0.086187,-0.01723 0.1186531,-0.04988 L 4.7315578,3.207627 C 4.7963359,3.1424745 4.7955522,3.0352478 4.729838,2.9710459 4.6969757,2.938947 4.6535031,2.9232415 4.6101442,2.9235582 Z"
     dominant-baseline="auto"
     style="color:#000000;font-variant-ligatures:normal;font-variant-position:normal;font-variant-caps:normal;font-variant-numeric:normal;font-variant-alternates:normal;font-feature-settings:normal;text-indent:0;text-decoration:none;text-decoration-line:none;text-decoration-style:solid;text-decoration-color:#000000;text-transform:none;text-orientation:mixed;dominant-baseline:auto;white-space:normal;shape-padding:0;isolation:auto;mix-blend-mode:normal;solid-color:#000000;fill:#006F8B;stroke:none;stroke-width:0.16804896;color-rendering:auto;image-rendering:auto;shape-rendering:auto"
     id="path4"
     inkscape:connector-curvature="0" />
  <path
     inkscape:connector-curvature="0"
     style="color:#000000;font-variant-ligatures:normal;font-variant-position:normal;font-variant-caps:normal;font-variant-numeric:normal;font-variant-alternates:normal;font-feature-settings:normal;text-indent:0;text-decoration:none;text-decoration-line:none;text-decoration-style:solid;text-decoration-color:#000000;text-transform:none;text-orientation:mixed;dominant-baseline:auto;white-space:normal;shape-padding:0;isolation:auto;mix-blend-mode:normal;solid-color:#000000;fill:#006F8B;stroke:none;stroke-width:0.16804896;stroke-opacity:1;color-rendering:auto;image-rendering:auto"
     d="M 3.2095867,5.2691202 C 3.0103233,5.2239262 2.8211045,5.1443872 2.650961,5.0314062 l -2.26447559,-0.01033 c -0.073024,3.42e-4 -0.1322925,-0.05915 -0.1322925,-0.131259 2.645e-4,-0.0037 0.00625,-0.366885 0.280088,-0.722441 C 0.81575421,3.8018362 1.2861745,3.5708106 1.9083659,3.4831761 1.9169359,3.3911401 1.9341039,3.3011747 1.9574589,3.2129065 1.6257617,3.2518259 1.3271985,3.3241158 1.0727527,3.4366621 0.75552131,3.5766736 0.50015001,3.77322 0.31362111,4.0206093 c -0.3204064,0.4250359 -0.3240132,0.8507899 -0.3240132,0.8686859 0,0.21765 0.1780724,0.393916 0.3968775,0.394811 l 2.84945639,5.29e-4 c -0.012602,-0.0074 -0.015245,-0.009 -0.026355,-0.0155 z"
     id="path918" />
  <path
     inkscape:connector-curvature="0"
     id="path2-8-4"
     style="color:#000000;font-variant-ligatures:normal;font-variant-position:normal;font-variant-caps:normal;font-variant-numeric:normal;font-variant-alternates:normal;font-feature-settings:normal;text-indent:0;text-decoration:none;text-decoration-line:none;text-decoration-style:solid;text-decoration-color:#000000;text-transform:none;text-orientation:mixed;dominant-baseline:auto;white-space:normal;shape-padding:0;isolation:auto;mix-blend-mode:normal;solid-color:#000000;fill:#006F8B;stroke:none;stroke-width:0.16304471;color-rendering:auto;image-rendering:auto;stroke-opacity:1"
     dominant-baseline="auto"
     d="M 3.6687651,2.0772437 C 3.2318821,2.0730531 2.8178094,2.2383635 2.5060341,2.5416761 2.1942921,2.8449505 2.0197325,3.2520006 2.015579,3.6850196 2.0114277,4.1178737 2.17795,4.5281665 2.4840147,4.8372507 2.790047,5.1462953 3.2007428,5.3193808 3.6376257,5.3235719 4.0745079,5.3277431 4.4885794,5.1625977 4.8003528,4.8594693 5.1121098,4.556331 5.2866515,4.1494552 5.2908051,3.7164361 5.2949584,3.2834463 5.1284195,2.8731144 4.8223724,2.5638948 4.5163416,2.254685 4.1056471,2.0814343 3.6687651,2.0772437 Z m -0.00312,0.3246309 c 0.7231441,0.00693 1.3045167,0.594343 1.2976416,1.3110997 C 4.9564088,4.4297314 4.3638758,5.0058771 3.640739,4.998941 2.9176017,4.9920039 2.3362289,4.4045979 2.3431042,3.6878412 2.3499793,2.9710841 2.9425131,2.3949382 3.6656499,2.4018746 Z m 1.2354058,2.0296255 c -4.71078336,0.5039156 -2.3553917,0.2519618 0,0 z" />
  <path
     style="fill:#006F8B;stroke-width:1;stroke:none"
     inkscape:connector-curvature="0"
     id="path2-6"
     d="m 4.2266332,0.07070041 c -0.5678799,0 -1.028,0.46014 -1.028,1.02799999 0,0.56787 0.4601401,1.028 1.028,1.028 0.5678696,0 1.0279996,-0.46014 1.0279996,-1.028 0,-0.56787999 -0.46014,-1.02799999 -1.0279996,-1.02799999 z M 4.7978028,1.2131004 H 4.3409632 v 0.45684 c 0,0.16276 -0.2284199,0.15997 -0.2284199,0 v -0.45684 h -0.45684 c -0.13715,0 -0.14121,-0.22841999 0,-0.22841999 h 0.45684 v -0.45684 c 0,-0.13665 0.2284199,-0.13842 0.2284199,0 v 0.45684 h 0.4568396 c 0.1151,0 0.1227,0.22841999 0,0.22841999 z" />
</svg>
