<!-- Generated by IcoMoon.io -->
<svg version="1.1" xmlns="http://www.w3.org/2000/svg" width="20" height="20" viewBox="0 0 20 20">
<title>save-exit</title>
<path fill="#006F8B" d="M13.5 6h-2c-0.276 0-0.5-0.224-0.5-0.5v-3c0-0.276 0.224-0.5 0.5-0.5h2c0.276 0 0.5 0.224 0.5 0.5v3c0 0.276-0.224 0.5-0.5 0.5zM12 5h1v-2h-1v2z"></path>
<path fill="#006F8B" d="M0.5 0c-0.276 0-0.5 0.224-0.5 0.5v19c0 0.276 0.224 0.5 0.5 0.5h7.709c0.643 0 0.663-1 0-1h-4.209v-8h4.209c0.694 0 0.691-1 0-1h-4.709c-0.276 0-0.5 0.224-0.5 0.5v8.5h-2v-18h4v6.5c0 0.276 0.224 0.5 0.5 0.5h10c0.276 0 0.5-0.224 0.5-0.5v-6.5h0.793l2.207 2.207v4.867c0 0.653 1 0.67 1 0v-5.074c0-0.133-0.053-0.26-0.146-0.354l-2.5-2.5c-0.094-0.094-0.221-0.146-0.354-0.146zM6 1h9v6h-9z"></path>
<path fill="#006F8B" d="M15.465 14.936l4.395-4.395c0.152-0.152 0.152-0.399 0-0.55s-0.399-0.152-0.55 0l-4.395 4.395-4.395-4.395c-0.152-0.152-0.399-0.152-0.55 0s-0.152 0.399 0 0.55l4.395 4.395-4.395 4.395c-0.152 0.152-0.152 0.399 0 0.55 0.076 0.076 0.176 0.114 0.276 0.114s0.199-0.038 0.276-0.114l4.395-4.395 4.395 4.395c0.076 0.076 0.176 0.114 0.276 0.114s0.199-0.038 0.276-0.114c0.152-0.152 0.152-0.399 0-0.55l-4.395-4.395z"></path>
</svg>
