<?xml version="1.0"?>
<!-- Generated by IcoMoon.io -->
<svg xmlns="http://www.w3.org/2000/svg" version="1.1" width="20" height="20" viewBox="0 0 20 20" fill="#21123d">
<title>archive-box-addto</title>
<path fill="#21123d" d="M5 0c-0.734 0-1.566 0.477-1.936 1.111l-2.492 4.273c-0.321 0.55-0.572 1.478-0.572 2.115v0.043c0 0.715 1 0.697 1 0v-0.043c0-0.276 0.224-0.5 0.5-0.5h1.891c0.669-0.304 0.631-0.639 0-1h-1.891c-0.043 0-0.085 0.002-0.127 0.006 0.021-0.042 0.042-0.080 0.063-0.117l2.492-4.273c0.188-0.322 0.699-0.615 1.072-0.615h10c0.373 0 0.884 0.292 1.072 0.615l2.492 4.273c0.021 0.036 0.042 0.075 0.063 0.117-0.042-0.004-0.084-0.006-0.127-0.006h-7.059c-0.744 0-0.744 1 0 1h7.059c0.276 0 0.5 0.224 0.5 0.5v3c0 0.276-0.224 0.5-0.5 0.5h-6.278c-0.64 0-0.638 1 0.026 1h5.752v6.5c0 0.276-0.224 0.5-0.5 0.5h-15c-0.276 0-0.5-0.224-0.5-0.5v-5.703c0-0.711-1-0.712-1 0v5.703c0 0.827 0.673 1.5 1.5 1.5h15c0.827 0 1.5-0.673 1.5-1.5v-6.586c0.582-0.206 1-0.762 1-1.414v-3c0-0.637-0.251-1.565-0.572-2.115l-2.492-4.273c-0.37-0.634-1.202-1.111-1.936-1.111z"/>
<path fill="#21123d" d="M11.355 13c-0.713 0-0.68 1 0 1h1.144c0.276 0 0.5 0.224 0.5 0.5s-0.224 0.5-0.5 0.5h-4.025c-0.746 0-0.773 1 0 1h4.025c0.827 0 1.5-0.673 1.5-1.5s-0.673-1.5-1.5-1.5z"/>
<path fill="#21123d" d="M7.014 6.115c-0.12 0-0.239 0.046-0.33 0.137-0.182 0.182-0.182 0.482 0 0.664l2.615 2.615h-8.834c-0.257 0-0.469 0.212-0.469 0.469s0.212 0.469 0.469 0.469h8.834l-2.615 2.615c-0.182 0.182-0.182 0.482 0 0.664 0.091 0.091 0.213 0.137 0.332 0.137s0.239-0.047 0.33-0.137l3.418-3.416c0.11-0.11 0.181-0.176 0.157-0.32l0.015-0.084c-0.015-0.093-0.101-0.189-0.172-0.26l-3.418-3.416c-0.091-0.091-0.212-0.137-0.332-0.137z"/>
</svg>
