<?xml version="1.0"?>
<!-- Generated by IcoMoon.io -->
<svg xmlns="http://www.w3.org/2000/svg" version="1.1" width="20" height="20" viewBox="0 0 20 20" fill="#21123d">
<title>archive-box-removefrom</title>
<path fill="#21123d" d="M5 0c-0.734 0-1.566 0.477-1.936 1.111l-1.676 2.873c-0.363 0.661 0.435 1.145 0.885 0.469l1.654-2.838c0.188-0.322 0.699-0.615 1.072-0.615h10c0.373 0 0.884 0.292 1.072 0.615l2.492 4.273c0.021 0.036 0.042 0.075 0.063 0.117-0.042-0.004-0.084-0.006-0.127-0.006h-11.211c-0.752 0-0.709 1 0 1h11.211c0.276 0 0.5 0.224 0.5 0.5v3c0 0.276-0.224 0.5-0.5 0.5h-5.957c-0.754 0-0.754 1 0 1h5.457v6.5c0 0.276-0.224 0.5-0.5 0.5h-15c-0.276 0-0.5-0.224-0.5-0.5v-3.5c0-0.872-1-0.88-1 0v3.5c0 0.827 0.673 1.5 1.5 1.5h15c0.827 0 1.5-0.673 1.5-1.5v-6.586c0.582-0.206 1-0.762 1-1.414v-3c0-0.637-0.251-1.565-0.572-2.115l-2.492-4.273c-0.37-0.634-1.202-1.111-1.936-1.111z"/>
<path fill="#21123d" d="M12.5 16h-5c-0.827 0-1.5-0.673-1.5-1.5s0.673-1.5 1.5-1.5h5c0.827 0 1.5 0.673 1.5 1.5s-0.673 1.5-1.5 1.5zM7.5 14c-0.276 0-0.5 0.224-0.5 0.5s0.224 0.5 0.5 0.5h5c0.276 0 0.5-0.224 0.5-0.5s-0.224-0.5-0.5-0.5h-5z"/>
<path fill="#21123d" d="M3.982 6.115c0.12 0 0.239 0.046 0.33 0.137 0.182 0.182 0.182 0.482 0 0.664l-2.615 2.615h8.834c0.257 0 0.469 0.212 0.469 0.469s-0.212 0.469-0.469 0.469h-8.834l2.615 2.615c0.182 0.182 0.182 0.482 0 0.664-0.091 0.091-0.213 0.137-0.332 0.137s-0.239-0.047-0.33-0.137l-3.418-3.416c-0.11-0.11-0.181-0.176-0.157-0.32l-0.015-0.084c0.015-0.093 0.101-0.189 0.172-0.26l3.418-3.416c0.091-0.091 0.212-0.137 0.332-0.137z"/>
</svg>
