<?xml version="1.0"?>
<!-- Generated by IcoMoon.io -->
<svg xmlns="http://www.w3.org/2000/svg" version="1.1" width="20" height="20" viewBox="0 0 20 20" fill="#21123d">
<title>comments</title>
<path fill="#21123d" d="M17.992 14.541c-0.148 0.531-0.513 1.029-1.064 1.443-0.090 0.068-0.155 0.164-0.184 0.273-0.049 0.19-0.062 0.643 0.482 1.438-0.828-0.338-1.494-0.835-1.504-0.842-0.088-0.066-0.195-0.1-0.303-0.1-0.045 0-0.091 0.006-0.135 0.018-0.545 0.153-1.124 0.23-1.719 0.23-0.18 0-0.353-0.023-0.529-0.037-0.411-0.119-0.962 0.729-0.137 0.99 0.222 0.019 0.441 0.047 0.668 0.047 0.602 0 1.189-0.071 1.752-0.207 0.513 0.35 1.907 1.207 3.248 1.207 0.276 0 0.5-0.224 0.5-0.5 0-0.146-0.063-0.278-0.162-0.369-0.806-0.808-1.063-1.304-1.144-1.535 0.661-0.563 1.078-1.245 1.232-1.977-0.016-0.854-0.901-0.781-1.002-0.080z"/>
<path fill="#21123d" d="M13.5 7h-8c-0.276 0-0.5-0.224-0.5-0.5s0.224-0.5 0.5-0.5h8c0.276 0 0.5 0.224 0.5 0.5s-0.224 0.5-0.5 0.5z"/>
<path fill="#21123d" d="M0.5 19c-0.225 0-0.422-0.15-0.482-0.367s0.032-0.447 0.225-0.562c1.691-1.014 2.392-2.489 2.641-3.179-1.838-1.407-2.884-3.354-2.884-5.392 0-1.029 0.258-2.026 0.768-2.964 0.486-0.894 1.18-1.695 2.061-2.381 1.787-1.39 4.156-2.156 6.671-2.156s4.884 0.766 6.671 2.156c0.881 0.685 1.575 1.486 2.061 2.381 0.51 0.937 0.768 1.934 0.768 2.964s-0.258 2.026-0.768 2.964c-0.486 0.894-1.18 1.695-2.061 2.381-1.787 1.39-4.156 2.156-6.671 2.156-1.033 0-2.047-0.129-3.016-0.385-0.429 0.286-1.231 0.793-2.189 1.27-1.488 0.74-2.764 1.115-3.794 1.115zM9.5 3c-4.687 0-8.5 2.916-8.5 6.5 0 1.815 1.005 3.562 2.756 4.792 0.172 0.121 0.25 0.336 0.196 0.539-0.117 0.436-0.515 1.633-1.58 2.788 1.302-0.456 2.704-1.247 3.739-1.959 0.123-0.085 0.277-0.11 0.421-0.069 0.948 0.271 1.947 0.409 2.968 0.409 4.687 0 8.5-2.916 8.5-6.5s-3.813-6.5-8.5-6.5z"/>
<path fill="#21123d" d="M13.5 9h-8c-0.276 0-0.5-0.224-0.5-0.5s0.224-0.5 0.5-0.5h8c0.276 0 0.5 0.224 0.5 0.5s-0.224 0.5-0.5 0.5z"/>
<path fill="#21123d" d="M13.5 11h-8c-0.276 0-0.5-0.224-0.5-0.5s0.224-0.5 0.5-0.5h8c0.276 0 0.5 0.224 0.5 0.5s-0.224 0.5-0.5 0.5z"/>
<path fill="#21123d" d="M11.5 13h-6c-0.276 0-0.5-0.224-0.5-0.5s0.224-0.5 0.5-0.5h6c0.276 0 0.5 0.224 0.5 0.5s-0.224 0.5-0.5 0.5z"/>
</svg>
