<?xml version="1.0"?>
<!-- Generated by IcoMoon.io -->
<svg xmlns="http://www.w3.org/2000/svg" version="1.1" width="20" height="20" viewBox="0 0 20 20" fill="#21123d">
<title>cross-circle-solid</title>
<path fill="#21123d" d="M10 20c-5.535 0-10-4.465-10-10s4.465-10 10-10c5.535 0 10 4.465 10 10s-4.465 10-10 10zM14.664 12.398l-2.336-2.336 2.336-2.336c0.137-0.137 0.266-0.336 0.266-0.602 0-0.199-0.063-0.465-0.266-0.602l-1.199-1.199c-0.137-0.137-0.398-0.266-0.602-0.266-0.199 0-0.398 0.062-0.602 0.266l-2.336 2.336-2.328-2.328c-0.137-0.137-0.336-0.266-0.602-0.266-0.199 0-0.465 0.063-0.602 0.266l-1.199 1.199c-0.137 0.137-0.266 0.398-0.266 0.602 0 0.199 0.063 0.398 0.266 0.602l2.336 2.336-2.336 2.328c-0.137 0.137-0.266 0.336-0.266 0.602 0 0.199 0.063 0.465 0.266 0.602l1.199 1.199c0.137 0.137 0.398 0.266 0.602 0.266s0.398-0.063 0.602-0.266l2.336-2.336 2.336 2.336c0.137 0.137 0.336 0.266 0.602 0.266 0.199 0 0.465-0.063 0.602-0.266l1.199-1.199c0.137-0.137 0.266-0.398 0.266-0.602 0-0.266-0.074-0.465-0.273-0.602z"/>
</svg>
