<?xml version="1.0"?>
<!-- Generated by IcoMoon.io -->
<svg xmlns="http://www.w3.org/2000/svg" version="1.1" width="20" height="20" viewBox="0 0 20 20" fill="#21123d">
<title>document-add-link</title>
<path fill="#21123d" d="M3.5 1c-0.827 0-1.5 0.673-1.5 1.5v16c0 0.827 0.673 1.5 1.5 1.5h13c0.827 0 1.5-0.673 1.5-1.5v-1.34c-0.403-0.42-0.708-0.248-1 0v1.34c0 0.276-0.224 0.5-0.5 0.5h-13c-0.276 0-0.5-0.224-0.5-0.5v-16c0-0.276 0.224-0.5 0.5-0.5h8.5v3.5c0 0.827 0.673 1.5 1.5 1.5h3.5v2.365c0.333 0.395 0.667 0.395 1 0v-3.365c0-0.133-0.053-0.26-0.146-0.354l-4.5-4.5c-0.094-0.094-0.221-0.146-0.354-0.146zM13 2.207l3.793 3.793h-3.293c-0.276 0-0.5-0.224-0.5-0.5z"/>
<path fill="#21123d" d="M8.188 10.578c-1.479-0.001-2.688 1.207-2.688 2.686 0 0.74 0.301 1.412 0.787 1.898s1.159 0.785 1.898 0.785h2.891c0.31 0 0.566-0.255 0.566-0.564s-0.257-0.566-0.566-0.566h-2.889c-0.86 0-1.557-0.695-1.557-1.555s0.695-1.553 1.555-1.553h3.428c0.86 0 1.553 0.693 1.553 1.553 0 0.31 0.257 0.566 0.566 0.566s0.564-0.255 0.564-0.564c0-0.739-0.301-1.412-0.787-1.898s-1.159-0.787-1.898-0.787h-3.424z"/>
<path fill="#21123d" d="M14.375 10.576c-0.31 0-0.566 0.256-0.566 0.566s0.256 0.566 0.566 0.566h2.891c0.859 0 1.555 0.695 1.555 1.555s-0.695 1.553-1.555 1.553h-3.426c-0.859 0-1.555-0.693-1.555-1.553 0-0.31-0.256-0.566-0.566-0.566s-0.564 0.256-0.564 0.566c0 0.74 0.301 1.412 0.787 1.898s1.159 0.787 1.898 0.787h3.426c1.479 0.001 2.685-1.207 2.686-2.686s-1.206-2.688-2.686-2.688h-2.891z"/>
</svg>
