<?xml version="1.0"?>
<!-- Generated by IcoMoon.io -->
<svg xmlns="http://www.w3.org/2000/svg" version="1.1" width="20" height="20" viewBox="0 0 20 20" fill="#21123d">
<title>drawers-add</title>
<path fill="#21123d" d="M3.5 3c-0.827 0-1.5 0.673-1.5 1.5v4c0 0.827 0.673 1.5 1.5 1.5h11.961c0.621 0 0.616-0.99 0-1h-11.961c-0.276 0-0.5-0.224-0.5-0.5v-4c0-0.276 0.224-0.5 0.5-0.5h6.717c0.577 0.004 0.591-0.996 0-1z"/>
<path fill="#21123d" d="M15.5 18h-12c-0.827 0-1.5-0.673-1.5-1.5v-4c0-0.827 0.673-1.5 1.5-1.5h12c0.827 0 1.5 0.673 1.5 1.5v4c0 0.827-0.673 1.5-1.5 1.5zM3.5 12c-0.276 0-0.5 0.224-0.5 0.5v4c0 0.276 0.224 0.5 0.5 0.5h12c0.276 0 0.5-0.224 0.5-0.5v-4c0-0.276-0.224-0.5-0.5-0.5h-12z"/>
<path fill="#21123d" d="M1.5 1c-0.827 0-1.5 0.673-1.5 1.5v16c0 0.827 0.673 1.5 1.5 1.5h16c0.827 0 1.5-0.673 1.5-1.5v-8.986c0-0.608-1-0.619-1 0v8.986c0 0.276-0.224 0.5-0.5 0.5h-16c-0.276 0-0.5-0.224-0.5-0.5v-16c0-0.276 0.224-0.5 0.5-0.5h9.106c0.642-0.006 0.598-1.002-0.015-1z"/>
<path fill="#21123d" d="M15.92 0.063c-2.24 0-4.055 1.815-4.055 4.055s1.815 4.055 4.055 4.055c2.24 0 4.055-1.815 4.055-4.055s-1.815-4.055-4.055-4.055zM18.173 4.568h-1.802v1.802c0 0.642-0.901 0.631-0.901 0v-1.802h-1.802c-0.541 0-0.557-0.901 0-0.901h1.802v-1.802c0-0.539 0.901-0.546 0.901 0v1.802h1.802c0.454 0 0.484 0.901 0 0.901z"/>
</svg>
