<?xml version="1.0" encoding="UTF-8"?>
<svg xmlns="http://www.w3.org/2000/svg" xmlns:xlink="http://www.w3.org/1999/xlink" width="20pt" height="20pt" viewBox="0 0 20 20" version="1.1">
<g id="surface1">
<path style=" stroke:none;fill-rule:nonzero;fill:rgb(67.058824%,20%,20%);fill-opacity:1;" d="M 10 0 C 4.484375 0 0 4.484375 0 10 C 0 15.515625 4.484375 20 10 20 C 15.515625 20 20 15.515625 20 10 C 20 4.484375 15.515625 0 10 0 Z M 10 19.257812 C 4.894531 19.257812 0.742188 15.105469 0.742188 10 C 0.742188 4.894531 4.894531 0.742188 10 0.742188 C 15.105469 0.742188 19.257812 4.894531 19.257812 10 C 19.257812 15.105469 15.105469 19.257812 10 19.257812 Z M 10 19.257812 "/>
<path style=" stroke:none;fill-rule:nonzero;fill:rgb(67.058824%,20%,20%);fill-opacity:1;" d="M 14.855469 5.148438 C 14.738281 5.03125 14.542969 5.03125 14.425781 5.148438 L 10.0625 9.511719 L 5.699219 5.148438 C 5.582031 5.03125 5.386719 5.03125 5.269531 5.148438 C 5.152344 5.265625 5.152344 5.460938 5.269531 5.578125 L 9.632812 9.941406 L 5.269531 14.304688 C 5.152344 14.421875 5.152344 14.617188 5.269531 14.734375 C 5.328125 14.792969 5.40625 14.824219 5.484375 14.824219 C 5.5625 14.824219 5.640625 14.792969 5.699219 14.734375 L 10.0625 10.371094 L 14.425781 14.734375 C 14.484375 14.792969 14.5625 14.824219 14.640625 14.824219 C 14.71875 14.824219 14.796875 14.792969 14.855469 14.734375 C 14.972656 14.617188 14.972656 14.421875 14.855469 14.304688 L 10.492188 9.941406 L 14.855469 5.578125 C 14.972656 5.460938 14.972656 5.269531 14.855469 5.148438 Z M 14.855469 5.148438 "/>
</g>
</svg>
