<?xml version="1.0"?>
<!-- Generated by IcoMoon.io -->
<svg xmlns="http://www.w3.org/2000/svg" version="1.1" width="20" height="20" viewBox="0 0 20 20" fill="#21123d">
<title>filetype-mov</title>
<path fill="#21123d" d="M8.081 9.717c-0.049 0-0.098-0.011-0.143-0.034-0.108-0.054-0.177-0.165-0.177-0.286v-5.758c0-0.121 0.068-0.232 0.177-0.286s0.238-0.042 0.335 0.030l3.839 2.879c0.081 0.060 0.128 0.155 0.128 0.256s-0.047 0.196-0.128 0.256l-3.839 2.879c-0.056 0.042-0.124 0.064-0.192 0.064zM8.4 4.278v4.479l2.986-2.239z"/>
<path fill="#21123d" d="M16.363 1.040h-12.726c-0.185 0-0.335 0.15-0.335 0.335v10.047c0 0.185 0.15 0.335 0.335 0.335h12.726c0.185 0 0.335-0.15 0.335-0.335v-10.047c0-0.185-0.15-0.335-0.335-0.335zM5.311 7.068h-1.34v-1.34h1.34zM5.311 5.058h-1.34v-1.34h1.34zM3.972 7.738h1.34v1.34h-1.34zM5.981 1.709h8.038v9.377h-8.038zM14.689 5.728h1.34v1.34h-1.34zM14.689 5.058v-1.34h1.34v1.34zM14.689 7.738h1.34v1.34h-1.34zM16.028 3.049h-1.34v-1.34h1.34zM5.311 1.709v1.34h-1.34v-1.34zM3.972 9.747h1.34v1.34h-1.34zM14.689 11.087v-1.34h1.34v1.34z"/>
<path fill="#21123d" d="M3.152 18.667l-0.93-3.697v4.005q0 0.332-0.15 0.499-0.146 0.166-0.392 0.166-0.237 0-0.388-0.162-0.15-0.166-0.15-0.503v-4.591q0-0.38 0.198-0.511 0.198-0.135 0.534-0.135h0.364q0.328 0 0.475 0.059 0.15 0.059 0.222 0.214t0.162 0.503l0.843 3.178 0.843-3.178q0.091-0.348 0.162-0.503t0.218-0.214q0.15-0.059 0.479-0.059h0.364q0.336 0 0.534 0.135 0.198 0.131 0.198 0.511v4.591q0 0.332-0.15 0.499-0.146 0.166-0.396 0.166-0.234 0-0.384-0.166t-0.15-0.499v-4.005l-0.93 3.697q-0.091 0.36-0.15 0.53-0.055 0.166-0.21 0.305t-0.427 0.139q-0.206 0-0.348-0.091-0.142-0.087-0.222-0.226t-0.127-0.305q-0.044-0.17-0.091-0.352z"/>
<path fill="#21123d" d="M10.506 13.64q0.902 0 1.547 0.368 0.649 0.364 0.982 1.041 0.332 0.673 0.332 1.583 0 0.673-0.182 1.223t-0.546 0.954-0.894 0.617-1.215 0.214q-0.681 0-1.219-0.218-0.538-0.222-0.898-0.621t-0.546-0.962q-0.182-0.562-0.182-1.215 0-0.669 0.19-1.227 0.194-0.558 0.558-0.95t0.887-0.598q0.522-0.21 1.187-0.21zM12.176 16.625q0-0.637-0.206-1.104t-0.59-0.704q-0.38-0.241-0.875-0.241-0.352 0-0.653 0.135-0.297 0.131-0.515 0.384-0.214 0.253-0.34 0.649-0.123 0.392-0.123 0.883 0 0.495 0.123 0.894 0.127 0.4 0.352 0.665 0.23 0.261 0.522 0.392 0.297 0.131 0.649 0.131 0.451 0 0.827-0.226 0.38-0.226 0.602-0.697 0.226-0.471 0.226-1.16z"/>
<path fill="#21123d" d="M15.023 14.412l1.314 3.891 1.318-3.918q0.103-0.309 0.154-0.427 0.051-0.123 0.17-0.218 0.119-0.099 0.325-0.099 0.15 0 0.277 0.075 0.131 0.075 0.202 0.202 0.075 0.123 0.075 0.249 0 0.087-0.024 0.19-0.024 0.099-0.059 0.198-0.036 0.095-0.071 0.198l-1.405 3.792q-0.075 0.218-0.15 0.416-0.075 0.194-0.174 0.344-0.099 0.146-0.265 0.241-0.162 0.095-0.4 0.095t-0.404-0.095q-0.162-0.091-0.265-0.241-0.099-0.154-0.174-0.348t-0.15-0.412l-1.381-3.76q-0.036-0.103-0.075-0.202-0.036-0.099-0.063-0.214-0.024-0.115-0.024-0.194 0-0.202 0.162-0.368t0.408-0.166q0.301 0 0.423 0.186 0.127 0.182 0.257 0.586z"/>
</svg>
