<?xml version="1.0"?>
<!-- Generated by IcoMoon.io -->
<svg xmlns="http://www.w3.org/2000/svg" version="1.1" width="20" height="20" viewBox="0 0 20 20" fill="#21123d">
<title>filetype-avi</title>
<path fill="#21123d" d="M8.081 9.717c-0.049 0-0.098-0.011-0.143-0.034-0.108-0.054-0.177-0.165-0.177-0.286v-5.758c0-0.121 0.068-0.232 0.177-0.286s0.238-0.042 0.335 0.030l3.839 2.879c0.081 0.060 0.128 0.155 0.128 0.256s-0.047 0.196-0.128 0.256l-3.839 2.879c-0.056 0.042-0.124 0.064-0.192 0.064zM8.4 4.278v4.479l2.986-2.239z"/>
<path fill="#21123d" d="M16.363 1.040h-12.726c-0.185 0-0.335 0.15-0.335 0.335v10.047c0 0.185 0.15 0.335 0.335 0.335h12.726c0.185 0 0.335-0.15 0.335-0.335v-10.047c0-0.185-0.15-0.335-0.335-0.335zM5.311 7.068h-1.34v-1.34h1.34zM5.311 5.058h-1.34v-1.34h1.34zM3.972 7.738h1.34v1.34h-1.34zM5.981 1.709h8.038v9.377h-8.038zM14.689 5.728h1.34v1.34h-1.34zM14.689 5.058v-1.34h1.34v1.34zM14.689 7.738h1.34v1.34h-1.34zM16.028 3.049h-1.34v-1.34h1.34zM5.311 1.709v1.34h-1.34v-1.34zM3.972 9.747h1.34v1.34h-1.34zM14.689 11.087v-1.34h1.34v1.34z"/>
<path fill="#21123d" d="M7.664 19.014l-0.273-0.719h-2.328l-0.273 0.734q-0.16 0.43-0.273 0.582-0.113 0.148-0.371 0.148-0.219 0-0.387-0.16t-0.168-0.363q0-0.117 0.039-0.242t0.129-0.348l1.465-3.719q0.063-0.16 0.148-0.383 0.090-0.227 0.188-0.375 0.102-0.148 0.262-0.238 0.164-0.094 0.402-0.094 0.242 0 0.402 0.094 0.164 0.090 0.262 0.234 0.102 0.145 0.168 0.313 0.070 0.164 0.176 0.441l1.496 3.695q0.176 0.422 0.176 0.613 0 0.199-0.168 0.367-0.164 0.164-0.398 0.164-0.137 0-0.234-0.051-0.098-0.047-0.164-0.129-0.066-0.086-0.145-0.258-0.074-0.176-0.129-0.309zM5.367 17.424h1.711l-0.863-2.363z"/>
<path fill="#21123d" d="M10.191 14.6l1.297 3.84 1.301-3.867q0.102-0.305 0.152-0.422 0.051-0.121 0.168-0.215 0.117-0.098 0.32-0.098 0.148 0 0.273 0.074 0.129 0.074 0.199 0.199 0.074 0.121 0.074 0.246 0 0.086-0.023 0.188-0.023 0.098-0.059 0.195-0.035 0.094-0.070 0.195l-1.387 3.742q-0.074 0.215-0.148 0.41-0.074 0.191-0.172 0.34-0.098 0.145-0.262 0.238-0.16 0.094-0.395 0.094t-0.398-0.094q-0.16-0.090-0.262-0.238-0.098-0.152-0.172-0.344t-0.148-0.406l-1.363-3.711q-0.035-0.102-0.074-0.199-0.035-0.098-0.063-0.211-0.023-0.113-0.023-0.191 0-0.199 0.16-0.363t0.402-0.164q0.297 0 0.418 0.184 0.125 0.18 0.254 0.578z"/>
<path fill="#21123d" d="M14.891 19.053v-4.512q0-0.352 0.16-0.527t0.414-0.176q0.262 0 0.422 0.176 0.164 0.172 0.164 0.527v4.512q0 0.355-0.164 0.531-0.16 0.176-0.422 0.176-0.25 0-0.414-0.176-0.16-0.18-0.16-0.531z"/>
</svg>
