<?xml version="1.0"?>
<!-- Generated by IcoMoon.io -->
<svg xmlns="http://www.w3.org/2000/svg" version="1.1" width="20" height="20" viewBox="0 0 20 20" fill="#21123d">
<title>filetype-wmv</title>
<path fill="#21123d" d="M8.081 9.717c-0.049 0-0.098-0.011-0.143-0.034-0.108-0.054-0.177-0.165-0.177-0.286v-5.758c0-0.121 0.068-0.232 0.177-0.286s0.238-0.042 0.335 0.030l3.839 2.879c0.081 0.060 0.128 0.155 0.128 0.256s-0.047 0.196-0.128 0.256l-3.839 2.879c-0.056 0.042-0.124 0.064-0.192 0.064zM8.4 4.278v4.479l2.986-2.239z"/>
<path fill="#21123d" d="M16.363 1.040h-12.726c-0.185 0-0.335 0.15-0.335 0.335v10.047c0 0.185 0.15 0.335 0.335 0.335h12.726c0.185 0 0.335-0.15 0.335-0.335v-10.047c0-0.185-0.15-0.335-0.335-0.335zM5.311 7.068h-1.34v-1.34h1.34zM5.311 5.058h-1.34v-1.34h1.34zM3.972 7.738h1.34v1.34h-1.34zM5.981 1.709h8.038v9.377h-8.038zM14.689 5.728h1.34v1.34h-1.34zM14.689 5.058v-1.34h1.34v1.34zM14.689 7.738h1.34v1.34h-1.34zM16.028 3.049h-1.34v-1.34h1.34zM5.311 1.709v1.34h-1.34v-1.34zM3.972 9.747h1.34v1.34h-1.34zM14.689 11.087v-1.34h1.34v1.34z"/>
<path fill="#21123d" d="M15.5 14.592l1.314 3.891 1.318-3.918q0.103-0.309 0.154-0.427 0.051-0.123 0.17-0.218 0.119-0.099 0.325-0.099 0.15 0 0.277 0.075 0.131 0.075 0.202 0.202 0.075 0.123 0.075 0.249 0 0.087-0.024 0.19-0.024 0.099-0.059 0.198-0.036 0.095-0.071 0.198l-1.405 3.792q-0.075 0.218-0.15 0.416-0.075 0.194-0.174 0.344-0.099 0.146-0.265 0.241-0.162 0.095-0.4 0.095t-0.404-0.095q-0.162-0.091-0.265-0.241-0.099-0.154-0.174-0.348t-0.15-0.412l-1.381-3.76q-0.036-0.103-0.075-0.202-0.036-0.099-0.063-0.214-0.024-0.115-0.024-0.194 0-0.202 0.162-0.368t0.408-0.166q0.301 0 0.423 0.186 0.127 0.182 0.257 0.586z"/>
<path fill="#21123d" d="M5.268 18.807l-0.938-3.479-0.95 3.479q-0.111 0.396-0.178 0.57-0.063 0.17-0.226 0.309-0.162 0.135-0.431 0.135-0.218 0-0.36-0.083-0.139-0.079-0.226-0.226-0.087-0.15-0.142-0.352-0.055-0.206-0.099-0.38l-0.966-3.906q-0.087-0.34-0.087-0.518 0-0.226 0.158-0.38t0.392-0.154q0.321 0 0.431 0.206t0.194 0.598l0.76 3.388 0.851-3.17q0.095-0.364 0.17-0.554t0.245-0.328 0.463-0.139q0.297 0 0.459 0.146 0.166 0.142 0.23 0.313t0.17 0.562l0.859 3.17 0.76-3.388q0.055-0.265 0.103-0.416 0.051-0.15 0.17-0.269 0.123-0.119 0.352-0.119t0.388 0.154q0.162 0.15 0.162 0.38 0 0.162-0.087 0.518l-0.966 3.906q-0.099 0.396-0.166 0.582-0.063 0.182-0.222 0.321-0.154 0.139-0.439 0.139-0.269 0-0.431-0.135t-0.226-0.301q-0.063-0.17-0.178-0.578z"/>
<path fill="#21123d" d="M10.319 18.83l-0.946-3.759v4.072q0 0.338-0.153 0.507-0.149 0.169-0.398 0.169-0.241 0-0.394-0.165-0.153-0.169-0.153-0.511v-4.668q0-0.386 0.201-0.519 0.201-0.137 0.543-0.137h0.37q0.334 0 0.483 0.060 0.153 0.060 0.225 0.217t0.165 0.511l0.857 3.231 0.857-3.231q0.093-0.354 0.165-0.511t0.221-0.217q0.153-0.060 0.487-0.060h0.37q0.342 0 0.543 0.137 0.201 0.133 0.201 0.519v4.668q0 0.338-0.153 0.507-0.149 0.169-0.402 0.169-0.237 0-0.39-0.169t-0.153-0.507v-4.072l-0.946 3.759q-0.093 0.366-0.153 0.539-0.056 0.169-0.213 0.31t-0.435 0.141q-0.209 0-0.354-0.093-0.145-0.089-0.225-0.229t-0.129-0.31q-0.044-0.173-0.093-0.358z"/>
</svg>
