<?xml version="1.0"?>
<!-- Generated by IcoMoon.io -->
<svg xmlns="http://www.w3.org/2000/svg" version="1.1" width="20" height="20" viewBox="0 0 20 20" fill="#21123d">
<title>file-add</title>
<path fill="#21123d" d="M3.5 1c-0.827 0-1.5 0.673-1.5 1.5v16c0 0.827 0.673 1.5 1.5 1.5h13c0.827 0 1.5-0.673 1.5-1.5v-9.246c0-0.74-1-0.722-1 0v9.246c0 0.276-0.224 0.5-0.5 0.5h-13c-0.276 0-0.5-0.224-0.5-0.5v-16c0-0.276 0.224-0.5 0.5-0.5h6.654c0.677 0 0.656-1 0-1z"/>
<path fill="#21123d" d="M15.91 0.035c-2.24 0-4.055 1.815-4.055 4.055s1.815 4.055 4.055 4.055c2.24 0 4.055-1.815 4.055-4.055s-1.815-4.055-4.055-4.055zM18.163 4.541h-1.802v1.802c0 0.642-0.901 0.631-0.901 0v-1.802h-1.802c-0.541 0-0.557-0.901 0-0.901h1.802v-1.802c0-0.539 0.901-0.546 0.901 0v1.802h1.802c0.454 0 0.484 0.901 0 0.901z"/>
</svg>
