<?xml version="1.0"?>
<!-- Generated by IcoMoon.io -->
<svg xmlns="http://www.w3.org/2000/svg" version="1.1" width="20" height="20" viewBox="0 0 20 20" fill="#21123d">
<title>file-files-CHout</title>
<path fill="#21123d" d="M16.5 4h-0.5v-0.5c0-0.827-0.673-1.5-1.5-1.5h-0.5v-0.5c0-0.827-0.673-1.5-1.5-1.5h-7.5c-0.133 0-0.26 0.053-0.354 0.146l-3.5 3.5c-0.094 0.094-0.146 0.221-0.146 0.354v10.5c0 0.827 0.673 1.5 1.5 1.5h0.5v0.5c0 0.827 0.673 1.5 1.5 1.5h0.5v0.5c0 0.827 0.673 1.5 1.5 1.5h10c0.827 0 1.5-0.673 1.5-1.5v-13c0-0.827-0.673-1.5-1.5-1.5zM5 1.207v2.293c0 0.276-0.224 0.5-0.5 0.5h-2.293l2.793-2.793zM2 14.5v-9.5h2.5c0.827 0 1.5-0.673 1.5-1.5v-2.5h6.5c0.276 0 0.5 0.224 0.5 0.5v13c0 0.276-0.224 0.5-0.5 0.5h-10c-0.276 0-0.5-0.224-0.5-0.5zM4 16.5v-0.5h8.5c0.827 0 1.5-0.673 1.5-1.5v-11.5h0.5c0.276 0 0.5 0.224 0.5 0.5v13c0 0.276-0.224 0.5-0.5 0.5h-10c-0.276 0-0.5-0.224-0.5-0.5zM17 18.5c0 0.276-0.224 0.5-0.5 0.5h-10c-0.276 0-0.5-0.224-0.5-0.5v-0.5h8.5c0.827 0 1.5-0.673 1.5-1.5v-11.5h0.5c0.276 0 0.5 0.224 0.5 0.5v13z"/>
<path fill="#21123d" d="M3.496 11.631c-0.242 0-0.443 0.201-0.443 0.443v0.885c0 0.486 0.398 0.887 0.885 0.887h7.090c0.486 0 0.885-0.4 0.885-0.887v-0.885c0-0.242-0.201-0.443-0.443-0.443s-0.441 0.201-0.441 0.443v0.887l-7.090-0.002v-0.885c0-0.242-0.2-0.443-0.441-0.443zM3.494 12.074h0.002v0.885c0-0.001-0.002 0.001-0.002 0zM11.469 12.074h0.002v0.885c0 0.001-0.002-0.001-0.002 0z"/>
<path fill="#21123d" d="M7.17 6.666l-2.215 2.215c-0.171 0.171-0.171 0.456 0 0.627s0.454 0.171 0.625 0l1.459-1.459v4.025c0 0.242 0.201 0.443 0.443 0.443s0.443-0.201 0.443-0.443v-4.025l1.459 1.459c0.086 0.086 0.2 0.129 0.313 0.129 0.113 0 0.227-0.044 0.313-0.129h0.002c0.171-0.171 0.171-0.456 0-0.627l-2.215-2.215c-0.171-0.171-0.456-0.171-0.627 0z"/>
</svg>
