<?xml version="1.0"?>
<!-- Generated by IcoMoon.io -->
<svg xmlns="http://www.w3.org/2000/svg" version="1.1" width="20" height="20" viewBox="0 0 20 20" fill="#21123d">
<title>filetype-sjabloon</title>
<path fill="#21123d" d="M3.5 1c-0.827 0-1.5 0.673-1.5 1.5v5.303h1v-5.303c0-0.276 0.224-0.5 0.5-0.5h8.5v3.5c0 0.827 0.673 1.5 1.5 1.5h3.5v0.803h1v-1.803c0-0.133-0.053-0.26-0.146-0.354l-4.5-4.5c-0.094-0.094-0.221-0.146-0.354-0.146h-9.5zM13 2.207l3.793 3.793h-3.293c-0.276 0-0.5-0.224-0.5-0.5v-3.293zM2 17.758v0.742c0 0.827 0.673 1.5 1.5 1.5h13c0.827 0 1.5-0.673 1.5-1.5v-0.742h-1v0.742c0 0.276-0.224 0.5-0.5 0.5h-13c-0.276 0-0.5-0.224-0.5-0.5v-0.742h-1z"/>
<path fill="#21123d" d="M2.109 7.758c-1.147 0-2.088 0.94-2.088 2.088v5.936c0 1.147 0.94 2.088 2.088 2.088h15.691c1.147 0 2.090-0.94 2.090-2.088v-5.936c0-1.147-0.942-2.088-2.090-2.088zM2.109 8.902h15.691c0.533 0 0.943 0.411 0.943 0.943v5.936c0 0.533-0.411 0.943-0.943 0.943h-15.691c-0.533 0-0.943-0.411-0.943-0.943v-5.936c0-0.533 0.411-0.943 0.943-0.943z"/>
</svg>
