<?xml version="1.0"?>
<!-- Generated by IcoMoon.io -->
<svg xmlns="http://www.w3.org/2000/svg" version="1.1" width="20" height="20" viewBox="0 0 20 20" fill="#21123d">
<title>filetype-default</title>
<path fill="#21123d" d="M3.5 1c-0.827 0-1.5 0.673-1.5 1.5v5.303h1v-5.303c0-0.276 0.224-0.5 0.5-0.5h8.5v3.5c0 0.827 0.673 1.5 1.5 1.5h3.5v0.803h1v-1.803c0-0.133-0.053-0.26-0.146-0.354l-4.5-4.5c-0.094-0.094-0.221-0.146-0.354-0.146h-9.5zM13 2.207l3.793 3.793h-3.293c-0.276 0-0.5-0.224-0.5-0.5v-3.293zM2 17.758v0.742c0 0.827 0.673 1.5 1.5 1.5h13c0.827 0 1.5-0.673 1.5-1.5v-0.742h-1v0.742c0 0.276-0.224 0.5-0.5 0.5h-13c-0.276 0-0.5-0.224-0.5-0.5v-0.742h-1z"/>
<path fill="#21123d" d="M5.913 11.173h-1.904v1.221h1.592q0.221 0 0.329 0.101 0.111 0.098 0.111 0.264t-0.111 0.264-0.329 0.098h-1.592v1.572q0 0.299-0.137 0.446-0.133 0.143-0.345 0.143-0.215 0-0.352-0.146-0.133-0.146-0.133-0.443v-3.672q0-0.208 0.062-0.339 0.062-0.133 0.192-0.192 0.133-0.062 0.339-0.062h2.279q0.231 0 0.342 0.104 0.114 0.101 0.114 0.267 0 0.169-0.114 0.273-0.111 0.101-0.342 0.101z"/>
<path fill="#21123d" d="M7.124 14.692v-3.76q0-0.293 0.133-0.439t0.345-0.146q0.218 0 0.352 0.146 0.137 0.143 0.137 0.439v3.76q0 0.296-0.137 0.443-0.133 0.146-0.352 0.146-0.208 0-0.345-0.146-0.133-0.15-0.133-0.443z"/>
<path fill="#21123d" d="M10.116 10.932v3.473h1.96q0.234 0 0.358 0.114 0.127 0.114 0.127 0.286 0 0.176-0.124 0.286-0.124 0.107-0.361 0.107h-2.334q-0.316 0-0.456-0.14-0.137-0.14-0.137-0.452v-3.675q0-0.293 0.13-0.439 0.133-0.146 0.348-0.146 0.218 0 0.352 0.146 0.137 0.143 0.137 0.439z"/>
<path fill="#21123d" d="M16.336 11.173h-2.178v1.172h2.005q0.221 0 0.329 0.101 0.111 0.098 0.111 0.26t-0.107 0.267q-0.107 0.101-0.332 0.101h-2.005v1.357h2.253q0.228 0 0.342 0.107 0.117 0.104 0.117 0.28 0 0.169-0.117 0.277-0.114 0.104-0.342 0.104h-2.627q-0.316 0-0.456-0.14-0.137-0.14-0.137-0.452v-3.587q0-0.208 0.062-0.339 0.062-0.133 0.192-0.192 0.133-0.062 0.339-0.062h2.552q0.231 0 0.342 0.104 0.114 0.101 0.114 0.267 0 0.169-0.114 0.273-0.111 0.101-0.342 0.101z"/>
<path fill="#21123d" d="M2.109 7.758c-1.147 0-2.088 0.94-2.088 2.088v5.936c0 1.147 0.94 2.088 2.088 2.088h15.691c1.147 0 2.090-0.94 2.090-2.088v-5.936c0-1.147-0.942-2.088-2.090-2.088zM2.109 8.902h15.691c0.533 0 0.943 0.411 0.943 0.943v5.936c0 0.533-0.411 0.943-0.943 0.943h-15.691c-0.533 0-0.943-0.411-0.943-0.943v-5.936c0-0.533 0.411-0.943 0.943-0.943z"/>
</svg>
