<?xml version="1.0"?>
<!-- Generated by IcoMoon.io -->
<svg xmlns="http://www.w3.org/2000/svg" version="1.1" width="20" height="20" viewBox="0 0 20 20" fill="#21123d">
<title>filetype-ppt</title>
<path fill="#21123d" d="M10.969 5.423c0-0.225-0.070-0.403-0.207-0.539-0.138-0.134-0.374-0.201-0.708-0.201h-0.555v1.502h0.551c0.358 0 0.603-0.074 0.736-0.222 0.122-0.133 0.183-0.312 0.183-0.54zM12.438 5.407c0 0.497-0.124 0.907-0.375 1.231-0.323 0.421-0.86 0.631-1.611 0.631h-0.953v1.92h-1.471v-5.591h2.398c0.682 0 1.2 0.189 1.554 0.568 0.305 0.324 0.458 0.738 0.458 1.242zM16.297 12.028h-12.594v-12.028h12.594zM4.913 10.818h10.172v-9.608h-10.172z"/>
<path fill="#21123d" d="M4.761 17.606h-1.055v1.609q0 0.345-0.163 0.523t-0.411 0.178q-0.26 0-0.419-0.174-0.159-0.178-0.159-0.52v-4.382q0-0.38 0.174-0.543t0.554-0.163h1.477q0.655 0 1.008 0.101 0.349 0.097 0.601 0.322 0.256 0.225 0.388 0.551t0.132 0.733q0 0.869-0.535 1.318-0.535 0.446-1.594 0.446zM4.482 15h-0.776v1.737h0.776q0.407 0 0.679-0.085 0.275-0.085 0.419-0.279t0.143-0.508q0-0.376-0.221-0.613-0.248-0.252-1.020-0.252z"/>
<path fill="#21123d" d="M10.066 17.606h-1.055v1.609q0 0.345-0.163 0.523t-0.411 0.178q-0.26 0-0.419-0.174-0.159-0.178-0.159-0.52v-4.382q0-0.38 0.174-0.543t0.554-0.163h1.477q0.655 0 1.008 0.101 0.349 0.097 0.601 0.322 0.256 0.225 0.388 0.551t0.132 0.733q0 0.869-0.535 1.318-0.535 0.446-1.594 0.446zM9.786 15h-0.776v1.737h0.776q0.407 0 0.679-0.085 0.275-0.085 0.419-0.279t0.143-0.508q0-0.376-0.221-0.613-0.248-0.252-1.020-0.252z"/>
<path fill="#21123d" d="M16.855 15.085h-1.256v4.13q0 0.357-0.159 0.531-0.159 0.171-0.411 0.171-0.256 0-0.419-0.174-0.159-0.174-0.159-0.527v-4.13h-1.256q-0.295 0-0.438-0.128-0.143-0.132-0.143-0.345 0-0.221 0.147-0.349 0.151-0.128 0.434-0.128h3.66q0.299 0 0.442 0.132 0.147 0.132 0.147 0.345t-0.147 0.345q-0.147 0.128-0.442 0.128z"/>
</svg>
