<?xml version="1.0"?>
<!-- Generated by IcoMoon.io -->
<svg xmlns="http://www.w3.org/2000/svg" version="1.1" width="20" height="20" viewBox="0 0 20 20" fill="#21123d">
<title>folder-addto</title>
<path fill="#21123d" d="M3.525 3.135c-0.422 0-0.884 0.284-1.072 0.662l-0.506 1.014c-0.145 0.288-0.252 0.747-0.252 1.070v1.578c0.027 0.513 0.898 0.516 0.914 0v-1.578c0-0.179 0.076-0.501 0.156-0.662l0.508-1.012c0.035-0.070 0.174-0.156 0.252-0.156h6.406c0.079 0 0.219 0.086 0.254 0.156l0.506 1.012c0.189 0.378 0.648 0.662 1.070 0.662h6.865c0.253 0 0.457 0.206 0.457 0.459v9.152c0 0.253-0.204 0.457-0.457 0.457h-15.559c-0.253 0-0.459-0.204-0.459-0.457v-2.1c0.017-0.593-0.909-0.543-0.914 0v2.1c0 0.757 0.616 1.373 1.373 1.373h15.559c0.757 0 1.373-0.616 1.373-1.373v-9.152c0-0.757-0.616-1.373-1.373-1.373h-6.865c-0.079 0-0.217-0.086-0.252-0.156l-0.506-1.014c-0.189-0.378-0.65-0.662-1.072-0.662z"/>
<path fill="#21123d" d="M7.174 6.541c-0.12 0-0.239 0.046-0.33 0.137-0.182 0.182-0.182 0.482 0 0.664l2.615 2.615h-8.834c-0.257 0-0.469 0.212-0.469 0.469s0.212 0.469 0.469 0.469h8.834l-2.615 2.615c-0.182 0.182-0.182 0.482 0 0.664 0.091 0.091 0.213 0.137 0.332 0.137s0.239-0.047 0.33-0.137l3.418-3.416c0.11-0.11 0.181-0.176 0.157-0.32l0.015-0.084c-0.015-0.093-0.101-0.189-0.172-0.26l-3.418-3.416c-0.091-0.091-0.212-0.137-0.332-0.137z"/>
</svg>
