<?xml version="1.0" encoding="UTF-8" standalone="no"?>
<svg xmlns:dc="http://purl.org/dc/elements/1.1/" xmlns:cc="http://creativecommons.org/ns#" xmlns:rdf="http://www.w3.org/1999/02/22-rdf-syntax-ns#" xmlns:svg="http://www.w3.org/2000/svg" xmlns="http://www.w3.org/2000/svg" xmlns:sodipodi="http://sodipodi.sourceforge.net/DTD/sodipodi-0.dtd" xmlns:inkscape="http://www.inkscape.org/namespaces/inkscape" width="20" height="20" version="1.1" viewBox="0 0 5.2917 5.2917" id="svg24" sodipodi:docname="invoice-approver-2-edit.svg" inkscape:version="0.92.4 (5da689c313, 2019-01-14)" fill="#21123d">
  <metadata id="metadata30">
    <rdf:RDF>
      <cc:Work rdf:about="">
        <dc:format>image/svg+xml</dc:format>
        <dc:type rdf:resource="http://purl.org/dc/dcmitype/StillImage"/>
      </cc:Work>
    </rdf:RDF>
  </metadata>
  <defs id="defs28"/>
  <sodipodi:namedview pagecolor="#ffffff" bordercolor="#666666" borderopacity="1" objecttolerance="10" gridtolerance="10" guidetolerance="10" inkscape:pageopacity="0" inkscape:pageshadow="2" inkscape:window-width="1920" inkscape:window-height="1001" id="namedview26" showgrid="false" inkscape:zoom="23.6" inkscape:cx="8.364999" inkscape:cy="8.8519601" inkscape:window-x="-9" inkscape:window-y="-9" inkscape:window-maximized="1" inkscape:current-layer="svg24"/>
  <path inkscape:connector-curvature="0" id="path10" style="color:#000000;font-variant-ligatures:normal;font-variant-position:normal;font-variant-caps:normal;font-variant-numeric:normal;font-variant-alternates:normal;font-feature-settings:normal;text-indent:0;text-decoration:none;text-decoration-line:none;text-decoration-style:solid;text-decoration-color:#000000;text-transform:none;text-orientation:mixed;dominant-baseline:auto;white-space:normal;shape-padding:0;isolation:auto;mix-blend-mode:normal;solid-color:#000000;fill: #21123d;color-rendering:auto;image-rendering:auto;shape-rendering:auto;stroke: #21123d;" dominant-baseline="auto" d="M 4.9206204,0.07663825 C 4.8210072,0.06164189 4.7204943,0.08630638 4.6394675,0.14610277 L 3.0583565,1.3138029 c -0.011021,0.00864 -0.022449,0.019947 -0.030186,0.034174 L 2.7234674,1.9086656 c -0.020028,0.036999 -0.017549,0.082995 0.00761,0.1170016 0.01739,0.023426 0.043491,0.038432 0.071696,0.042678 0.011952,0.0018 0.025116,8.438e-4 0.037091,-0.00118 l 0.6272131,-0.1253451 -6.16e-5,-0.00195 c 0.01318,-0.00309 0.029041,-0.00721 0.042454,-0.016975 L 5.088573,0.75524041 c 0.081048,-0.0598198 0.1354115,-0.14942228 0.1504143,-0.24901485 0.012835,-0.085238 -0.017857,-0.16658311 -0.06036,-0.24039745 l -6.18e-5,-0.001952 0.00329,-0.0196448 -0.01233,-0.0191513 C 5.1096999,0.14407697 5.0201847,0.09162076 4.9205714,0.07662639 Z m -0.032255,0.21597074 c 0.042823,0.006448 0.079862,0.0282335 0.1055648,0.063103 0.02569,0.0347642 0.035581,0.075513 0.029143,0.11827687 -0.00644,0.0427897 -0.028274,0.07985 -0.063102,0.10556485 L 4.916059,0.61220743 4.8931266,0.62856564 4.701297,0.37082909 4.7681403,0.32181708 C 4.8029987,0.29610357 4.845611,0.28617576 4.888368,0.29261221 Z M 4.5275916,0.50137445 4.71747,0.75917884 3.3959866,1.7330609 3.0270561,1.8072585 3.2080007,1.4732482 Z"/>
  <g style="fill: #21123d;stroke: #21123d;" id="g14" transform="matrix(0.26242352,-0.03371158,0.03371158,0.26242352,-18.006653,-0.02082675)">
    <path style="fill: #21123d;stroke-width:1;stroke: #21123d;" d="m 77.794307,10.144655 c -0.225345,-0.04722 -0.455932,-0.08041 -0.691674,-0.09901 -3.0236,-0.2386021 -5.676732,2.027157 -5.915334,5.050758 -0.178658,2.263981 1.046352,4.319475 2.942538,5.310026 0.243803,-0.27093 0.511014,-0.523245 0.803604,-0.749604 -1.737716,-0.733569 -2.90489,-2.502425 -2.748586,-4.483142 0.195177,-2.473311 2.365275,-4.326059 4.838586,-4.130882 1.586867,0.125225 2.894975,1.076189 3.592813,2.38706 l 0.821451,-0.606177 c -0.762893,-1.340445 -2.065983,-2.34848 -3.643398,-2.679031 z" id="path881" inkscape:connector-curvature="0"/>
    <path style="fill: #21123d;stroke-width:0.951213;stroke: #21123d;" d="m 80.32221,18.056008 c 0.01885,0.0024 0.03765,0.0028 0.0565,0.0054 0.318169,0.04387 0.626387,0.118167 0.928555,0.207615 0.297256,-0.400444 0.534813,-0.810978 0.697364,-1.198575 0.671897,-1.602112 -1.619439,0.910822 -1.619439,0.910822 -0.0194,0.02621 -0.04298,0.04896 -0.06299,0.07472 z" id="path877" inkscape:connector-curvature="0"/>
  </g>
  <path d="m 4.6231947,2.887684 c -0.04336,3.175e-4 -0.0866,0.016656 -0.118986,0.049233 L 3.4500424,3.997508 3.0602005,3.6167151 c -0.065724,-0.064198 -0.1739054,-0.063407 -0.2386869,0.00175 -0.064778,0.065152 -0.063994,0.1723792 0.00172,0.236581 l 0.5100442,0.4985367 3.175e-4,-2.2e-6 c 0.032712,0.03163 0.075994,0.04805 0.1190379,0.04782 l 3.175e-4,-2.1e-6 c 0.04261,-3.969e-4 0.086187,-0.01723 0.1186531,-0.04988 L 4.7445767,3.1717533 c 0.06478,-0.065152 0.06399,-0.1723793 -0.0017,-0.2365811 -0.03286,-0.032099 -0.07634,-0.047804 -0.119694,-0.047488 z" dominant-baseline="auto" style="color:#000000;font-variant-ligatures:normal;font-variant-position:normal;font-variant-caps:normal;font-variant-numeric:normal;font-variant-alternates:normal;font-feature-settings:normal;text-indent:0;text-decoration:none;text-decoration-line:none;text-decoration-style:solid;text-decoration-color:#000000;text-transform:none;text-orientation:mixed;dominant-baseline:auto;white-space:normal;shape-padding:0;isolation:auto;mix-blend-mode:normal;solid-color:#000000;fill: #21123d;stroke: #21123d;stroke-width:0.16804896;color-rendering:auto;image-rendering:auto;shape-rendering:auto" id="path4-6" inkscape:connector-curvature="0"/>
  <path inkscape:connector-curvature="0" style="color:#000000;font-variant-ligatures:normal;font-variant-position:normal;font-variant-caps:normal;font-variant-numeric:normal;font-variant-alternates:normal;font-feature-settings:normal;text-indent:0;text-decoration:none;text-decoration-line:none;text-decoration-style:solid;text-decoration-color:#000000;text-transform:none;text-orientation:mixed;dominant-baseline:auto;white-space:normal;shape-padding:0;isolation:auto;mix-blend-mode:normal;solid-color:#000000;fill: #21123d;stroke: #21123d;stroke-width:0.16804896;stroke-opacity:1;color-rendering:auto;image-rendering:auto" d="M 3.2226062,5.2332506 C 3.0233428,5.1880566 2.834124,5.1085176 2.6639805,4.9955366 l -2.26447565,-0.01033 c -0.073024,3.421e-4 -0.1322925,-0.05915 -0.1322925,-0.1312587 2.645e-4,-0.0037 0.00625,-0.3668852 0.280088,-0.7224412 C 0.82877365,3.7659665 1.299194,3.5349409 1.9213854,3.4473064 1.9299554,3.3552704 1.9471234,3.265305 1.9704784,3.1770368 1.6387812,3.2159562 1.340218,3.2882461 1.0857722,3.4007923 0.76854075,3.5408038 0.51316945,3.7373503 0.32664055,3.9847396 c -0.3204064,0.425036 -0.3240132,0.85079 -0.3240132,0.868686 0,0.21765 0.1780724,0.393916 0.3968775,0.3948109 l 2.84945645,5.291e-4 c -0.012602,-0.0074 -0.015245,-0.009 -0.026355,-0.015499 z" id="path918"/>
  <path inkscape:connector-curvature="0" id="path2-8-4" style="color:#000000;font-variant-ligatures:normal;font-variant-position:normal;font-variant-caps:normal;font-variant-numeric:normal;font-variant-alternates:normal;font-feature-settings:normal;text-indent:0;text-decoration:none;text-decoration-line:none;text-decoration-style:solid;text-decoration-color:#000000;text-transform:none;text-orientation:mixed;dominant-baseline:auto;white-space:normal;shape-padding:0;isolation:auto;mix-blend-mode:normal;solid-color:#000000;fill: #21123d;stroke: #21123d;stroke-width:0.16304471;stroke-opacity:1;color-rendering:auto;image-rendering:auto" dominant-baseline="auto" d="M 3.6664661,2.0417487 C 3.2295831,2.0375582 2.8155103,2.2028685 2.503735,2.5061811 2.191993,2.8094555 2.0174334,3.2165055 2.0132799,3.6495245 2.0091286,4.0823787 2.1756509,4.4926714 2.4817156,4.8017557 2.7877479,5.1108005 3.1984439,5.2838859 3.6353266,5.2880769 4.0722088,5.2922494 4.4862801,5.1271026 4.7980541,4.8239745 5.1098111,4.520836 5.2843521,4.1139603 5.2885061,3.6809411 5.2926601,3.2479514 5.1261201,2.8376195 4.8200731,2.5283998 4.5140421,2.21919 4.1033481,2.0459393 3.6664661,2.0417487 Z m -0.00312,0.3246309 c 0.723144,0.00693 1.304517,0.5943431 1.297642,1.3110996 C 4.9541111,4.3942366 4.3615771,4.970382 3.6384405,4.9634459 2.9153032,4.9565085 2.3339303,4.3691028 2.3408057,3.6523463 2.3476806,2.9355892 2.9402145,2.3594432 3.6633515,2.3663796 Z m 1.235406,2.0296254 c -4.71078382,0.5039157 -2.355392,0.251962 0,0 z"/>
</svg>
