<?xml version="1.0" encoding="UTF-8" standalone="no"?>
<svg xmlns:dc="http://purl.org/dc/elements/1.1/" xmlns:cc="http://creativecommons.org/ns#" xmlns:rdf="http://www.w3.org/1999/02/22-rdf-syntax-ns#" xmlns:svg="http://www.w3.org/2000/svg" xmlns="http://www.w3.org/2000/svg" xmlns:sodipodi="http://sodipodi.sourceforge.net/DTD/sodipodi-0.dtd" xmlns:inkscape="http://www.inkscape.org/namespaces/inkscape" width="20" height="20" version="1.1" viewBox="0 0 5.2917 5.2917" id="svg20" sodipodi:docname="invoice-approver-2-return.svg" inkscape:version="0.92.4 (5da689c313, 2019-01-14)" fill="#21123d">
  <metadata id="metadata26">
    <rdf:RDF>
      <cc:Work rdf:about="">
        <dc:format>image/svg+xml</dc:format>
        <dc:type rdf:resource="http://purl.org/dc/dcmitype/StillImage"/>
      </cc:Work>
    </rdf:RDF>
  </metadata>
  <defs id="defs24"/>
  <sodipodi:namedview pagecolor="#ffffff" bordercolor="#666666" borderopacity="1" objecttolerance="10" gridtolerance="10" guidetolerance="10" inkscape:pageopacity="0" inkscape:pageshadow="2" inkscape:window-width="1920" inkscape:window-height="1001" id="namedview22" showgrid="false" inkscape:snap-global="false" inkscape:zoom="23.6" inkscape:cx="-2.2090253" inkscape:cy="9.3314834" inkscape:window-x="-9" inkscape:window-y="-9" inkscape:window-maximized="1" inkscape:current-layer="svg20"/>
  <path inkscape:connector-curvature="0" id="path8" style="color:#000000;font-variant-ligatures:normal;font-variant-position:normal;font-variant-caps:normal;font-variant-numeric:normal;font-variant-alternates:normal;font-feature-settings:normal;text-indent:0;text-decoration:none;text-decoration-line:none;text-decoration-style:solid;text-decoration-color:#000000;text-transform:none;text-orientation:mixed;dominant-baseline:auto;white-space:normal;shape-padding:0;isolation:auto;mix-blend-mode:normal;solid-color:#000000;fill: #21123d;fill-opacity:1;stroke: #21123d;stroke-width:0.105834;stroke-miterlimit:4;stroke-dasharray:none;stroke-opacity:1;color-rendering:auto;image-rendering:auto;shape-rendering:auto" dominant-baseline="auto" d="M 3.4373511,0.22659027 2.8629307,0.92554509 c -0.044238,0.053876 -0.036146,0.13625101 0.017519,0.18078821 l 0.6989556,0.574431 c 0.028376,0.023999 0.061492,0.032335 0.092766,0.029149 0.032874,-0.00403 0.063821,-0.018071 0.085609,-0.044182 0.044347,-0.053991 0.036125,-0.1363683 -0.017532,-0.1808199 L 3.2799124,1.1036654 3.5473642,1.0786984 c 0.7034707,-0.068069 1.3302052,0.4479758 1.3982726,1.1514248 0.00637,0.069609 0.069913,0.1213111 0.1396739,0.1143444 0.069766,-0.00614 0.1213222,-0.069906 0.1143759,-0.1396763 C 5.1816176,1.9698969 5.0817233,1.781058 5.004366,1.6012121 L 5.001486,1.6002996 C 4.9087825,1.4365206 4.7929819,1.288367 4.6470583,1.1682657 4.4932114,1.0415659 4.3189058,0.94681189 4.1295191,0.88749689 3.9332823,0.82604335 3.727918,0.80494185 3.5218419,0.82489585 L 3.2569974,0.84971429 3.4484605,0.61673712 3.6356741,0.38983734 c 0.044238,-0.0538763 0.036525,-0.13368895 -0.017146,-0.17822593 -0.05387,-0.044181 -0.1368497,-0.0389024 -0.1812744,0.0146617 z"/>
  <path style="fill: #21123d;stroke-width:0.99733192;stroke: #21123d;" d="M 10.228516 0.07421875 C 9.9592148 0.079111218 9.6880356 0.10305141 9.4160156 0.14648438 C 6.4209758 0.62468303 4.3719906 3.4368235 4.8476562 6.4160156 C 5.1540181 8.3348208 6.4384353 9.8532237 8.1113281 10.568359 C 8.2836255 10.275824 8.476354 9.993666 8.6953125 9.7285156 C 7.2339542 9.1811252 6.0980835 7.899494 5.8359375 6.2578125 C 5.4468433 3.8208648 7.1243096 1.5181394 9.5742188 1.1269531 C 10.438974 0.98888241 11.20614 1.0626539 11.955078 1.3847656 C 12.172395 1.0004638 12.330196 0.80178455 12.525391 0.52734375 C 11.822062 0.21584854 11.036418 0.059541345 10.228516 0.07421875 z " transform="scale(0.264585)" id="path886"/>
  <path d="m 4.62344,2.8822743 c -0.04336,3.175e-4 -0.0866,0.016656 -0.1189859,0.049233 L 3.4502876,3.9920983 3.0604457,3.6113054 c -0.065724,-0.064198 -0.1739054,-0.063407 -0.2386869,0.00175 -0.064778,0.065152 -0.063994,0.1723793 0.00172,0.2365811 l 0.5100442,0.4985366 3.175e-4,-2.1e-6 c 0.032712,0.03163 0.075994,0.04805 0.1190379,0.04782 l 3.175e-4,-2.1e-6 c 0.04261,-3.969e-4 0.086187,-0.01723 0.1186531,-0.04988 l 1.1729729,-1.179769 c 0.06478,-0.065152 0.06399,-0.1723793 -0.00169,-0.2365811 -0.03286,-0.032099 -0.07634,-0.047804 -0.1196937,-0.047488 z" dominant-baseline="auto" style="color:#000000;font-variant-ligatures:normal;font-variant-position:normal;font-variant-caps:normal;font-variant-numeric:normal;font-variant-alternates:normal;font-feature-settings:normal;text-indent:0;text-decoration:none;text-decoration-line:none;text-decoration-style:solid;text-decoration-color:#000000;text-transform:none;text-orientation:mixed;dominant-baseline:auto;white-space:normal;shape-padding:0;isolation:auto;mix-blend-mode:normal;solid-color:#000000;fill: #21123d;stroke: #21123d;stroke-width:0.16804896;color-rendering:auto;image-rendering:auto;shape-rendering:auto" id="path4-6" inkscape:connector-curvature="0"/>
  <path inkscape:connector-curvature="0" style="color:#000000;font-variant-ligatures:normal;font-variant-position:normal;font-variant-caps:normal;font-variant-numeric:normal;font-variant-alternates:normal;font-feature-settings:normal;text-indent:0;text-decoration:none;text-decoration-line:none;text-decoration-style:solid;text-decoration-color:#000000;text-transform:none;text-orientation:mixed;dominant-baseline:auto;white-space:normal;shape-padding:0;isolation:auto;mix-blend-mode:normal;solid-color:#000000;fill: #21123d;stroke: #21123d;stroke-width:0.16804896;stroke-opacity:1;color-rendering:auto;image-rendering:auto" d="M 2.942104,5.2734242 C 2.7586959,5.1410273 2.7280275,5.1268905 2.609413,5.0258008 L 0.41232148,5.011507 c -0.073024,3.421e-4 -0.1322925,-0.05915 -0.1322925,-0.1312588 2.645e-4,-0.0037 0.00625,-0.3668852 0.280088,-0.7224411 C 0.84159028,3.7922669 1.3120107,3.5612413 1.9342021,3.4736068 1.942772,3.3815709 1.9599401,3.2916054 1.9832951,3.2033372 1.6515979,3.2422566 1.3530347,3.3145465 1.0985889,3.4270928 0.78135738,3.5671043 0.52598608,3.7636507 0.33945718,4.0110401 c -0.3204064,0.4250359 -0.3240132,0.85079 -0.3240132,0.868686 0,0.21765 0.1780724,0.393916 0.3968775,0.394811 0.50947048,-6.749e-4 2.56207842,0.017285 2.52978252,-0.00111 z" id="path918" sodipodi:nodetypes="cccccccccsccc"/>
  <path inkscape:connector-curvature="0" id="path2-8-4-4" style="color:#000000;font-variant-ligatures:normal;font-variant-position:normal;font-variant-caps:normal;font-variant-numeric:normal;font-variant-alternates:normal;font-feature-settings:normal;text-indent:0;text-decoration:none;text-decoration-line:none;text-decoration-style:solid;text-decoration-color:#000000;text-transform:none;text-orientation:mixed;dominant-baseline:auto;white-space:normal;shape-padding:0;isolation:auto;mix-blend-mode:normal;solid-color:#000000;fill: #21123d;stroke: #21123d;stroke-width:0.16304471;stroke-opacity:1;color-rendering:auto;image-rendering:auto" dominant-baseline="auto" d="M 3.6704336,2.0373025 C 3.2335508,2.033112 2.8194779,2.1984223 2.5077026,2.5017349 2.1959605,2.8050092 2.0214009,3.2120592 2.0172474,3.6450782 2.013096,4.0779326 2.1796184,4.4882251 2.4856832,4.7973095 2.7917156,5.1063543 3.2024115,5.2794398 3.6392943,5.2836305 4.0761765,5.287803 4.4902478,5.1226562 4.8020217,4.8195283 5.1137788,4.5163899 5.2883199,4.109514 5.2924739,3.676495 5.2966279,3.2435051 5.1300875,2.8331732 4.8240407,2.5239536 4.5180097,2.2147438 4.1073158,2.0414931 3.6704336,2.0373025 Z m -0.00312,0.3246309 c 0.7231441,0.00693 1.3045169,0.594343 1.2976419,1.3110995 C 4.9580792,4.3897905 4.3655447,4.9659356 3.6424082,4.9589995 2.9192707,4.9520621 2.3378978,4.3646565 2.3447732,3.6479 2.3516482,2.9311429 2.9441821,2.354997 3.6673191,2.3619334 Z m 1.2354062,2.0296253 c -4.71078416,0.5039158 -2.3553921,0.2519622 0,0 z"/>
</svg>
