<?xml version="1.0" encoding="utf-8"?>
<!-- Generator: Adobe Illustrator 19.1.0, SVG Export Plug-In . SVG Version: 6.00 Build 0)  -->
<svg xmlns="http://www.w3.org/2000/svg" xmlns:xlink="http://www.w3.org/1999/xlink" version="1.1" id="Layer_1" x="0px" y="0px" width="512px" height="512px" viewBox="0 0 512 512" style="enable-background:new 0 0 512 512;" xml:space="preserve" fill="#21123d">
<g>
            <path d="M499.8,473.6L361.1,334.9c30.8-35.5,49.6-81.8,49.6-132.4C410.7,90.9,319.9,0,208.2,0S5.6,90.9,5.6,202.5                         s90.9,202.5,202.5,202.5c44.9,0,86.2-14.8,119.8-39.6L468,505.4c4.4,4.4,10.2,6.6,15.9,6.6s11.5-2.2,15.9-6.6                         C508.6,496.6,508.6,482.4,499.8,473.6z M50.6,202.5C50.6,115.7,121.3,45,208.2,45s157.5,70.7,157.5,157.5S295,360.1,208.2,360.1                         S50.6,289.4,50.6,202.5z" fill="#21123d"/>
</g>
</svg>
