<?xml version="1.0" standalone="no"?>
<!DOCTYPE svg PUBLIC "-//W3C//DTD SVG 20010904//EN"
 "http://www.w3.org/TR/2001/REC-SVG-20010904/DTD/svg10.dtd">
<svg version="1.0" xmlns="http://www.w3.org/2000/svg"
 width="700.000000pt" height="700.000000pt" viewBox="0 0 700.000000 700.000000"
 preserveAspectRatio="xMidYMid meet">
<metadata>
Created by potrace 1.11, written by Peter Selinger 2001-2013
</metadata>
<g transform="translate(0.000000,700.000000) scale(0.100000,-0.100000)"
fill="#000000" stroke="none">
<path d="M3315 6768 c-127 -22 -272 -66 -400 -121 -75 -32 -278 -137 -296
-153 -8 -8 -18 -14 -22 -14 -3 0 -86 -46 -184 -103 -339 -197 -518 -300 -552
-320 -19 -10 -130 -73 -245 -140 -116 -66 -222 -127 -236 -135 -14 -7 -46 -25
-71 -40 -25 -15 -126 -73 -225 -130 -98 -57 -186 -108 -194 -113 -77 -46 -311
-179 -316 -179 -3 0 -18 -8 -32 -19 -15 -10 -58 -35 -97 -56 -91 -49 -128 -77
-194 -145 -68 -70 -103 -122 -146 -213 -87 -182 -108 -368 -71 -627 10 -69 48
-197 83 -280 84 -196 218 -371 415 -541 59 -51 317 -229 331 -229 7 0 247
-138 810 -464 225 -130 413 -236 418 -236 5 0 9 -4 9 -10 0 -5 4 -10 10 -10 5
0 31 -13 58 -29 26 -15 68 -39 93 -53 51 -29 449 -259 779 -451 299 -173 358
-204 405 -212 84 -13 124 1 337 122 112 63 221 125 243 137 22 12 157 89 300
171 143 81 285 162 315 178 30 17 84 48 119 69 34 21 64 38 66 38 2 0 36 19
77 43 40 24 98 57 128 74 30 16 177 100 325 185 149 85 295 168 325 185 76 42
299 170 330 188 91 56 196 86 252 72 79 -20 136 -143 133 -287 -4 -195 -83
-350 -264 -523 -82 -78 -280 -220 -386 -277 -22 -12 -56 -30 -75 -42 -19 -11
-165 -94 -325 -185 -159 -91 -315 -180 -347 -199 -31 -19 -61 -34 -67 -34 -6
0 -11 -4 -11 -9 0 -5 -8 -11 -17 -14 -10 -4 -36 -17 -58 -29 -58 -34 -145 -83
-185 -106 -19 -11 -159 -90 -310 -177 -151 -86 -300 -171 -330 -188 -30 -16
-71 -40 -90 -52 -19 -12 -64 -38 -100 -57 -36 -20 -125 -70 -198 -112 l-133
-76 -92 54 c-51 30 -108 63 -127 73 -19 11 -200 115 -401 231 -202 116 -382
220 -400 230 -19 11 -106 61 -194 112 -88 51 -180 104 -205 118 -25 13 -97 55
-160 92 -63 37 -268 155 -455 262 -187 108 -399 230 -472 271 -147 85 -157 91
-298 172 -55 32 -118 68 -140 81 -82 49 -142 74 -189 77 -179 15 -320 -117
-319 -298 0 -55 6 -81 26 -120 36 -71 71 -101 207 -177 81 -45 118 -66 428
-245 169 -97 327 -188 352 -201 25 -14 97 -56 160 -93 63 -36 133 -77 155 -89
22 -12 175 -100 340 -195 165 -95 455 -261 645 -370 190 -109 435 -250 545
-313 110 -63 214 -123 230 -132 17 -10 59 -35 95 -55 127 -74 178 -96 244
-102 85 -8 131 8 287 98 68 39 142 81 164 93 22 13 114 66 205 118 325 187
846 486 895 513 28 16 66 38 85 50 19 12 42 25 50 28 8 4 29 15 45 25 17 11
227 132 467 270 564 324 667 391 847 550 373 331 532 779 437 1227 -10 47 -50
154 -74 200 -134 253 -376 403 -651 403 -171 0 -295 -38 -496 -152 -66 -38
-140 -80 -165 -94 -25 -14 -180 -102 -345 -197 -165 -94 -320 -183 -345 -197
-25 -14 -345 -197 -712 -407 l-668 -382 -327 189 c-181 104 -344 199 -363 209
-19 11 -224 130 -455 263 -412 238 -450 260 -519 299 -18 11 -64 38 -101 60
-37 23 -68 41 -70 41 -4 0 -414 236 -435 250 -8 6 -22 13 -30 17 -8 4 -50 28
-93 55 -240 147 -397 320 -462 508 -70 200 -39 400 75 473 36 23 123 16 185
-15 44 -22 293 -162 385 -217 19 -11 49 -28 65 -37 17 -9 255 -146 530 -304
275 -158 523 -300 550 -315 28 -15 55 -31 60 -35 40 -30 908 -520 937 -529 48
-16 144 -12 183 6 17 8 204 114 417 236 214 122 403 230 420 241 44 24 437
250 888 509 201 115 385 221 410 235 25 13 151 86 280 160 129 74 249 143 265
152 17 10 54 31 83 49 29 17 56 31 60 31 13 0 102 101 102 116 0 8 8 31 18 52
21 42 23 146 4 187 -7 14 -18 37 -24 52 -22 46 -73 87 -175 141 -92 49 -152
81 -398 212 -55 29 -190 101 -300 160 -110 59 -245 131 -300 160 -55 29 -127
67 -160 85 -33 18 -100 54 -150 80 -49 26 -112 60 -140 75 -27 15 -95 51 -150
80 -55 29 -188 100 -295 158 -237 128 -392 205 -445 223 -22 7 -44 16 -50 20
-11 7 -198 56 -255 65 -57 10 -351 12 -405 2z m305 -573 c108 -13 206 -50 370
-139 63 -35 156 -85 205 -111 50 -26 122 -64 160 -85 76 -41 479 -255 615
-328 47 -25 110 -59 140 -75 88 -49 192 -104 235 -126 22 -11 90 -47 150 -80
61 -33 130 -69 154 -81 24 -11 42 -22 40 -24 -4 -3 -410 -234 -519 -294 -48
-27 -281 -159 -390 -222 -36 -20 -72 -40 -80 -43 -8 -4 -22 -11 -30 -17 -14
-9 -211 -121 -320 -182 -25 -14 -61 -35 -80 -47 -19 -11 -41 -24 -49 -28 -8
-3 -58 -31 -110 -61 -53 -30 -109 -62 -126 -72 -16 -9 -66 -36 -110 -60 -44
-23 -87 -48 -95 -54 -16 -12 -25 -17 -106 -61 -27 -14 -71 -40 -99 -56 -27
-16 -56 -32 -62 -35 -7 -4 -122 56 -254 132 -304 175 -331 190 -415 238 -38
22 -136 78 -219 126 -82 47 -231 133 -330 189 -99 57 -191 111 -205 120 -14 8
-27 16 -30 16 -3 0 -39 20 -80 45 -144 85 -363 210 -366 210 -3 0 -21 11 -42
24 -20 13 -70 43 -110 66 l-73 41 25 20 c13 10 26 19 29 19 3 0 44 23 92 50
48 28 89 50 91 50 3 0 30 16 60 35 30 19 56 35 59 35 2 0 57 31 122 69 103 60
413 236 543 309 106 59 306 173 320 182 35 21 261 147 335 185 104 54 232 100
320 114 116 19 128 19 235 6z"/>
</g>
</svg>
