<!-- Generated by IcoMoon.io -->
<svg version="1.1" xmlns="http://www.w3.org/2000/svg" width="20" height="20" viewBox="0 0 20 20">
<title>arrow-shortcut</title>
<path fill="#003665" d="M14.167 10.833v5c0 0.23-0.093 0.438-0.244 0.589s-0.359 0.244-0.589 0.244h-9.167c-0.23 0-0.438-0.093-0.589-0.244s-0.244-0.359-0.244-0.589v-9.167c0-0.23 0.092-0.438 0.244-0.589s0.359-0.244 0.589-0.244h5c0.46 0 0.833-0.373 0.833-0.833s-0.373-0.833-0.833-0.833h-5c-0.69 0-1.317 0.281-1.767 0.732s-0.732 1.077-0.732 1.767v9.167c0 0.69 0.281 1.317 0.732 1.768s1.078 0.732 1.767 0.732h9.167c0.69 0 1.317-0.281 1.768-0.732s0.732-1.078 0.732-1.768v-5c0-0.46-0.373-0.833-0.833-0.833s-0.833 0.373-0.833 0.833zM8.922 12.256l7.744-7.744v2.988c0 0.46 0.373 0.833 0.833 0.833s0.833-0.373 0.833-0.833v-5c0-0.113-0.023-0.221-0.063-0.319s-0.101-0.19-0.18-0.269c-0.001-0.001-0.001-0.001-0.002-0.002-0.077-0.077-0.168-0.138-0.269-0.18-0.098-0.041-0.206-0.063-0.319-0.063h-5c-0.46 0-0.833 0.373-0.833 0.833s0.373 0.833 0.833 0.833h2.988l-7.744 7.744c-0.326 0.326-0.326 0.853 0 1.178s0.853 0.326 1.178 0z"></path>
</svg>
