<?xml version="1.0" encoding="UTF-8"?>
<!-- Generated by IcoMoon.io -->
<svg width="20" height="20" version="1.1" viewBox="0 0 20 20" xmlns="http://www.w3.org/2000/svg">
 <title>clipboard-add</title>
 <path d="m8.5 3c-.132 0-.26-.053-.353-.147s-.147-.222-.147-.353.053-.26.147-.353c.093-.093.222-.147.353-.147s.261.053.353.147c.093.093.147.222.147.353s-.053.261-.147.353c-.093.093-.222.147-.353.147z" fill="#003665"/>
 <path d="m8.5 0c-1.224 0-2.246.88483-2.459 2.0488-.218.041-.48867.11591-.76367.25391-.343.172-.62303.40827-.83203.69727h-.94531c-.827 0-1.5.673-1.5 1.5v11c0 .827.673 1.5 1.5 1.5h2.5v1.5c0 .827.673 1.5 1.5 1.5h8c.827 0 1.5-.673 1.5-1.5v-8.1172c0-.92841-1-.91965-1 0v8.1172c0 .276-.224.5-.5.5h-8c-.276 0-.5-.224-.5-.5v-7.5h1.5c.827 0 1.5-.673 1.5-1.5v-1.5h.75586c.90248 0 .87043-1 0-1h-1.7559c-.133 0-.25952.053484-.35352.14648l-2.5 2.5c-.094.094-.14648.22052-.14648.35352v6h-2.5c-.276 0-.5-.224-.5-.5v-11c0-.276.224-.5.5-.5h.53906c-.027.159-.039062.326-.039062.5 0 .276.224.5.5.5h4.7578c.94617-.00625.92522-.97531 0-1h-4.1973c.096-.356.30572-.61606.63672-.78906.389-.203.80073-.21094.80273-.21094.276 0 .5-.224.5-.5 0-.827.673-1.5 1.5-1.5s1.5599.61308 1.5599 1.4401c.14078.99713 1.2668.5558.87367-.48109-.24888-1.1181-1.2422-1.959-2.4336-1.959zm.5 8.207v1.293c0 .276-.224.5-.5.5h-1.293z" fill="#003665"/>
 <path d="m15.932.097542c-2.24 0-4.055 1.815-4.055 4.055s1.815 4.055 4.055 4.055 4.055-1.815 4.055-4.055-1.815-4.055-4.055-4.055zm2.253 4.506h-1.802v1.802c0 .642-.901.631-.901 0v-1.802h-1.802c-.541 0-.557-.901 0-.901h1.802v-1.802c0-.539.901-.546.901 0v1.802h1.802c.454 0 .484.901 0 .901z" fill="#003665"/>
</svg>
