<!-- Generated by IcoMoon.io -->
<svg version="1.1" xmlns="http://www.w3.org/2000/svg" width="20" height="20" viewBox="0 0 20 20">
<title>filetype-jpg</title>
<path fill="#003665" d="M15.849 1.302c0 0 0.001 0.001 0.002 0.002v10.028c-0 0-0.001 0.001-0.002 0.002h-11.7c-0-0-0.001-0.001-0.002-0.002v-10.028c0-0 0.001-0.001 0.002-0.002zM15.851 0.466h-11.703c-0.46 0-0.836 0.376-0.836 0.836v10.031c0 0.46 0.376 0.836 0.836 0.836h11.703c0.46 0 0.836-0.376 0.836-0.836v-10.031c0-0.46-0.376-0.836-0.836-0.836z"></path>
<path fill="#003665" d="M14.179 3.392c0 0.693-0.561 1.254-1.254 1.254s-1.254-0.561-1.254-1.254c0-0.693 0.561-1.254 1.254-1.254s1.254 0.561 1.254 1.254z"></path>
<path fill="#003665" d="M15.015 10.497h-10.031v-1.672l2.926-5.016 3.344 4.18h0.836l2.926-2.508z"></path>
<path fill="#003665" d="M5.972 14.568v3.006q0 0.391-0.035 0.665-0.031 0.274-0.149 0.556-0.196 0.474-0.646 0.74-0.45 0.262-1.096 0.262-0.583 0-0.975-0.184-0.387-0.184-0.626-0.595-0.125-0.219-0.204-0.505t-0.078-0.544q0-0.274 0.153-0.419t0.391-0.145q0.231 0 0.348 0.133t0.18 0.415q0.067 0.301 0.133 0.481t0.223 0.309 0.446 0.129q0.771 0 0.771-1.131v-3.174q0-0.352 0.153-0.528 0.157-0.176 0.423-0.176 0.27 0 0.427 0.176 0.16 0.176 0.16 0.528z"></path>
<path fill="#003665" d="M9.467 17.464h-1.065v1.624q0 0.348-0.164 0.528t-0.415 0.18q-0.262 0-0.423-0.176-0.16-0.18-0.16-0.524v-4.423q0-0.384 0.176-0.548t0.56-0.164h1.491q0.661 0 1.018 0.102 0.352 0.098 0.607 0.325 0.258 0.227 0.391 0.556t0.133 0.74q0 0.877-0.54 1.331-0.54 0.45-1.609 0.45zM9.186 14.834h-0.783v1.753h0.783q0.411 0 0.685-0.086 0.278-0.086 0.423-0.282t0.145-0.513q0-0.38-0.223-0.618-0.25-0.254-1.029-0.254z"></path>
<path fill="#003665" d="M17.835 17.366v1.1q0 0.219-0.043 0.352-0.043 0.129-0.16 0.235-0.113 0.106-0.294 0.204-0.521 0.282-1.002 0.411t-1.049 0.129q-0.661 0-1.205-0.204t-0.928-0.591-0.591-0.939q-0.204-0.552-0.204-1.233 0-0.669 0.2-1.225t0.587-0.943 0.943-0.591q0.556-0.207 1.26-0.207 0.579 0 1.025 0.157 0.446 0.153 0.724 0.387t0.419 0.497 0.141 0.466q0 0.219-0.164 0.376-0.16 0.153-0.387 0.153-0.125 0-0.243-0.059-0.113-0.059-0.192-0.164-0.215-0.337-0.364-0.509t-0.403-0.29q-0.25-0.117-0.642-0.117-0.403 0-0.72 0.141-0.317 0.137-0.544 0.403-0.223 0.262-0.344 0.646-0.117 0.384-0.117 0.849 0 1.010 0.462 1.554 0.466 0.544 1.295 0.544 0.403 0 0.755-0.106 0.356-0.106 0.72-0.301v-0.931h-0.9q-0.325 0-0.493-0.098-0.164-0.098-0.164-0.333 0-0.192 0.137-0.317 0.141-0.125 0.38-0.125h1.319q0.243 0 0.411 0.043t0.27 0.192q0.106 0.149 0.106 0.446z"></path>
</svg>
