<!-- Generated by IcoMoon.io -->
<svg version="1.1" xmlns="http://www.w3.org/2000/svg" width="20" height="20" viewBox="0 0 20 20">
<title>filetype-pptx</title>
<path fill="#003665" d="M10.969 5.423c0-0.225-0.070-0.403-0.207-0.539-0.138-0.134-0.374-0.201-0.708-0.201h-0.555v1.502h0.551c0.358 0 0.603-0.074 0.736-0.222 0.122-0.133 0.183-0.312 0.183-0.54zM12.438 5.407c0 0.497-0.124 0.907-0.375 1.231-0.323 0.421-0.86 0.631-1.611 0.631h-0.953v1.92h-1.471v-5.591h2.398c0.682 0 1.2 0.189 1.554 0.568 0.305 0.324 0.458 0.738 0.458 1.242zM16.297 12.028h-12.594v-12.028h12.594zM4.913 10.818h10.172v-9.608h-10.172z"></path>
<path fill="#003665" d="M2.869 17.579h-0.992v1.513q0 0.324-0.153 0.492t-0.386 0.168q-0.244 0-0.394-0.164-0.149-0.168-0.149-0.489v-4.12q0-0.357 0.164-0.51t0.521-0.153h1.389q0.616 0 0.948 0.095 0.328 0.091 0.565 0.303 0.241 0.211 0.365 0.518t0.124 0.689q0 0.817-0.503 1.24-0.503 0.419-1.498 0.419zM2.606 15.129h-0.729v1.633h0.729q0.383 0 0.638-0.080 0.259-0.080 0.394-0.262t0.135-0.478q0-0.354-0.208-0.576-0.233-0.237-0.959-0.237z"></path>
<path fill="#003665" d="M7.856 17.579h-0.992v1.513q0 0.324-0.153 0.492t-0.386 0.168q-0.244 0-0.394-0.164-0.149-0.168-0.149-0.489v-4.12q0-0.357 0.164-0.51t0.521-0.153h1.389q0.616 0 0.948 0.095 0.328 0.091 0.565 0.303 0.241 0.211 0.365 0.518t0.124 0.689q0 0.817-0.503 1.24-0.503 0.419-1.498 0.419zM7.594 15.129h-0.729v1.633h0.729q0.383 0 0.638-0.080 0.259-0.080 0.394-0.262t0.135-0.478q0-0.354-0.208-0.576-0.233-0.237-0.959-0.237z"></path>
<path fill="#003665" d="M14.24 15.209h-1.181v3.883q0 0.335-0.149 0.499-0.149 0.16-0.386 0.16-0.241 0-0.394-0.164-0.149-0.164-0.149-0.496v-3.883h-1.181q-0.277 0-0.412-0.12-0.135-0.124-0.135-0.324 0-0.208 0.139-0.328 0.142-0.12 0.408-0.12h3.442q0.281 0 0.416 0.124 0.139 0.124 0.139 0.324t-0.139 0.324q-0.139 0.12-0.416 0.12z"></path>
<path fill="#003665" d="M15.239 18.622l1.196-1.746-1.006-1.553q-0.142-0.226-0.215-0.386-0.069-0.164-0.069-0.314 0-0.153 0.135-0.273 0.139-0.124 0.335-0.124 0.226 0 0.35 0.135 0.128 0.131 0.35 0.492l0.802 1.298 0.857-1.298q0.106-0.164 0.179-0.281 0.077-0.117 0.146-0.193t0.153-0.113q0.088-0.040 0.201-0.040 0.204 0 0.332 0.124 0.131 0.12 0.131 0.288 0 0.244-0.281 0.664l-1.054 1.575 1.134 1.746q0.153 0.23 0.222 0.383 0.069 0.149 0.069 0.284 0 0.128-0.062 0.233t-0.175 0.168-0.255 0.062q-0.153 0-0.259-0.066-0.106-0.062-0.171-0.157t-0.244-0.368l-0.941-1.48-0.999 1.524q-0.117 0.182-0.168 0.255-0.047 0.073-0.117 0.142t-0.164 0.109-0.222 0.040q-0.197 0-0.328-0.12-0.128-0.12-0.128-0.35 0-0.27 0.266-0.66z"></path>
</svg>
