<!-- Generated by IcoMoon.io -->
<svg version="1.1" xmlns="http://www.w3.org/2000/svg" width="20" height="20" viewBox="0 0 20 20">
<title>file-attachment-add</title>
<path fill="#003665" d="M7.297 20c-2.481 0-4.5-2.019-4.5-4.5v-12c0-1.93 1.57-3.5 3.5-3.5s3.5 1.57 3.5 3.5v11c0 1.378-1.122 2.5-2.5 2.5s-2.5-1.122-2.5-2.5v-6c0-0.276 0.224-0.5 0.5-0.5s0.5 0.224 0.5 0.5v6c0 0.827 0.673 1.5 1.5 1.5s1.5-0.673 1.5-1.5v-11c0-1.378-1.122-2.5-2.5-2.5s-2.5 1.122-2.5 2.5v12c0 1.93 1.57 3.5 3.5 3.5s3.5-1.57 3.5-3.5v-7c0-0.276 0.224-0.5 0.5-0.5s0.5 0.224 0.5 0.5v7c0 2.481-2.019 4.5-4.5 4.5z"></path>
<path fill="#003665" d="M15.892 0.040c-2.24 0-4.055 1.815-4.055 4.055s1.815 4.055 4.055 4.055c2.24 0 4.055-1.815 4.055-4.055s-1.815-4.055-4.055-4.055zM18.145 4.546h-1.802v1.802c0 0.642-0.901 0.631-0.901 0v-1.802h-1.802c-0.541 0-0.557-0.901 0-0.901h1.802v-1.802c0-0.539 0.901-0.546 0.901 0v1.802h1.802c0.454 0 0.484 0.901 0 0.901z"></path>
</svg>
