<!-- Generated by IcoMoon.io -->
<svg version="1.1" xmlns="http://www.w3.org/2000/svg" width="20" height="20" viewBox="0 0 20 20">
<title>filetype-xls</title>
<path fill="#003665" d="M13.499 9.188l-2.541-3.323 2.237-2.907h-2.189l-1.065 1.581-1-1.581h-2.152l2.134 2.907-2.643 3.323h2.13l1.52-2.046 1.447 2.046h2.121zM16.297 12.028h-12.594v-12.028h12.594zM4.913 10.818h10.172v-9.607h-10.172z"></path>
<path fill="#003665" d="M2.882 18.664l1.339-1.955-1.126-1.739q-0.159-0.253-0.241-0.433-0.078-0.184-0.078-0.351 0-0.171 0.151-0.306 0.155-0.139 0.375-0.139 0.253 0 0.392 0.151 0.143 0.147 0.392 0.551l0.898 1.453 0.959-1.453q0.118-0.184 0.2-0.314 0.086-0.131 0.163-0.216t0.171-0.127q0.098-0.045 0.224-0.045 0.229 0 0.371 0.139 0.147 0.135 0.147 0.322 0 0.273-0.314 0.743l-1.18 1.763 1.269 1.955q0.171 0.257 0.249 0.429 0.078 0.167 0.078 0.318 0 0.143-0.069 0.261t-0.196 0.188-0.286 0.069q-0.171 0-0.29-0.073-0.118-0.069-0.192-0.175t-0.273-0.412l-1.053-1.657-1.118 1.706q-0.131 0.204-0.188 0.286-0.053 0.082-0.131 0.159t-0.184 0.122-0.249 0.045q-0.22 0-0.367-0.135-0.143-0.135-0.143-0.392 0-0.302 0.298-0.739z"></path>
<path fill="#003665" d="M9.334 14.476v4.355h2.457q0.294 0 0.449 0.143 0.159 0.143 0.159 0.359 0 0.22-0.155 0.359-0.155 0.135-0.453 0.135h-2.926q-0.396 0-0.571-0.175-0.171-0.175-0.171-0.567v-4.608q0-0.367 0.163-0.551 0.167-0.184 0.437-0.184 0.273 0 0.441 0.184 0.171 0.18 0.171 0.551z"></path>
<path fill="#003665" d="M17.416 18.031q0 0.543-0.282 0.975-0.278 0.433-0.816 0.677t-1.277 0.245q-0.886 0-1.461-0.335-0.408-0.241-0.665-0.641-0.253-0.404-0.253-0.784 0-0.22 0.151-0.375 0.155-0.159 0.392-0.159 0.192 0 0.322 0.122 0.135 0.122 0.229 0.363 0.114 0.286 0.245 0.478 0.135 0.192 0.375 0.318 0.241 0.122 0.633 0.122 0.539 0 0.873-0.249 0.339-0.253 0.339-0.629 0-0.298-0.184-0.482-0.18-0.188-0.469-0.286-0.286-0.098-0.767-0.208-0.645-0.151-1.082-0.351-0.433-0.204-0.69-0.551-0.253-0.351-0.253-0.869 0-0.494 0.269-0.877t0.78-0.588q0.51-0.208 1.2-0.208 0.551 0 0.951 0.139 0.404 0.135 0.669 0.363 0.265 0.224 0.388 0.473t0.122 0.486q0 0.216-0.155 0.392-0.151 0.171-0.38 0.171-0.208 0-0.318-0.102-0.106-0.106-0.233-0.343-0.163-0.339-0.392-0.527-0.229-0.192-0.735-0.192-0.469 0-0.759 0.208-0.286 0.204-0.286 0.494 0 0.18 0.098 0.31t0.269 0.224 0.347 0.147 0.58 0.155q0.506 0.118 0.914 0.261 0.412 0.143 0.698 0.347 0.29 0.204 0.449 0.518 0.163 0.31 0.163 0.763z"></path>
</svg>
