<!-- Generated by IcoMoon.io -->
<svg version="1.1" xmlns="http://www.w3.org/2000/svg" width="20" height="20" viewBox="0 0 20 20">
<title>file-attachment-compare</title>
<path fill="#003665" d="M15.354 12.146l-2-2c-0.195-0.195-0.512-0.195-0.707 0s-0.195 0.512 0 0.707l1.146 1.146h-9.586l1.146-1.146c0.195-0.195 0.195-0.512 0-0.707s-0.512-0.195-0.707 0l-2 2c-0.195 0.195-0.195 0.512 0 0.707l2 2c0.098 0.098 0.226 0.146 0.354 0.146s0.256-0.049 0.354-0.146c0.195-0.195 0.195-0.512 0-0.707l-1.146-1.146h9.586l-1.146 1.146c-0.195 0.195-0.195 0.512 0 0.707 0.098 0.098 0.226 0.146 0.354 0.146s0.256-0.049 0.354-0.146l2-2c0.195-0.195 0.195-0.512 0-0.707z"></path>
<path fill="#003665" d="M14.408-0.094c-1.93 0-3.5 1.57-3.5 3.5v6.711c0 0.864 1 0.873 1 0v-6.711c0-1.378 1.122-2.5 2.5-2.5s2.5 1.122 2.5 2.5v11c0 0.827-0.673 1.5-1.5 1.5-0.699 0.015-0.691 1.008 0 1 1.378 0 2.5-1.122 2.5-2.5v-11c0-1.93-1.57-3.5-3.5-3.5z"></path>
<path fill="#003665" d="M19.408 7.906c-0.276 0-0.5 0.224-0.5 0.5v7c0 1.93-1.57 3.5-3.5 3.5s-3.5-1.57-3.5-3.5v-0.535c0-0.794-1-0.794-1 0v0.535c0 2.481 2.019 4.5 4.5 4.5s4.5-2.019 4.5-4.5v-7c0-0.276-0.224-0.5-0.5-0.5z"></path>
<path fill="#003665" d="M4.615-0.070c-2.481 0-4.5 2.019-4.5 4.5v12c0 1.93 1.57 3.5 3.5 3.5s3.5-1.57 3.5-3.5v-1.559c0-0.798-1-0.825-1 0v1.559c0 1.378-1.122 2.5-2.5 2.5s-2.5-1.122-2.5-2.5v-12c0-1.93 1.57-3.5 3.5-3.5s3.5 1.57 3.5 3.5v5.687c0 0.863 1 0.887 1 0v-5.688c0-2.481-2.019-4.5-4.5-4.5z"></path>
<path fill="#003665" d="M4.615 2.93c-1.378 0-2.5 1.122-2.5 2.5v4.688c0 0.898 1 0.812 1 0v-4.688c0-0.827 0.673-1.5 1.5-1.5s1.5 0.673 1.5 1.5v4.688c0 0.87 1 0.842 1 0v-4.688c0-1.378-1.122-2.5-2.5-2.5z"></path>
</svg>
