<!-- Generated by IcoMoon.io -->
<svg version="1.1" xmlns="http://www.w3.org/2000/svg" width="20" height="20" viewBox="0 0 20 20">
<title>message-new</title>
<path fill="#003665" d="M9.131 6.721c-0.308 0-0.576 0.057-0.807 0.17-0.231 0.109-0.432 0.255-0.602 0.438-0.166 0.178-0.307 0.383-0.42 0.613-0.113 0.227-0.201 0.458-0.266 0.697s-0.112 0.473-0.141 0.699c-0.028 0.223-0.043 0.422-0.043 0.596 0 0.17 0.011 0.327 0.031 0.473s0.055 0.279 0.104 0.4c0.049 0.121 0.109 0.231 0.182 0.328s0.161 0.181 0.262 0.25c0.105 0.065 0.224 0.114 0.357 0.15 0.134 0.032 0.287 0.049 0.461 0.049 0.134 0 0.271-0.016 0.408-0.049 0.142-0.032 0.286-0.083 0.432-0.156s0.292-0.166 0.441-0.279c0.154-0.117 0.313-0.258 0.475-0.42 0.028 0.15 0.079 0.283 0.152 0.4 0.077 0.113 0.17 0.206 0.279 0.279s0.235 0.129 0.377 0.17c0.142 0.036 0.295 0.055 0.461 0.055 0.312 0 0.587-0.049 0.826-0.15 0.243-0.105 0.455-0.249 0.637-0.432s0.335-0.392 0.461-0.631c0.126-0.243 0.228-0.5 0.305-0.771 0.012-0.043 0.014-0.089 0.025-0.133-0.043-0.63-0.266-0.688-0.734-0.463-0.013 0.079-0.124 0.159-0.141 0.236-0.045 0.206-0.101 0.405-0.17 0.596-0.069 0.186-0.155 0.35-0.256 0.492s-0.218 0.255-0.352 0.34c-0.134 0.081-0.283 0.121-0.449 0.121-0.271 0-0.456-0.082-0.553-0.248-0.097-0.17-0.114-0.433-0.049-0.785l0.414-2.143c0.11-0.462-0.023-0.748-0.492-0.785-0.015 0.004-0.051 0.002-0.063 0.008-0.057 0.028-0.093 0.070-0.109 0.127l-0.104 0.535c-0.105-0.134-0.207-0.249-0.309-0.346s-0.207-0.179-0.316-0.244c-0.109-0.065-0.224-0.11-0.346-0.139-0.117-0.032-0.242-0.049-0.371-0.049zM9.174 7.51c0.206 0 0.391 0.069 0.553 0.207s0.321 0.337 0.475 0.596l-0.293 1.578c-0.154 0.158-0.294 0.295-0.424 0.412-0.126 0.113-0.246 0.206-0.359 0.279-0.113 0.069-0.221 0.122-0.322 0.158-0.101 0.032-0.2 0.049-0.297 0.049-0.255 0-0.438-0.080-0.547-0.242-0.105-0.162-0.158-0.394-0.158-0.693 0-0.126 0.009-0.27 0.025-0.432 0.020-0.166 0.053-0.336 0.098-0.51s0.101-0.344 0.17-0.51c0.073-0.166 0.159-0.314 0.26-0.443 0.101-0.134 0.222-0.241 0.359-0.322 0.138-0.085 0.291-0.127 0.461-0.127z"></path>
<path fill="#003665" d="M9.5 1.998c-2.515 0-4.885 0.766-6.672 2.156-0.881 0.686-1.574 1.487-2.061 2.381-0.51 0.938-0.768 1.936-0.768 2.965 0 2.038 1.047 3.986 2.885 5.393-0.249 0.69-0.952 2.164-2.643 3.178-0.193 0.115-0.285 0.346-0.225 0.563s0.257 0.367 0.482 0.367l0.002 0.002c1.030 0 2.305-0.375 3.793-1.115 0.958-0.477 1.761-0.985 2.189-1.272 0.969 0.256 1.983 0.387 3.016 0.387 2.515 0 4.885-0.766 6.672-2.156 0.881-0.686 1.574-1.487 2.061-2.381 0.51-0.938 0.768-1.935 0.768-2.965 0-0.141-0.018-0.28-0.027-0.42-0.278-0.473-1.084-0.133-0.979 0.492-0.051 3.551-3.839 6.428-8.494 6.428-1.021 0-2.021-0.137-2.969-0.408-0.144-0.041-0.297-0.017-0.42 0.068-1.035 0.712-2.438 1.503-3.74 1.959 1.065-1.155 1.463-2.353 1.58-2.789 0.054-0.203-0.023-0.416-0.195-0.537-1.751-1.23-2.756-2.978-2.756-4.793 0-3.584 3.813-6.5 8.5-6.5 0.249 0 0.494 0.011 0.738 0.027 0.516 0.103 0.785-0.805 0.299-0.98-0.342-0.029-0.688-0.049-1.037-0.049z"></path>
<path fill="#003665" d="M9.865 4.535c-0.57 0-1.082 0.059-1.535 0.176-0.449 0.117-0.851 0.28-1.203 0.486-0.348 0.202-0.651 0.44-0.91 0.715-0.255 0.271-0.474 0.561-0.656 0.869-0.178 0.308-0.324 0.623-0.437 0.947-0.113 0.32-0.203 0.636-0.268 0.947-0.061 0.308-0.103 0.6-0.127 0.875-0.020 0.271-0.029 0.512-0.029 0.723 0 0.575 0.073 1.095 0.219 1.561s0.381 0.863 0.709 1.195c0.332 0.332 0.759 0.588 1.281 0.766 0.526 0.178 1.169 0.268 1.926 0.268 0.316 0 0.606-0.015 0.869-0.043s0.491-0.063 0.686-0.104c0.198-0.040 0.353-0.081 0.467-0.121 0.117-0.040 0.189-0.072 0.213-0.092s0.043-0.042 0.055-0.066c0.016-0.024 0.029-0.052 0.037-0.084 0.008-0.028 0.012-0.061 0.012-0.098 0.004-0.036 0.006-0.084 0.006-0.141 0-0.069-0.002-0.127-0.006-0.176-0.004-0.045-0.013-0.083-0.025-0.115-0.008-0.028-0.021-0.050-0.041-0.066-0.016-0.012-0.036-0.018-0.061-0.018-0.040 0-0.115 0.014-0.225 0.047-0.109 0.036-0.254 0.073-0.432 0.109-0.174 0.040-0.38 0.077-0.619 0.109-0.239 0.036-0.507 0.055-0.803 0.055-0.652 0-1.192-0.075-1.621-0.225s-0.77-0.36-1.025-0.631-0.436-0.592-0.541-0.965c-0.101-0.372-0.152-0.785-0.152-1.234 0-0.158 0.007-0.349 0.020-0.576 0.016-0.227 0.045-0.468 0.090-0.723 0.045-0.259 0.11-0.526 0.195-0.801 0.085-0.279 0.196-0.551 0.334-0.814 0.142-0.267 0.313-0.517 0.516-0.752s0.445-0.443 0.729-0.621c0.283-0.182 0.612-0.324 0.984-0.43 0.34-0.096 0.729-0.144 1.156-0.152 0.673 0.069 0.774-0.63 0.215-0.801z"></path>
<path fill="#003665" d="M19.435 3.319h-2.733v-2.733c0-0.302-0.245-0.547-0.547-0.547s-0.547 0.245-0.547 0.547v2.733h-2.733c-0.302 0-0.547 0.245-0.547 0.547s0.245 0.547 0.547 0.547h2.733v2.733c0 0.302 0.245 0.547 0.547 0.547s0.547-0.245 0.547-0.547v-2.733h2.733c0.302 0 0.547-0.245 0.547-0.547s-0.245-0.547-0.547-0.547z"></path>
</svg>
