<!-- Generated by IcoMoon.io -->
<svg version="1.1" xmlns="http://www.w3.org/2000/svg" width="20" height="20" viewBox="0 0 20 20">
<title>star-remove-all</title>
<path fill="#003665" d="M10 2c-0.189 0-0.362 0.106-0.447 0.275l-2.385 4.773-5.75 0.957c-0.185 0.031-0.338 0.164-0.395 0.342s-0.009 0.374 0.123 0.506l3.31 3.289c0.514 0.492 1.121-0.193 0.705-0.646l-2.622-2.664 5.043-0.84c0.158-0.027 0.293-0.127 0.365-0.27l2.053-4.106 1.064 2.009c0.337 0.653 1.107 0.238 0.806-0.387l-1.422-2.965c-0.084-0.169-0.258-0.275-0.447-0.275z"></path>
<path fill="#003665" d="M15.113 7.493c-0.729-0.072-0.844 0.794-0.225 0.899l2.573 0.44-3.314 3.314c-0.115 0.114-0.166 0.277-0.139 0.436l0.83 4.986-4.6-2.508c-0.074-0.041-0.156-0.061-0.238-0.061s-0.163 0.020-0.238 0.061l-5.684 3.153c-0.613 0.344-0.21 1.113 0.403 0.827l5.519-2.971 5.262 2.869c0.075 0.041 0.156 0.061 0.238 0.061 0.102 0 0.203-0.033 0.289-0.094 0.155-0.111 0.234-0.299 0.203-0.488l-0.957-5.746 3.818-3.818c0.133-0.132 0.18-0.327 0.123-0.506s-0.21-0.311-0.395-0.342z"></path>
<path fill="#003665" d="M18.898 0.385l-18.475 18.305c-0.492 0.469 0.229 1.198 0.703 0.711l18.475-18.305c0.422-0.433-0.194-1.097-0.703-0.711z"></path>
</svg>
