<?xml version="1.0" encoding="UTF-8"?>
<!-- Generated by IcoMoon.io -->
<svg width="20" height="20" version="1.1" viewBox="0 0 20 20" xmlns="http://www.w3.org/2000/svg">
 <title>file-general-link</title>
 <path d="m3.5 1c-.827 0-1.5.673-1.5 1.5v11.145c0 .83786 1 .77585 1 0v-11.145c0-.276.224-.5.5-.5h8.5v3.5c0 .827.673 1.5 1.5 1.5h3.5v11.5c0 .276-.224.5-.5.5h-8.5332c-.80223 0-.81276 1 0 1h8.5332c.827 0 1.5-.673 1.5-1.5v-12.5c0-.133-.053484-.25952-.14648-.35352l-4.5-4.5c-.094-.094-.22052-.14648-.35352-.14648zm9.5 1.207 3.793 3.793h-3.293c-.276 0-.5-.224-.5-.5z" fill="#006F8B"/>
 <path d="m5.4826 15.966h-3c-.276 0-.5.224-.5.5s.224.5.5.5h1.793l-2.146 2.146c-.195.195-.195.512 0 .707.098.098.226.146.354.146s.256-.049.354-.146l2.146-2.146v1.793c0 .276.224.5.5.5s.5-.224.5-.5v-3c0-.276-.224-.5-.5-.5z" fill="#006F8B"/>
</svg>
